{"glyphs":{"0":{"ha":878,"x_min":0,"x_max":0,"o":"m 439 -14 b 776 472 654 -14 776 168 b 439 958 776 776 654 958 b 101 472 224 958 101 776 b 439 -14 101 168 224 -14 z m 439 76 b 200 472 286 76 200 218 b 439 868 200 724 286 868 b 678 472 592 868 678 724 b 439 76 678 218 592 76 z "},"1":{"ha":453,"x_min":0,"x_max":0,"o":"m 207 26 b 233 0 207 13 218 0 l 283 0 b 308 26 297 0 308 13 l 308 918 b 283 944 308 932 297 944 l 246 944 l 51 756 b 49 725 44 749 39 736 l 75 696 b 107 694 85 685 96 686 l 207 772 z "},"2":{"ha":721,"x_min":0,"x_max":0,"o":"m 58 26 b 85 0 58 13 69 0 l 613 0 b 639 26 626 0 639 13 l 639 64 b 613 90 639 78 626 90 l 204 90 b 471 375 293 185 382 281 b 644 690 567 478 644 568 b 344 958 644 832 543 958 b 81 822 179 958 81 822 b 82 786 71 811 74 796 l 110 760 b 147 760 121 749 136 749 b 344 864 190 806 258 864 b 539 688 488 864 539 767 b 399 436 539 622 493 539 b 58 68 285 314 172 190 z "},"3":{"ha":739,"x_min":0,"x_max":0,"o":"m 65 110 b 344 -14 96 75 174 -14 b 653 256 536 -14 653 104 b 486 481 653 375 551 453 l 486 485 b 629 704 549 514 629 597 b 343 958 629 860 511 958 b 92 836 192 958 92 836 b 92 800 82 826 81 810 l 125 774 b 161 776 139 761 153 767 b 343 867 192 811 249 867 b 525 690 442 867 525 800 b 304 522 525 599 453 522 l 228 522 b 199 492 206 522 199 514 l 199 458 b 225 428 199 436 210 428 l 303 428 b 549 246 475 428 549 340 b 349 72 549 136 454 72 b 142 168 229 72 154 153 b 104 175 131 183 119 186 l 67 143 b 65 110 56 135 57 119 z "},"4":{"ha":814,"x_min":0,"x_max":0,"o":"m 49 214 l 525 214 l 525 26 b 551 0 525 13 538 0 l 599 0 b 625 26 613 0 625 13 l 625 217 l 738 217 b 764 243 753 217 764 229 l 764 274 b 738 299 764 288 753 299 l 625 299 l 624 933 b 597 960 624 949 611 960 l 569 960 b 549 951 557 960 553 956 l 22 292 l 22 240 b 49 214 22 226 33 214 z m 139 300 l 531 783 l 531 300 z "},"5":{"ha":740,"x_min":0,"x_max":0,"o":"m 93 101 b 361 -14 128 60 207 -14 b 683 304 549 -14 683 131 b 363 596 683 486 572 596 l 201 596 l 201 851 l 554 851 b 581 878 569 851 581 864 l 581 918 b 554 944 581 932 569 944 l 135 944 b 108 918 119 944 108 932 l 108 551 b 151 503 108 529 124 503 l 363 503 b 581 303 511 503 581 411 b 363 75 581 193 496 75 b 157 178 238 75 171 158 b 122 179 146 193 135 190 b 90 149 111 169 101 158 b 93 101 74 132 75 122 z "},"6":{"ha":754,"x_min":0,"x_max":0,"o":"m 74 382 b 397 -14 74 161 172 -14 b 704 304 564 -14 704 129 b 406 606 704 489 563 606 b 194 543 286 606 194 543 b 551 889 243 731 489 868 b 576 929 578 897 583 913 l 561 963 b 531 976 556 975 544 982 b 74 382 390 921 74 751 z m 397 78 b 176 425 207 78 153 286 b 396 515 176 425 267 515 b 606 299 513 515 606 419 b 397 78 606 179 514 78 z "},"7":{"ha":658,"x_min":0,"x_max":0,"o":"m 126 26 b 153 0 126 13 139 0 l 193 0 b 239 36 219 0 233 24 l 644 908 l 644 918 b 618 944 644 932 632 944 l 60 944 b 33 918 46 944 33 932 l 33 878 b 60 851 33 864 46 851 l 514 851 l 126 42 z "},"8":{"ha":796,"x_min":0,"x_max":0,"o":"m 86 254 b 396 -14 86 103 204 -14 b 711 254 593 -14 711 103 b 543 486 711 374 608 458 l 543 490 b 686 704 606 519 686 597 b 397 958 686 857 565 958 b 111 704 232 958 111 857 b 254 490 111 597 192 519 l 254 486 b 86 254 189 458 86 374 z m 399 535 b 214 700 269 547 214 614 b 393 875 214 804 293 875 b 583 700 503 875 583 804 b 399 535 583 614 526 547 z m 190 244 b 399 432 190 331 265 418 b 607 244 531 418 607 331 b 396 69 607 135 515 69 b 190 244 286 69 190 138 z "},"9":{"ha":754,"x_min":0,"x_max":0,"o":"m 178 24 l 193 -10 b 224 -24 199 -22 210 -29 b 681 571 364 32 681 201 b 357 967 681 792 582 967 b 50 649 190 967 50 824 b 349 347 50 464 192 347 b 560 410 468 347 560 410 b 203 64 511 222 265 85 b 178 24 176 56 171 40 z m 358 438 b 149 654 242 438 149 533 b 357 875 149 774 240 875 b 578 528 547 875 601 667 b 358 438 578 528 488 438 z "}," ":{"ha":308,"x_min":0,"x_max":0,"o":""},"!":{"ha":414,"x_min":0,"x_max":0,"o":"m 199 378 l 215 378 b 242 400 228 378 240 389 l 268 790 l 268 946 b 242 972 268 960 256 972 l 172 972 b 146 946 158 972 146 960 l 146 788 l 172 400 b 199 378 174 389 186 378 z m 128 65 b 207 -14 128 22 164 -14 b 286 65 251 -14 286 22 b 207 144 286 110 251 144 b 128 65 164 144 128 110 z "},"\"":{"ha":426,"x_min":0,"x_max":0,"o":"m 304 696 l 313 696 b 338 717 322 696 335 706 l 376 938 b 351 972 382 957 369 972 l 304 972 b 278 946 290 972 278 960 l 278 722 b 304 696 278 708 290 696 z m 94 696 l 103 696 b 128 717 113 696 125 706 l 167 938 b 142 972 172 957 160 972 l 94 972 b 68 946 81 972 68 960 l 68 722 b 94 696 68 708 81 696 z "},"#":{"ha":753,"x_min":0,"x_max":0,"o":"m 147 31 b 174 0 144 14 156 0 l 182 0 b 208 22 194 0 207 10 l 243 271 l 456 271 l 419 31 b 446 0 418 14 429 0 l 454 0 b 481 22 468 0 479 10 l 517 271 l 628 271 b 651 297 642 271 651 283 l 651 307 b 625 333 651 322 639 333 l 526 333 l 560 571 l 668 571 b 692 597 683 571 692 583 l 692 607 b 665 633 692 621 681 633 l 568 633 l 610 942 b 583 972 613 958 600 972 l 575 972 b 549 950 563 972 550 961 l 506 633 l 296 633 l 338 942 b 313 972 340 958 328 972 l 303 972 b 278 950 290 972 279 961 l 233 633 l 125 633 b 99 607 111 633 99 621 l 99 597 b 125 571 99 583 111 571 l 225 571 l 192 333 l 85 333 b 58 307 69 333 58 322 l 58 297 b 85 271 58 283 69 271 l 182 271 z m 253 333 l 288 571 l 497 571 l 465 333 z "},"$":{"ha":728,"x_min":0,"x_max":0,"o":"m 81 99 b 339 -12 97 83 193 0 l 339 -157 b 368 -182 339 -174 354 -182 b 399 -157 383 -182 399 -174 l 399 -12 b 674 236 546 -3 674 99 b 399 531 674 388 567 458 l 400 890 b 551 829 474 879 543 833 b 617 868 585 810 593 832 b 608 915 633 894 617 911 b 400 985 608 915 521 975 l 400 1029 b 375 1056 400 1044 389 1056 l 365 1056 b 339 1029 351 1056 339 1044 l 339 985 b 75 739 149 969 75 828 b 78 689 75 721 75 704 b 339 443 96 564 192 501 l 339 82 b 142 185 232 97 150 176 b 72 146 113 210 94 172 b 81 99 56 119 69 108 z m 339 556 b 178 740 238 601 178 654 b 339 892 178 794 221 879 z m 399 81 l 399 415 b 563 232 507 363 563 310 b 399 81 563 156 492 89 z "},"%":{"ha":938,"x_min":0,"x_max":0,"o":"m 236 613 b 424 800 339 613 424 696 b 236 988 424 904 339 988 b 49 800 132 988 49 904 b 236 613 49 696 132 613 z m 178 38 b 201 0 168 19 181 0 l 221 0 b 244 14 233 0 242 8 l 724 935 b 700 972 733 953 721 972 l 678 972 b 654 958 667 972 660 968 z m 236 692 b 128 800 175 692 128 739 b 236 906 128 857 175 906 b 342 800 293 906 342 857 b 236 692 342 739 293 692 z m 488 172 b 675 -15 488 68 571 -15 b 863 172 778 -15 863 68 b 675 360 863 276 778 360 b 488 172 571 360 488 276 z m 567 172 b 675 278 567 229 614 278 b 781 172 732 278 781 229 b 675 64 781 111 732 64 b 567 172 614 64 567 111 z "},"&":{"ha":925,"x_min":0,"x_max":0,"o":"m 114 242 b 382 -14 114 106 207 -14 b 685 125 507 -14 610 40 l 803 3 b 861 -1 824 -19 844 -17 l 878 14 b 879 78 907 46 896 60 l 746 211 b 828 524 797 303 828 417 b 801 556 828 535 831 556 l 768 556 b 736 524 747 556 736 554 b 681 276 736 435 717 350 l 451 506 b 657 772 532 556 657 649 b 422 986 657 888 572 986 b 176 761 254 986 176 867 b 274 558 174 678 219 615 l 307 522 l 307 519 b 114 242 232 475 114 392 z m 389 569 l 358 600 b 269 758 306 651 267 699 b 414 904 269 839 322 904 b 560 769 508 904 560 836 b 389 569 560 669 451 607 z m 211 240 b 367 460 211 350 303 421 l 624 190 b 386 72 564 118 482 72 b 211 240 289 72 211 143 z "},"'":{"ha":217,"x_min":0,"x_max":0,"o":"m 94 696 l 103 696 b 128 717 113 696 125 706 l 167 938 b 142 972 172 957 160 972 l 94 972 b 68 946 81 972 68 960 l 68 722 b 94 696 68 708 81 696 z "},"(":{"ha":478,"x_min":0,"x_max":0,"o":"m 408 -108 b 433 -94 424 -110 432 -106 l 436 -57 b 422 -33 439 -44 432 -35 b 178 438 247 1 178 165 b 422 908 178 710 247 874 b 436 932 432 910 439 919 l 433 969 b 408 983 432 981 424 985 b 81 438 250 975 81 846 b 408 -108 81 29 250 -100 z "},")":{"ha":478,"x_min":0,"x_max":0,"o":"m 56 -33 b 42 -57 46 -35 39 -44 l 44 -94 b 69 -108 46 -106 54 -110 b 397 438 228 -100 397 29 b 69 983 397 846 228 975 b 44 969 54 985 46 981 l 42 932 b 56 908 39 919 46 910 b 300 438 231 874 300 710 b 56 -33 300 165 231 1 z "},"*":{"ha":456,"x_min":0,"x_max":0,"o":"m 218 576 l 236 576 b 263 603 250 576 263 589 l 260 715 l 354 647 b 392 656 367 640 383 643 l 401 671 b 393 707 408 682 406 699 l 285 775 l 392 843 b 399 879 404 851 406 867 l 389 894 b 353 903 381 906 365 910 l 260 833 l 263 947 b 236 972 263 961 250 972 l 218 972 b 192 947 204 972 192 961 l 194 832 l 99 900 b 64 892 88 908 71 903 b 53 876 60 886 57 882 b 60 840 46 865 49 849 l 167 775 l 63 710 b 56 672 51 701 47 685 l 65 658 b 101 650 72 646 90 642 l 194 717 l 192 603 b 218 576 192 589 204 576 z "},"+":{"ha":696,"x_min":0,"x_max":0,"o":"m 301 218 b 328 193 301 204 314 193 l 367 193 b 393 218 381 193 393 204 l 393 436 l 613 436 b 638 463 626 436 638 449 l 638 501 b 613 528 638 515 626 528 l 393 528 l 393 747 b 367 772 393 761 381 772 l 328 772 b 301 747 314 772 301 761 l 301 528 l 83 528 b 57 501 69 528 57 515 l 57 463 b 83 436 57 449 69 436 l 301 436 z "},",":{"ha":324,"x_min":0,"x_max":0,"o":"m 76 65 b 156 -14 76 22 113 -14 b 172 -12 161 -14 167 -14 b 86 -187 172 -114 100 -175 b 78 -221 72 -200 71 -214 l 97 -240 b 131 -237 106 -249 117 -250 b 247 19 175 -196 247 -96 b 156 144 247 119 200 144 b 76 65 113 144 76 110 z "},"-":{"ha":574,"x_min":0,"x_max":0,"o":"m 142 306 l 432 306 b 458 331 447 306 458 317 l 458 357 b 432 383 458 372 447 383 l 142 383 b 115 357 126 383 115 372 l 115 331 b 142 306 115 317 126 306 z "},".":{"ha":314,"x_min":0,"x_max":0,"o":"m 78 65 b 157 -14 78 22 114 -14 b 236 65 201 -14 236 22 b 157 144 236 110 201 144 b 78 65 114 144 78 110 z "},"/":{"ha":444,"x_min":0,"x_max":0,"o":"m 56 35 b 81 0 50 15 63 0 l 113 0 b 138 18 122 0 135 8 l 408 938 b 383 972 414 957 403 972 l 353 972 b 328 954 342 972 331 964 z "},":":{"ha":356,"x_min":0,"x_max":0,"o":"m 178 411 b 257 490 222 411 257 447 b 178 569 257 535 222 569 b 99 490 135 569 99 535 b 178 411 99 447 135 411 z m 99 65 b 178 -14 99 22 135 -14 b 257 65 222 -14 257 22 b 178 144 257 110 222 144 b 99 65 135 144 99 110 z "},";":{"ha":360,"x_min":0,"x_max":0,"o":"m 176 411 b 256 490 221 411 256 447 b 176 569 256 535 221 569 b 97 490 133 569 97 535 b 176 411 97 447 133 411 z m 97 65 b 176 -14 97 22 133 -14 b 193 -12 182 -14 188 -14 b 107 -187 193 -114 121 -175 b 99 -221 93 -200 92 -214 l 118 -240 b 151 -237 126 -249 138 -250 b 268 19 196 -196 268 -96 b 176 144 268 119 221 144 b 97 65 133 144 97 110 z "},"<":{"ha":610,"x_min":0,"x_max":0,"o":"m 49 292 l 521 7 b 560 29 539 -4 560 7 b 560 79 560 54 560 11 b 544 106 560 88 558 97 l 182 319 l 544 542 b 560 568 556 549 560 560 b 560 618 560 638 560 593 b 521 640 560 640 539 651 l 49 346 b 35 322 42 342 35 331 l 35 315 b 49 292 35 307 42 296 z "},"=":{"ha":708,"x_min":0,"x_max":0,"o":"m 146 488 l 561 488 b 588 514 576 488 588 500 l 588 556 b 561 582 588 569 576 582 l 146 582 b 119 556 131 582 119 569 l 119 514 b 146 488 119 500 131 488 z m 146 194 l 561 194 b 588 221 576 194 588 207 l 588 264 b 561 290 588 278 576 290 l 146 290 b 119 264 131 290 119 278 l 119 221 b 146 194 119 207 131 194 z "},">":{"ha":610,"x_min":0,"x_max":0,"o":"m 50 29 b 89 7 50 7 71 -4 l 561 292 b 575 315 568 296 575 307 l 575 322 b 561 346 575 331 568 342 l 89 640 b 50 618 71 651 50 640 b 50 568 50 593 50 638 b 65 542 50 560 53 550 l 428 319 l 65 106 b 50 79 54 100 50 88 b 50 29 50 11 50 54 z "},"?":{"ha":640,"x_min":0,"x_max":0,"o":"m 279 378 l 317 378 b 346 406 331 378 346 386 l 346 463 b 565 774 346 576 565 592 b 324 986 565 901 468 986 b 69 864 149 986 69 864 b 69 828 61 853 58 838 l 96 804 b 132 806 108 793 119 793 b 324 900 160 835 211 900 b 461 778 414 900 461 843 b 253 463 461 621 253 635 l 253 404 b 279 378 253 389 265 378 z m 217 65 b 296 -14 217 22 253 -14 b 375 65 340 -14 375 22 b 296 144 375 110 340 144 b 217 65 253 144 217 110 z "},"@":{"ha":1363,"x_min":0,"x_max":0,"o":"m 60 310 b 483 -315 60 8 236 -211 b 511 -304 496 -321 506 -317 l 526 -267 b 514 -232 535 -247 535 -242 b 147 310 300 -140 147 46 b 696 908 147 681 363 908 b 1199 400 1028 908 1199 685 b 1000 64 1199 185 1107 64 b 900 233 938 64 900 99 l 900 529 b 874 556 900 543 888 556 l 860 556 b 813 496 821 556 822 535 b 653 569 813 496 764 569 b 406 279 510 569 406 464 b 649 -14 406 101 508 -14 b 824 94 733 -14 794 36 l 835 94 b 994 -14 850 36 899 -14 b 1285 400 1214 -14 1285 217 b 699 986 1285 735 1071 986 b 60 310 308 986 60 704 z m 494 278 b 658 483 494 411 565 483 b 807 406 761 483 807 406 l 807 208 b 657 78 792 144 749 78 b 494 278 571 78 494 147 z "},"A":{"ha":921,"x_min":0,"x_max":0,"o":"m 32 0 l 88 0 b 111 15 100 0 108 8 l 213 244 l 706 244 l 808 15 b 832 0 811 8 819 0 l 888 0 b 911 36 908 0 919 18 l 492 971 b 468 986 488 979 481 986 l 454 986 b 431 971 442 986 435 979 l 8 36 b 32 0 0 18 11 0 z m 251 331 l 454 786 l 465 786 b 668 331 533 635 600 482 z "},"B":{"ha":868,"x_min":0,"x_max":0,"o":"m 142 26 b 168 0 142 13 153 0 l 485 0 b 788 268 664 0 788 113 b 621 494 788 396 694 464 b 757 717 686 532 757 610 b 472 972 757 863 642 972 l 168 972 b 142 946 153 972 142 960 z m 246 536 l 246 876 l 472 876 b 639 710 579 876 639 810 b 472 536 639 613 579 536 z m 243 93 l 243 440 l 472 440 b 671 269 581 440 671 368 b 496 93 671 169 597 93 z "},"C":{"ha":982,"x_min":0,"x_max":0,"o":"m 71 485 b 572 -14 71 207 294 -14 b 910 121 696 -14 815 29 b 911 158 919 131 922 150 l 869 196 b 836 192 861 201 850 203 b 571 88 763 136 692 88 b 183 486 351 88 183 272 b 571 886 183 701 351 886 b 836 782 665 886 764 844 b 872 781 850 768 861 767 l 910 818 b 908 857 921 829 919 846 b 572 986 814 938 713 986 b 71 485 294 986 71 763 z "},"D":{"ha":1038,"x_min":0,"x_max":0,"o":"m 142 26 b 167 0 142 13 153 0 l 478 0 b 965 488 746 0 965 218 b 478 972 965 754 746 972 l 167 972 b 142 946 153 972 142 960 z m 247 96 l 247 878 l 456 878 b 849 488 683 878 849 715 b 456 96 849 258 683 96 z "},"E":{"ha":822,"x_min":0,"x_max":0,"o":"m 142 26 b 168 0 142 13 153 0 l 715 0 b 742 26 731 0 742 13 l 742 67 b 715 93 742 81 731 93 l 249 93 l 249 447 l 647 447 b 674 474 661 447 674 458 l 674 514 b 647 540 674 528 661 540 l 249 540 l 249 879 l 715 879 b 742 906 731 879 742 892 l 742 946 b 715 972 742 960 731 972 l 168 972 b 142 946 153 972 142 960 z "},"F":{"ha":790,"x_min":0,"x_max":0,"o":"m 142 26 b 168 0 142 13 153 0 l 222 0 b 249 26 236 0 249 13 l 249 406 l 647 406 b 674 432 661 406 674 418 l 674 472 b 647 499 674 486 661 499 l 249 499 l 249 879 l 715 879 b 742 906 731 879 742 892 l 742 946 b 715 972 742 960 731 972 l 168 972 b 142 946 153 972 142 960 z "},"G":{"ha":1017,"x_min":0,"x_max":0,"o":"m 71 485 b 572 -14 71 207 294 -14 b 915 78 774 -14 915 78 b 926 100 921 82 926 93 l 926 418 b 901 444 926 432 915 444 l 661 444 b 635 418 646 444 635 433 l 635 367 b 661 342 635 353 646 342 l 821 342 l 821 147 b 571 89 821 147 724 89 b 185 490 351 89 185 276 b 571 889 185 706 351 889 b 835 781 664 889 764 843 b 871 779 850 767 858 765 b 910 818 882 792 897 806 b 908 857 921 829 919 846 b 572 986 814 938 713 986 b 71 485 294 986 71 763 z "},"H":{"ha":1061,"x_min":0,"x_max":0,"o":"m 142 26 b 168 0 142 13 154 0 l 222 0 b 249 26 238 0 249 13 l 249 447 l 813 447 l 813 26 b 839 0 813 13 824 0 l 893 0 b 919 26 907 0 919 13 l 919 946 b 893 972 919 960 907 972 l 839 972 b 813 946 824 972 813 960 l 813 540 l 249 540 l 249 946 b 222 972 249 960 238 972 l 168 972 b 142 946 154 972 142 960 z "},"I":{"ha":392,"x_min":0,"x_max":0,"o":"m 142 26 b 168 0 142 13 154 0 l 224 0 b 250 26 238 0 250 13 l 250 946 b 224 972 250 960 238 972 l 168 972 b 142 946 154 972 142 960 z "},"J":{"ha":563,"x_min":0,"x_max":0,"o":"m -28 89 b 183 -14 -4 60 63 -14 b 463 290 346 -14 463 97 l 463 946 b 436 972 463 960 451 972 l 382 972 b 356 946 367 972 356 960 l 356 288 b 186 79 356 140 269 79 b 51 153 125 79 75 126 b 4 157 38 168 26 178 l -25 124 b -28 89 -33 114 -35 100 z "},"K":{"ha":858,"x_min":0,"x_max":0,"o":"m 142 33 b 175 0 142 15 156 0 l 215 0 b 249 33 233 0 249 15 l 249 475 l 694 10 b 719 0 697 6 710 0 l 790 0 b 814 43 821 0 824 33 l 354 514 l 793 924 b 776 972 815 944 801 972 l 708 972 b 682 958 700 972 688 965 l 249 546 l 249 939 b 215 972 249 957 233 972 l 175 972 b 142 939 156 972 142 957 z "},"L":{"ha":682,"x_min":0,"x_max":0,"o":"m 142 26 b 168 0 142 13 153 0 l 649 0 b 675 26 664 0 675 13 l 675 67 b 649 93 675 81 664 93 l 249 93 l 249 946 b 222 972 249 960 236 972 l 168 972 b 142 946 153 972 142 960 z "},"M":{"ha":1197,"x_min":0,"x_max":0,"o":"m 72 33 b 97 0 68 14 76 0 l 153 0 b 178 19 164 0 176 10 l 299 735 b 304 735 300 735 303 735 l 563 1 b 586 -14 565 -7 578 -14 l 611 -14 b 635 1 619 -14 632 -7 l 890 735 b 896 735 892 735 894 735 l 1019 19 b 1044 0 1022 10 1033 0 l 1100 0 b 1125 33 1121 0 1129 14 l 946 967 b 921 986 943 978 932 986 l 899 986 b 875 971 889 986 878 979 l 604 206 b 597 206 601 206 600 206 l 322 971 b 299 986 319 979 308 986 l 276 986 b 251 967 265 986 254 978 z "},"N":{"ha":1075,"x_min":0,"x_max":0,"o":"m 142 26 b 168 0 142 13 154 0 l 217 0 b 243 26 232 0 243 13 l 243 782 b 244 782 243 782 244 782 l 882 -14 l 907 -14 b 933 11 921 -14 933 -3 l 933 946 b 907 972 933 960 921 972 l 858 972 b 832 946 843 972 832 960 l 832 206 b 829 206 831 206 831 206 l 203 986 l 168 986 b 142 961 154 986 142 975 z "},"O":{"ha":1140,"x_min":0,"x_max":0,"o":"m 71 485 b 569 -14 71 207 292 -14 b 1069 485 847 -14 1069 207 b 569 986 1069 763 847 986 b 71 485 292 986 71 763 z m 168 485 b 569 889 168 706 349 889 b 972 485 790 889 972 706 b 569 83 972 264 790 83 b 168 485 349 83 168 264 z "},"P":{"ha":828,"x_min":0,"x_max":0,"o":"m 142 26 b 168 0 142 13 153 0 l 221 0 b 247 26 235 0 247 13 l 247 353 l 476 353 b 786 665 646 353 786 493 b 475 972 786 833 646 972 l 168 972 b 142 946 153 972 142 960 z m 247 456 l 247 867 l 468 867 b 679 668 582 867 679 781 b 468 456 679 549 582 456 z "},"Q":{"ha":1142,"x_min":0,"x_max":0,"o":"m 71 485 b 569 -14 71 207 292 -14 b 671 -6 601 -14 640 -11 l 822 -261 b 844 -275 828 -271 839 -275 l 914 -275 b 936 -233 936 -275 949 -253 l 774 28 b 1069 485 949 106 1069 279 b 569 986 1069 763 847 986 b 71 485 292 986 71 763 z m 168 485 b 569 889 168 706 349 889 b 972 485 790 889 972 706 b 569 83 972 264 790 83 b 168 485 349 83 168 264 z "},"R":{"ha":918,"x_min":0,"x_max":0,"o":"m 142 26 b 168 0 142 13 153 0 l 222 0 b 249 26 236 0 249 13 l 249 381 l 514 381 l 699 13 b 721 0 701 7 708 0 l 792 0 b 815 40 815 0 825 22 l 625 393 b 831 676 746 442 831 549 b 528 972 831 842 694 972 l 168 972 b 142 946 153 972 142 960 z m 251 472 l 251 871 l 521 871 b 721 675 628 871 721 781 b 521 472 721 561 628 472 z "},"S":{"ha":740,"x_min":0,"x_max":0,"o":"m 88 99 b 381 -14 106 82 217 -14 b 681 236 543 -14 681 92 b 372 544 681 397 560 468 b 185 740 256 593 185 647 b 376 893 185 799 229 893 b 558 829 461 893 549 835 b 607 842 581 817 594 822 b 624 868 613 850 618 860 b 615 915 640 894 624 911 b 378 986 615 915 514 986 b 82 739 157 986 82 833 b 326 451 82 581 174 518 b 569 232 486 385 569 328 b 383 79 569 150 496 79 b 149 185 260 79 158 176 b 100 172 129 201 114 190 b 79 146 93 164 86 154 b 88 99 63 119 76 108 z "},"T":{"ha":664,"x_min":0,"x_max":0,"o":"m 279 26 b 306 0 279 13 292 0 l 358 0 b 385 26 372 0 385 13 l 385 879 l 626 879 b 653 906 642 879 653 892 l 653 946 b 626 972 653 960 642 972 l 38 972 b 11 946 22 972 11 960 l 11 906 b 38 879 11 892 22 879 l 279 879 z "},"U":{"ha":994,"x_min":0,"x_max":0,"o":"m 129 358 b 496 -14 129 147 278 -14 b 865 358 715 -14 865 147 l 865 946 b 839 972 865 960 853 972 l 786 972 b 760 946 771 972 760 960 l 760 364 b 496 85 760 206 660 85 b 235 367 333 85 235 208 l 235 946 b 208 972 235 960 224 972 l 156 972 b 129 946 142 972 129 960 z "},"V":{"ha":922,"x_min":0,"x_max":0,"o":"m 429 1 b 453 -14 433 -7 443 -14 l 467 -14 b 490 1 478 -14 486 -7 l 913 936 b 889 972 921 954 910 972 l 833 972 b 810 957 822 972 813 964 l 464 179 l 458 179 l 113 957 b 89 972 110 964 101 972 l 33 972 b 10 936 13 972 1 954 z "},"W":{"ha":1253,"x_min":0,"x_max":0,"o":"m 314 6 b 339 -14 317 -6 328 -14 l 361 -14 b 385 1 371 -14 381 -7 l 621 753 l 628 753 l 868 1 b 892 -14 872 -7 882 -14 l 914 -14 b 939 6 925 -14 936 -6 l 1201 939 b 1176 972 1207 958 1196 972 l 1118 972 b 1093 953 1107 972 1096 963 l 904 233 l 899 233 l 663 971 b 639 986 660 979 650 986 l 614 986 b 590 971 601 986 593 979 l 358 233 l 353 233 l 160 953 b 135 972 157 963 146 972 l 76 972 b 51 939 57 972 46 958 z "},"X":{"ha":810,"x_min":0,"x_max":0,"o":"m 56 39 b 81 0 44 21 56 0 l 144 0 b 168 13 156 0 164 6 l 403 406 l 404 406 l 642 13 b 665 0 644 7 654 0 l 729 0 b 753 39 753 0 764 19 l 472 499 l 743 933 b 719 972 754 951 743 972 l 644 972 b 621 960 633 972 625 967 l 404 592 l 403 592 l 189 960 b 165 972 185 967 175 972 l 90 972 b 67 933 67 972 56 951 l 338 499 z "},"Y":{"ha":785,"x_min":0,"x_max":0,"o":"m 338 26 b 364 0 338 13 349 0 l 418 0 b 444 26 432 0 444 13 l 444 469 l 783 932 b 761 972 794 950 783 972 l 696 972 b 674 960 686 972 678 965 l 393 572 l 113 960 b 90 972 108 965 100 972 l 25 972 b 3 932 3 972 -8 950 l 338 468 z "},"Z":{"ha":742,"x_min":0,"x_max":0,"o":"m 42 26 b 68 0 42 13 54 0 l 643 0 b 669 26 658 0 669 13 l 669 71 b 643 97 669 85 658 97 l 185 97 l 185 99 l 697 928 l 697 946 b 671 972 697 960 685 972 l 108 972 b 82 946 94 972 82 960 l 82 901 b 108 875 82 888 94 875 l 546 875 l 546 871 l 42 51 z "},"[":{"ha":454,"x_min":0,"x_max":0,"o":"m 203 -329 l 203 885 l 393 885 b 419 911 407 885 419 896 l 419 946 b 393 972 419 960 407 972 l 135 972 b 108 946 121 972 108 960 l 108 -390 b 135 -417 108 -404 121 -417 l 393 -417 b 419 -390 407 -417 419 -404 l 419 -354 b 393 -329 419 -340 407 -329 z "},"\\":{"ha":458,"x_min":0,"x_max":0,"o":"m 307 18 b 332 0 310 8 322 0 l 378 0 b 403 35 396 0 408 15 l 131 954 b 106 972 128 964 117 972 l 61 972 b 36 938 42 972 31 957 z "},"]":{"ha":454,"x_min":0,"x_max":0,"o":"m 61 -329 b 35 -354 47 -329 35 -340 l 35 -390 b 61 -417 35 -404 47 -417 l 319 -417 b 346 -390 333 -417 346 -404 l 346 946 b 319 972 346 960 333 972 l 61 972 b 35 946 47 972 35 960 l 35 911 b 61 885 35 896 47 885 l 251 885 l 251 -329 z "},"^":{"ha":728,"x_min":0,"x_max":0,"o":"m 83 553 l 129 553 b 156 568 140 553 149 558 l 365 861 l 572 568 b 599 553 576 561 585 553 l 644 553 b 667 592 667 553 678 574 l 394 978 b 371 992 390 985 379 992 l 364 992 b 340 978 356 992 344 985 l 61 592 b 83 553 50 574 61 553 z "},"_":{"ha":538,"x_min":0,"x_max":0,"o":"m 35 -40 l 35 -62 b 61 -87 35 -76 46 -87 l 476 -87 b 503 -62 492 -87 503 -76 l 503 -40 b 476 -14 503 -25 492 -14 l 61 -14 b 35 -40 46 -14 35 -25 z "},"`":{"ha":419,"x_min":0,"x_max":0,"o":"m 329 776 b 361 779 349 768 356 768 l 375 810 b 367 836 381 821 375 832 l 158 953 b 122 949 150 958 129 961 l 97 899 b 106 869 92 888 94 874 z "},"a":{"ha":583,"x_min":0,"x_max":0,"o":"m 58 168 b 229 -14 58 57 132 -14 b 401 58 315 -14 372 29 l 413 21 b 436 0 417 8 421 0 l 463 0 b 489 26 476 0 489 13 l 489 335 b 313 569 489 497 454 569 b 119 533 208 569 128 538 b 104 503 107 528 99 519 l 115 468 b 142 454 119 456 128 449 b 308 485 167 464 232 485 b 399 335 388 485 400 438 b 281 353 399 335 340 353 b 58 168 138 353 58 274 z m 147 168 b 281 279 147 240 203 279 b 397 257 342 279 381 267 l 397 147 b 244 69 374 113 314 69 b 147 168 185 69 147 113 z "},"b":{"ha":669,"x_min":0,"x_max":0,"o":"m 100 26 b 126 0 100 13 113 0 l 156 0 b 179 22 168 0 176 10 l 188 60 b 358 -14 188 60 254 -14 b 611 279 500 -14 611 119 b 344 569 611 442 511 569 b 196 533 253 569 196 533 l 196 946 b 169 972 196 960 183 972 l 126 972 b 100 946 113 972 100 960 z m 197 165 l 197 443 b 332 476 197 443 256 476 b 514 278 453 476 514 389 b 349 74 514 169 450 74 b 197 165 249 74 197 165 z "},"c":{"ha":613,"x_min":0,"x_max":0,"o":"m 57 276 b 342 -14 57 110 188 -14 b 554 103 436 -14 513 36 b 544 142 563 117 558 132 l 529 153 b 488 150 514 164 504 167 b 340 78 456 119 424 78 b 157 278 236 78 157 167 b 342 475 157 389 238 475 b 469 417 396 475 442 449 b 510 411 482 406 489 392 l 536 433 b 542 472 549 443 551 460 b 343 569 492 536 426 569 b 57 276 192 569 57 440 z "},"d":{"ha":669,"x_min":0,"x_max":0,"o":"m 58 279 b 311 -14 58 119 169 -14 b 482 60 415 -14 482 60 l 490 22 b 514 0 493 10 501 0 l 543 0 b 569 26 557 0 569 13 l 569 946 b 543 972 569 960 557 972 l 500 972 b 474 946 486 972 474 960 l 474 533 b 325 569 474 533 417 569 b 58 279 158 569 58 442 z m 156 278 b 338 476 156 389 217 476 b 472 443 414 476 472 443 l 472 165 b 321 74 472 165 421 74 b 156 278 219 74 156 169 z "},"e":{"ha":635,"x_min":0,"x_max":0,"o":"m 58 278 b 331 -14 58 118 163 -14 b 535 50 426 -14 501 24 b 540 86 556 65 550 74 b 517 118 532 97 525 107 b 478 115 506 133 497 126 b 340 74 446 96 399 74 b 154 254 242 74 160 161 l 554 254 b 579 278 567 254 578 264 b 582 315 581 288 582 306 b 331 569 582 461 476 569 b 58 278 163 569 58 435 z m 156 332 b 331 485 165 418 238 485 b 486 332 415 485 482 413 z "},"f":{"ha":444,"x_min":0,"x_max":0,"o":"m 143 26 b 169 0 143 13 156 0 l 213 0 b 239 26 226 0 239 13 l 239 472 l 400 472 b 426 499 415 472 426 485 l 426 529 b 400 556 426 544 415 556 l 239 556 l 239 750 b 354 900 239 857 290 900 b 456 860 396 900 438 874 b 492 861 469 849 483 847 l 514 897 b 508 929 519 907 518 921 b 356 986 483 953 432 986 b 143 750 236 986 143 911 l 143 556 l 58 556 b 32 529 43 556 32 544 l 32 499 b 58 472 32 485 43 472 l 143 472 z "},"g":{"ha":638,"x_min":0,"x_max":0,"o":"m 43 26 b 144 -106 43 -60 108 -96 l 144 -110 b 64 -239 131 -118 64 -156 b 331 -431 64 -331 144 -431 b 618 -206 499 -431 618 -321 b 410 -28 618 -85 526 -28 l 210 -28 b 133 40 158 -28 133 6 b 194 124 133 96 194 124 b 326 89 194 124 238 89 b 560 325 469 89 560 199 b 497 481 560 435 497 481 l 572 496 b 588 519 582 497 588 510 l 588 543 b 561 569 588 558 576 569 l 326 569 b 92 325 182 569 92 454 b 136 186 92 243 136 186 b 43 26 136 186 43 132 z m 328 172 b 182 328 243 172 182 236 b 328 483 182 419 243 483 b 467 328 411 483 467 419 b 328 172 467 236 411 172 z m 163 -225 b 256 -118 163 -143 256 -118 b 410 -118 307 -118 358 -118 b 515 -208 507 -118 515 -190 b 329 -340 515 -289 421 -340 b 163 -225 235 -340 163 -292 z "},"h":{"ha":689,"x_min":0,"x_max":0,"o":"m 100 26 b 126 0 100 13 113 0 l 169 0 b 196 26 183 0 196 13 l 196 399 b 375 476 196 399 269 476 b 500 319 453 476 500 425 l 500 26 b 526 0 500 13 513 0 l 571 0 b 597 26 585 0 597 13 l 597 319 b 382 569 597 482 519 569 b 196 496 269 569 196 496 l 196 946 b 169 972 196 960 183 972 l 126 972 b 100 946 113 972 100 960 z "},"i":{"ha":293,"x_min":0,"x_max":0,"o":"m 144 813 b 211 878 182 813 211 842 b 144 944 211 915 182 944 b 79 878 108 944 79 915 b 144 813 79 842 108 813 z m 99 26 b 125 0 99 13 111 0 l 168 0 b 194 26 182 0 194 13 l 194 529 b 168 556 194 543 182 556 l 125 556 b 99 529 111 556 99 543 z "},"j":{"ha":296,"x_min":0,"x_max":0,"o":"m 147 813 b 214 878 185 813 214 842 b 147 944 214 915 185 944 b 82 878 111 944 82 915 b 147 813 82 842 111 813 z m 100 -194 b -15 -344 100 -301 49 -344 b -117 -304 -50 -344 -99 -318 b -153 -306 -131 -293 -144 -292 l -175 -342 b -169 -374 -181 -351 -179 -365 b -17 -431 -144 -397 -93 -431 b 196 -194 103 -431 196 -356 l 196 529 b 169 556 196 544 183 556 l 126 556 b 100 529 113 556 100 544 z "},"k":{"ha":622,"x_min":0,"x_max":0,"o":"m 100 26 b 126 0 100 13 113 0 l 169 0 b 196 26 183 0 196 13 l 196 279 l 478 11 b 506 0 483 7 493 0 l 582 0 b 596 35 606 0 607 25 l 289 310 l 553 521 b 540 556 563 529 564 556 l 465 556 b 432 539 454 556 443 549 l 196 344 l 196 946 b 169 972 196 960 183 972 l 126 972 b 100 946 113 972 100 960 z "},"l":{"ha":296,"x_min":0,"x_max":0,"o":"m 100 26 b 126 0 100 13 113 0 l 169 0 b 196 26 183 0 196 13 l 196 946 b 169 972 196 960 183 972 l 126 972 b 100 946 113 972 100 960 z "},"m":{"ha":1058,"x_min":0,"x_max":0,"o":"m 99 26 b 125 0 99 13 111 0 l 168 0 b 194 26 182 0 194 13 l 194 397 b 353 476 194 397 254 476 b 485 319 438 476 485 425 l 485 26 b 511 0 485 13 497 0 l 556 0 b 582 26 569 0 582 13 l 582 319 b 575 399 582 349 579 375 b 744 476 594 417 654 476 b 869 319 825 476 869 424 l 869 26 b 896 0 869 13 882 0 l 940 0 b 967 26 954 0 967 13 l 967 319 b 751 569 967 464 913 569 b 544 479 640 569 551 485 b 367 569 508 538 449 569 b 186 496 251 569 186 496 l 174 539 b 151 556 171 550 164 556 l 125 556 b 99 529 111 556 99 543 z "},"n":{"ha":688,"x_min":0,"x_max":0,"o":"m 99 26 b 125 0 99 13 111 0 l 168 0 b 194 26 182 0 194 13 l 194 397 b 374 476 194 397 269 476 b 499 319 451 476 499 425 l 499 26 b 525 0 499 13 511 0 l 569 0 b 596 26 583 0 596 13 l 596 319 b 381 569 596 464 542 569 b 186 496 265 569 186 496 l 174 539 b 151 556 171 550 164 556 l 125 556 b 99 529 111 556 99 543 z "},"o":{"ha":669,"x_min":0,"x_max":0,"o":"m 58 279 b 335 -14 58 119 181 -14 b 611 279 489 -14 611 119 b 335 569 611 436 489 569 b 58 279 181 569 58 436 z m 154 279 b 335 478 154 389 233 478 b 515 279 436 478 515 389 b 335 76 515 167 436 76 b 154 279 233 76 154 167 z "},"p":{"ha":669,"x_min":0,"x_max":0,"o":"m 196 32 b 344 -14 196 32 253 -14 b 611 276 497 -14 611 114 b 349 569 611 436 500 569 b 188 511 249 569 188 511 l 178 538 b 156 556 172 551 168 556 l 126 556 b 100 529 113 556 100 543 l 100 -390 b 126 -417 100 -404 113 -417 l 169 -417 b 196 -390 183 -417 196 -404 z m 197 128 l 197 414 b 339 482 197 414 249 482 b 514 278 450 482 514 386 b 332 79 514 167 439 79 b 197 128 256 79 197 128 z "},"q":{"ha":669,"x_min":0,"x_max":0,"o":"m 58 276 b 325 -14 58 114 172 -14 b 474 35 417 -14 474 35 l 474 -390 b 500 -417 474 -404 486 -417 l 543 -417 b 569 -390 557 -417 569 -404 l 569 529 b 543 556 569 543 557 556 l 518 556 b 492 536 503 556 496 547 l 482 511 b 321 569 482 511 421 569 b 58 276 169 569 58 436 z m 156 278 b 331 482 156 386 219 482 b 472 414 421 482 472 414 l 472 125 b 338 79 472 125 414 79 b 156 278 231 79 156 167 z "},"r":{"ha":464,"x_min":0,"x_max":0,"o":"m 99 26 b 125 0 99 13 111 0 l 168 0 b 194 26 182 0 194 13 l 194 397 b 346 475 194 397 240 475 b 400 464 367 475 388 469 b 433 476 414 458 426 458 l 450 524 b 353 569 464 563 394 569 b 186 496 238 569 186 496 l 175 536 b 151 556 172 549 163 556 l 125 556 b 99 529 111 556 99 543 z "},"s":{"ha":494,"x_min":0,"x_max":0,"o":"m 72 49 b 253 -14 103 25 160 -14 b 444 143 367 -14 444 63 b 263 332 444 243 358 286 b 160 426 206 360 160 381 b 239 482 160 450 176 482 b 350 449 290 482 350 449 b 390 461 363 442 382 446 l 401 483 b 393 526 410 499 406 518 b 239 569 367 544 311 569 b 63 425 110 569 63 483 b 221 246 63 331 147 282 b 343 135 301 206 343 183 b 253 68 343 97 310 68 b 122 117 182 68 122 117 b 85 113 107 126 92 124 b 65 78 81 106 71 86 b 72 49 61 68 65 54 z "},"t":{"ha":475,"x_min":0,"x_max":0,"o":"m 135 139 b 263 -14 135 53 151 -14 b 422 33 328 -14 403 21 b 432 68 438 43 442 51 l 411 103 b 378 111 404 114 399 122 b 276 81 360 101 311 81 b 231 147 244 81 231 92 l 231 472 l 392 472 b 418 499 407 472 418 485 l 418 529 b 392 556 418 544 407 556 l 231 556 l 231 713 b 206 739 231 726 219 739 l 161 736 b 135 710 147 736 135 724 l 135 556 l 64 556 b 38 529 49 556 38 544 l 38 499 b 64 472 38 485 49 472 l 135 472 z "},"u":{"ha":674,"x_min":0,"x_max":0,"o":"m 92 238 b 307 -14 92 90 146 -14 b 488 60 422 -14 488 60 l 497 24 b 522 0 501 10 507 0 l 549 0 b 575 26 563 0 575 13 l 575 529 b 549 556 575 543 563 556 l 506 556 b 479 529 492 556 479 543 b 479 158 479 221 479 189 b 314 79 479 158 419 79 b 189 236 236 79 189 131 l 189 529 b 163 556 189 543 176 556 l 118 556 b 92 529 104 556 92 543 z "},"v":{"ha":571,"x_min":0,"x_max":0,"o":"m 257 0 b 281 -14 260 -7 268 -14 l 288 -14 b 311 0 300 -14 308 -7 l 549 524 b 528 556 557 542 549 556 l 492 556 b 468 540 481 556 472 549 l 285 143 l 283 143 l 111 540 b 86 556 107 549 99 556 l 43 556 b 22 524 22 556 14 542 z "},"w":{"ha":839,"x_min":0,"x_max":0,"o":"m 200 0 b 224 -14 203 -8 211 -14 l 231 -14 b 254 0 243 -14 251 -7 l 418 417 l 588 0 b 611 -14 590 -7 599 -14 l 618 -14 b 642 0 629 -14 639 -8 l 793 524 b 772 556 799 543 793 556 l 729 556 b 706 540 718 556 708 549 l 606 172 l 604 172 l 449 556 b 425 569 446 563 438 569 l 418 569 b 394 556 406 569 397 563 l 238 174 l 236 174 l 135 540 b 110 556 132 549 122 556 l 67 556 b 46 524 46 556 40 543 z "},"x":{"ha":579,"x_min":0,"x_max":0,"o":"m 51 36 b 69 0 39 18 46 0 l 121 0 b 143 11 131 0 139 6 l 288 217 l 289 217 l 436 13 b 457 0 440 7 449 0 l 508 0 b 526 36 531 0 539 18 l 349 285 l 525 519 b 507 556 539 538 531 556 l 449 556 b 426 544 439 556 431 550 l 289 356 l 288 356 l 156 544 b 133 556 151 550 143 556 l 75 556 b 57 519 51 556 43 538 l 233 283 z "},"y":{"ha":647,"x_min":0,"x_max":0,"o":"m 278 1 l 100 -382 b 122 -417 90 -401 101 -417 l 174 -417 b 197 -400 183 -417 193 -408 l 624 524 b 603 556 633 542 624 556 l 550 556 b 526 540 540 556 531 549 l 332 115 l 331 115 l 125 540 b 101 556 121 549 113 556 l 40 556 b 19 525 19 556 11 543 z "},"z":{"ha":507,"x_min":0,"x_max":0,"o":"m 50 26 b 76 0 50 13 63 0 l 410 0 b 436 26 425 0 436 13 l 436 61 b 410 88 436 76 425 88 l 196 88 l 196 92 l 461 518 b 438 556 472 536 458 556 l 89 556 b 64 529 75 556 64 544 l 64 494 b 89 468 64 481 75 468 l 322 468 l 322 464 l 50 40 z "},"{":{"ha":554,"x_min":0,"x_max":0,"o":"m 151 -99 b 492 -431 151 -351 349 -431 b 519 -407 506 -431 519 -421 l 519 -379 b 501 -356 519 -364 513 -357 b 247 -99 369 -336 247 -249 l 247 86 b 138 272 247 225 178 256 l 138 282 b 247 468 178 299 247 329 l 247 653 b 501 911 247 803 369 892 b 519 936 513 913 519 924 l 519 963 b 492 986 519 979 506 986 b 151 653 349 986 151 906 l 151 429 b 56 321 151 367 89 326 b 35 300 44 319 35 311 l 35 257 b 56 233 35 246 44 235 b 151 125 89 228 151 188 z "},"|":{"ha":275,"x_min":0,"x_max":0,"o":"m 107 -392 b 133 -417 107 -406 119 -417 l 142 -417 b 168 -392 156 -417 168 -406 l 168 1029 b 143 1056 168 1044 157 1056 l 133 1056 b 107 1029 119 1056 107 1044 z "},"}":{"ha":554,"x_min":0,"x_max":0,"o":"m 307 86 l 307 -99 b 53 -356 307 -249 185 -336 b 35 -379 42 -357 35 -364 l 35 -407 b 63 -431 35 -421 49 -431 b 403 -99 206 -431 403 -351 l 403 125 b 499 233 403 188 465 228 b 519 257 510 235 519 246 l 519 300 b 499 321 519 311 510 319 b 403 429 465 326 403 367 l 403 653 b 63 986 403 906 206 986 b 35 963 49 986 35 979 l 35 936 b 53 911 35 924 42 913 b 307 653 185 892 307 803 l 307 468 b 417 282 307 329 376 299 l 417 272 b 307 86 376 256 307 225 z "},"~":{"ha":772,"x_min":0,"x_max":0,"o":"m 110 317 b 147 322 122 306 138 308 b 264 414 165 349 201 414 b 369 364 307 414 343 382 b 514 304 406 339 453 304 b 701 432 626 304 701 432 b 699 465 710 442 708 457 l 669 489 b 632 483 657 500 642 497 b 514 392 614 457 578 392 b 413 439 478 392 432 425 b 263 501 374 467 326 501 b 78 374 153 501 78 374 b 81 340 69 364 71 349 b 110 317 90 332 100 325 z "}," ":{"ha":308,"x_min":0,"x_max":0,"o":""},"À":{"ha":921,"x_min":0,"x_max":0,"o":"m 32 0 l 88 0 b 111 15 100 0 108 8 l 213 244 l 706 244 l 808 15 b 832 0 811 8 819 0 l 888 0 b 911 36 908 0 919 18 l 492 971 b 468 986 488 979 481 986 l 454 986 b 431 971 442 986 435 979 l 8 36 b 32 0 0 18 11 0 z m 251 331 l 454 786 l 465 786 b 668 331 533 635 600 482 z m 554 1085 b 586 1088 574 1076 581 1076 l 600 1118 b 592 1144 606 1129 600 1140 l 383 1261 b 347 1257 375 1267 354 1269 l 322 1207 b 331 1178 317 1196 319 1182 z "},"Á":{"ha":921,"x_min":0,"x_max":0,"o":"m 32 0 l 88 0 b 111 15 100 0 108 8 l 213 244 l 706 244 l 808 15 b 832 0 811 8 819 0 l 888 0 b 911 36 908 0 919 18 l 492 971 b 468 986 488 979 481 986 l 454 986 b 431 971 442 986 435 979 l 8 36 b 32 0 0 18 11 0 z m 251 331 l 454 786 l 465 786 b 668 331 533 635 600 482 z m 335 1088 b 367 1085 340 1076 347 1076 l 590 1178 b 599 1207 601 1182 604 1196 l 574 1257 b 538 1261 567 1269 546 1267 l 329 1144 b 321 1118 321 1140 315 1129 z "},"Â":{"ha":921,"x_min":0,"x_max":0,"o":"m 32 0 l 88 0 b 111 15 100 0 108 8 l 213 244 l 706 244 l 808 15 b 832 0 811 8 819 0 l 888 0 b 911 36 908 0 919 18 l 492 971 b 468 986 488 979 481 986 l 454 986 b 431 971 442 986 435 979 l 8 36 b 32 0 0 18 11 0 z m 251 331 l 454 786 l 465 786 b 668 331 533 635 600 482 z m 288 1076 b 319 1074 294 1067 303 1063 l 461 1168 l 603 1071 b 654 1101 631 1051 642 1085 b 646 1128 661 1111 654 1122 l 479 1258 b 461 1264 474 1263 469 1264 b 443 1258 456 1264 449 1263 l 276 1128 b 268 1101 268 1122 261 1111 z "},"Ã":{"ha":921,"x_min":0,"x_max":0,"o":"m 32 0 l 88 0 b 111 15 100 0 108 8 l 213 244 l 706 244 l 808 15 b 832 0 811 8 819 0 l 888 0 b 911 36 908 0 919 18 l 492 971 b 468 986 488 979 481 986 l 454 986 b 431 971 442 986 435 979 l 8 36 b 32 0 0 18 11 0 z m 251 331 l 454 786 l 465 786 b 668 331 533 635 600 482 z m 288 1104 b 322 1118 306 1094 318 1104 b 383 1188 332 1147 346 1188 b 536 1083 422 1188 460 1083 b 660 1196 613 1083 646 1156 b 654 1232 663 1206 671 1224 l 632 1243 b 600 1232 617 1250 604 1246 b 538 1161 593 1208 576 1161 b 385 1264 494 1161 468 1264 b 257 1147 293 1264 269 1172 b 263 1117 253 1138 251 1122 z "},"Ä":{"ha":921,"x_min":0,"x_max":0,"o":"m 32 0 l 88 0 b 111 15 100 0 108 8 l 213 244 l 706 244 l 808 15 b 832 0 811 8 819 0 l 888 0 b 911 36 908 0 919 18 l 492 971 b 468 986 488 979 481 986 l 454 986 b 431 971 442 986 435 979 l 8 36 b 32 0 0 18 11 0 z m 251 331 l 454 786 l 465 786 b 668 331 533 635 600 482 z m 606 1100 b 672 1165 643 1100 672 1129 b 606 1232 672 1203 643 1232 b 540 1165 569 1232 540 1203 b 606 1100 540 1129 569 1100 z m 313 1100 b 379 1165 350 1100 379 1129 b 313 1232 379 1203 350 1232 b 247 1165 276 1232 247 1203 b 313 1100 247 1129 276 1100 z "},"Ā":{"ha":921,"x_min":0,"x_max":0,"o":"m 32 0 l 88 0 b 111 15 100 0 108 8 l 213 244 l 706 244 l 808 15 b 832 0 811 8 819 0 l 888 0 b 911 36 908 0 919 18 l 492 971 b 468 986 488 979 481 986 l 454 986 b 431 971 442 986 435 979 l 8 36 b 32 0 0 18 11 0 z m 251 331 l 454 786 l 465 786 b 668 331 533 635 600 482 z m 282 1140 l 638 1140 b 664 1165 653 1140 664 1151 l 664 1194 b 638 1221 664 1210 653 1221 l 282 1221 b 256 1194 267 1221 256 1210 l 256 1165 b 282 1140 256 1151 267 1140 z "},"Ă":{"ha":921,"x_min":0,"x_max":0,"o":"m 32 0 l 88 0 b 111 15 100 0 108 8 l 213 244 l 706 244 l 808 15 b 832 0 811 8 819 0 l 888 0 b 911 36 908 0 919 18 l 492 971 b 468 986 488 979 481 986 l 454 986 b 431 971 442 986 435 979 l 8 36 b 32 0 0 18 11 0 z m 251 331 l 454 786 l 465 786 b 668 331 533 635 600 482 z m 460 1071 b 647 1229 556 1071 632 1139 b 628 1257 650 1244 643 1257 l 596 1257 b 569 1233 583 1257 575 1249 b 460 1144 554 1185 511 1144 b 347 1233 404 1144 363 1181 b 321 1257 343 1246 336 1257 l 292 1257 b 272 1229 275 1257 269 1244 b 460 1071 285 1139 363 1071 z "},"Å":{"ha":921,"x_min":0,"x_max":0,"o":"m 32 0 l 88 0 b 111 15 100 0 108 8 l 213 244 l 706 244 l 808 15 b 832 0 811 8 819 0 l 888 0 b 911 36 908 0 919 18 l 492 971 b 468 986 488 979 481 986 l 454 986 b 431 971 442 986 435 979 l 8 36 b 32 0 0 18 11 0 z m 251 331 l 454 786 l 465 786 b 668 331 533 635 600 482 z m 460 1053 b 611 1204 543 1053 611 1119 b 460 1356 611 1289 543 1356 b 308 1204 375 1356 308 1289 b 460 1053 308 1119 375 1053 z m 460 1119 b 375 1204 415 1119 375 1160 b 460 1286 375 1249 415 1286 b 542 1204 504 1286 542 1249 b 460 1119 542 1160 504 1119 z "},"Ǻ":{"ha":921,"x_min":0,"x_max":0,"o":"m 335 1254 b 367 1251 340 1243 347 1243 l 590 1344 b 599 1374 601 1349 604 1363 l 574 1424 b 538 1428 567 1436 546 1433 l 329 1311 b 321 1285 321 1307 315 1296 z m 32 0 l 88 0 b 111 15 100 0 108 8 l 213 244 l 706 244 l 808 15 b 832 0 811 8 819 0 l 888 0 b 911 36 908 0 919 18 l 510 931 b 611 1074 568 950 611 1007 b 460 1225 611 1158 543 1225 b 308 1074 375 1225 308 1158 b 411 929 308 1006 351 949 l 8 36 b 32 0 0 18 11 0 z m 460 989 b 375 1074 415 989 375 1029 b 460 1156 375 1118 415 1156 b 542 1074 504 1156 542 1118 b 460 989 542 1029 504 989 z m 251 331 l 454 786 l 465 786 l 668 331 z "},"Ą":{"ha":921,"x_min":0,"x_max":0,"o":"m 32 0 l 88 0 b 111 15 100 0 108 8 l 213 244 l 706 244 l 810 11 b 721 -151 790 -4 721 -61 b 868 -293 721 -249 790 -293 b 965 -272 914 -293 951 -279 b 985 -249 975 -267 985 -261 l 985 -214 b 960 -194 985 -196 971 -189 b 883 -217 942 -204 918 -217 b 804 -137 842 -217 804 -183 b 869 0 804 -71 846 -22 l 888 0 b 911 36 908 0 919 18 l 492 971 b 468 986 488 979 481 986 l 454 986 b 431 971 442 986 435 979 l 8 36 b 32 0 0 18 11 0 z m 251 331 l 454 786 l 465 786 l 668 331 z "},"Æ":{"ha":1246,"x_min":0,"x_max":0,"o":"m 8 0 l 65 0 b 92 15 75 0 86 8 l 236 244 l 565 244 l 565 26 b 592 0 565 13 576 0 l 1139 0 b 1165 26 1154 0 1165 13 l 1165 67 b 1139 93 1165 81 1154 93 l 664 93 l 664 447 l 1071 447 b 1097 474 1085 447 1097 458 l 1097 514 b 1071 540 1097 528 1085 540 l 664 540 l 664 879 l 1139 879 b 1165 906 1154 879 1165 892 l 1165 946 b 1139 972 1165 960 1154 972 l 610 972 b 549 929 574 972 567 957 l -8 36 b 8 0 -19 18 -12 0 z m 286 331 l 565 786 l 565 331 z "},"Ǽ":{"ha":1246,"x_min":0,"x_max":0,"o":"m 8 0 l 65 0 b 92 15 75 0 86 8 l 236 244 l 565 244 l 565 26 b 592 0 565 13 576 0 l 1139 0 b 1165 26 1154 0 1165 13 l 1165 67 b 1139 93 1165 81 1154 93 l 664 93 l 664 447 l 1071 447 b 1097 474 1085 447 1097 458 l 1097 514 b 1071 540 1097 528 1085 540 l 664 540 l 664 879 l 1139 879 b 1165 906 1154 879 1165 892 l 1165 946 b 1139 972 1165 960 1154 972 l 610 972 b 549 929 574 972 567 957 l -8 36 b 8 0 -19 18 -12 0 z m 286 331 l 565 786 l 565 331 z m 729 1089 b 761 1086 735 1078 742 1078 l 985 1179 b 993 1208 996 1183 999 1197 l 968 1258 b 932 1263 961 1271 940 1268 l 724 1146 b 715 1119 715 1142 710 1131 z "},"Ć":{"ha":982,"x_min":0,"x_max":0,"o":"m 71 485 b 572 -14 71 207 294 -14 b 910 121 696 -14 815 29 b 911 158 919 131 922 150 l 869 196 b 836 192 861 201 850 203 b 571 88 763 136 692 88 b 183 486 351 88 183 272 b 571 886 183 701 351 886 b 836 782 665 886 764 844 b 872 781 850 768 861 767 l 910 818 b 908 857 921 829 919 846 b 572 986 814 938 713 986 b 71 485 294 986 71 763 z m 460 1088 b 492 1085 465 1076 472 1076 l 715 1178 b 724 1207 726 1182 729 1196 l 699 1257 b 663 1261 692 1269 671 1267 l 454 1144 b 446 1118 446 1140 440 1129 z "},"Ĉ":{"ha":982,"x_min":0,"x_max":0,"o":"m 71 485 b 572 -14 71 207 294 -14 b 910 121 696 -14 815 29 b 911 158 919 131 922 150 l 869 196 b 836 192 861 201 850 203 b 571 88 763 136 692 88 b 183 486 351 88 183 272 b 571 886 183 701 351 886 b 836 782 665 886 764 844 b 872 781 850 768 861 767 l 910 818 b 908 857 921 829 919 846 b 572 986 814 938 713 986 b 71 485 294 986 71 763 z m 397 1076 b 429 1074 404 1067 413 1063 l 571 1168 l 713 1071 b 764 1101 740 1051 751 1085 b 756 1128 771 1111 764 1122 l 589 1258 b 571 1264 583 1263 579 1264 b 553 1258 565 1264 558 1263 l 386 1128 b 378 1101 378 1122 371 1111 z "},"Č":{"ha":982,"x_min":0,"x_max":0,"o":"m 71 485 b 572 -14 71 207 294 -14 b 910 121 696 -14 815 29 b 911 158 919 131 922 150 l 869 196 b 836 192 861 201 850 203 b 571 88 763 136 692 88 b 183 486 351 88 183 272 b 571 886 183 701 351 886 b 836 782 665 886 764 844 b 872 781 850 768 861 767 l 910 818 b 908 857 921 829 919 846 b 572 986 814 938 713 986 b 71 485 294 986 71 763 z m 571 1067 b 589 1072 579 1067 583 1068 l 738 1189 b 764 1229 749 1197 776 1213 l 744 1257 b 713 1260 738 1267 729 1271 l 571 1163 l 429 1257 b 397 1254 413 1268 404 1264 l 378 1229 b 386 1203 371 1219 378 1208 l 553 1072 b 571 1067 558 1068 565 1067 z "},"Ċ":{"ha":982,"x_min":0,"x_max":0,"o":"m 71 485 b 572 -14 71 207 294 -14 b 910 121 696 -14 815 29 b 911 158 919 131 922 150 l 869 196 b 836 192 861 201 850 203 b 571 88 763 136 692 88 b 183 486 351 88 183 272 b 571 886 183 701 351 886 b 836 782 665 886 764 844 b 872 781 850 768 861 767 l 910 818 b 908 857 921 829 919 846 b 572 986 814 938 713 986 b 71 485 294 986 71 763 z m 571 1106 b 650 1185 615 1106 650 1142 b 571 1264 650 1229 615 1264 b 492 1185 528 1264 492 1229 b 571 1106 492 1142 528 1106 z "},"Ç":{"ha":985,"x_min":0,"x_max":0,"o":"m 72 485 b 499 -8 72 232 257 26 l 499 -106 b 522 -133 499 -112 501 -129 b 638 -221 569 -142 638 -157 b 576 -286 638 -258 614 -286 b 519 -261 560 -286 536 -279 b 488 -261 513 -253 497 -254 l 468 -276 b 468 -312 458 -283 457 -300 b 574 -361 492 -340 532 -361 b 719 -217 656 -361 719 -297 b 574 -74 719 -136 658 -85 l 574 -14 b 911 121 697 -14 817 29 b 913 158 921 131 924 150 l 871 196 b 838 192 863 201 851 203 b 572 88 764 136 693 88 b 185 486 353 88 185 272 b 572 886 185 701 353 886 b 838 782 667 886 765 844 b 874 781 851 768 863 767 l 911 818 b 910 857 922 829 921 846 b 574 986 815 938 714 986 b 72 485 296 986 72 763 z "},"Ď":{"ha":1038,"x_min":0,"x_max":0,"o":"m 142 26 b 167 0 142 13 153 0 l 478 0 b 965 488 746 0 965 218 b 478 972 965 754 746 972 l 167 972 b 142 946 153 972 142 960 z m 247 96 l 247 878 l 456 878 b 849 488 683 878 849 715 b 456 96 849 258 683 96 z m 474 1067 b 492 1072 482 1067 486 1068 l 640 1189 b 667 1229 651 1197 679 1213 l 647 1257 b 615 1260 640 1267 632 1271 l 474 1163 l 332 1257 b 300 1254 315 1268 307 1264 l 281 1229 b 289 1203 274 1219 281 1208 l 456 1072 b 474 1067 461 1068 468 1067 z "},"Đ":{"ha":1043,"x_min":0,"x_max":0,"o":"m 147 26 b 172 0 147 13 158 0 l 483 0 b 971 488 751 0 971 218 b 483 972 971 754 751 972 l 172 972 b 147 946 158 972 147 960 l 147 513 l 107 513 b 82 486 93 513 82 500 l 82 476 b 107 450 82 463 93 450 l 147 450 z m 253 96 l 253 450 l 546 450 b 572 475 561 450 572 461 l 572 486 b 546 513 572 500 561 513 l 253 513 l 253 878 l 461 878 b 854 488 689 878 854 715 b 461 96 854 258 689 96 z "},"Ð":{"ha":1043,"x_min":0,"x_max":0,"o":"m 147 26 b 172 0 147 13 158 0 l 483 0 b 971 488 751 0 971 218 b 483 972 971 754 751 972 l 172 972 b 147 946 158 972 147 960 l 147 513 l 107 513 b 82 486 93 513 82 500 l 82 476 b 107 450 82 463 93 450 l 147 450 z m 253 96 l 253 450 l 546 450 b 572 475 561 450 572 461 l 572 486 b 546 513 572 500 561 513 l 253 513 l 253 878 l 461 878 b 854 488 689 878 854 715 b 461 96 854 258 689 96 z "},"È":{"ha":822,"x_min":0,"x_max":0,"o":"m 142 26 b 168 0 142 13 153 0 l 715 0 b 742 26 731 0 742 13 l 742 67 b 715 93 742 81 731 93 l 249 93 l 249 447 l 647 447 b 674 474 661 447 674 458 l 674 514 b 647 540 674 528 661 540 l 249 540 l 249 879 l 715 879 b 742 906 731 879 742 892 l 742 946 b 715 972 742 960 731 972 l 168 972 b 142 946 153 972 142 960 z m 547 1085 b 579 1088 567 1076 574 1076 l 593 1118 b 585 1144 599 1129 593 1140 l 376 1261 b 340 1257 368 1267 347 1269 l 315 1207 b 324 1178 310 1196 313 1182 z "},"É":{"ha":822,"x_min":0,"x_max":0,"o":"m 142 26 b 168 0 142 13 153 0 l 715 0 b 742 26 731 0 742 13 l 742 67 b 715 93 742 81 731 93 l 249 93 l 249 447 l 647 447 b 674 474 661 447 674 458 l 674 514 b 647 540 674 528 661 540 l 249 540 l 249 879 l 715 879 b 742 906 731 879 742 892 l 742 946 b 715 972 742 960 731 972 l 168 972 b 142 946 153 972 142 960 z m 329 1088 b 361 1085 335 1076 342 1076 l 585 1178 b 593 1207 596 1182 599 1196 l 568 1257 b 532 1261 561 1269 540 1267 l 324 1144 b 315 1118 315 1140 310 1129 z "},"Ê":{"ha":822,"x_min":0,"x_max":0,"o":"m 142 26 b 168 0 142 13 153 0 l 715 0 b 742 26 731 0 742 13 l 742 67 b 715 93 742 81 731 93 l 249 93 l 249 447 l 647 447 b 674 474 661 447 674 458 l 674 514 b 647 540 674 528 661 540 l 249 540 l 249 879 l 715 879 b 742 906 731 879 742 892 l 742 946 b 715 972 742 960 731 972 l 168 972 b 142 946 153 972 142 960 z m 267 1076 b 299 1074 274 1067 282 1063 l 440 1168 l 582 1071 b 633 1101 610 1051 621 1085 b 625 1128 640 1111 633 1122 l 458 1258 b 440 1264 453 1263 449 1264 b 422 1258 435 1264 428 1263 l 256 1128 b 247 1101 247 1122 240 1111 z "},"Ě":{"ha":822,"x_min":0,"x_max":0,"o":"m 142 26 b 168 0 142 13 153 0 l 715 0 b 742 26 731 0 742 13 l 742 67 b 715 93 742 81 731 93 l 249 93 l 249 447 l 647 447 b 674 474 661 447 674 458 l 674 514 b 647 540 674 528 661 540 l 249 540 l 249 879 l 715 879 b 742 906 731 879 742 892 l 742 946 b 715 972 742 960 731 972 l 168 972 b 142 946 153 972 142 960 z m 440 1067 b 458 1072 449 1067 453 1068 l 607 1189 b 633 1229 618 1197 646 1213 l 614 1257 b 582 1260 607 1267 599 1271 l 440 1163 l 299 1257 b 267 1254 282 1268 274 1264 l 247 1229 b 256 1203 240 1219 247 1208 l 422 1072 b 440 1067 428 1068 435 1067 z "},"Ë":{"ha":822,"x_min":0,"x_max":0,"o":"m 142 26 b 168 0 142 13 153 0 l 715 0 b 742 26 731 0 742 13 l 742 67 b 715 93 742 81 731 93 l 249 93 l 249 447 l 647 447 b 674 474 661 447 674 458 l 674 514 b 647 540 674 528 661 540 l 249 540 l 249 879 l 715 879 b 742 906 731 879 742 892 l 742 946 b 715 972 742 960 731 972 l 168 972 b 142 946 153 972 142 960 z m 588 1100 b 654 1165 625 1100 654 1129 b 588 1232 654 1203 625 1232 b 522 1165 551 1232 522 1203 b 588 1100 522 1129 551 1100 z m 294 1100 b 361 1165 332 1100 361 1129 b 294 1232 361 1203 332 1232 b 229 1165 258 1232 229 1203 b 294 1100 229 1129 258 1100 z "},"Ē":{"ha":822,"x_min":0,"x_max":0,"o":"m 142 26 b 168 0 142 13 153 0 l 715 0 b 742 26 731 0 742 13 l 742 67 b 715 93 742 81 731 93 l 249 93 l 249 447 l 647 447 b 674 474 661 447 674 458 l 674 514 b 647 540 674 528 661 540 l 249 540 l 249 879 l 715 879 b 742 906 731 879 742 892 l 742 946 b 715 972 742 960 731 972 l 168 972 b 142 946 153 972 142 960 z m 264 1140 l 619 1140 b 646 1165 635 1140 646 1151 l 646 1194 b 619 1221 646 1210 635 1221 l 264 1221 b 238 1194 249 1221 238 1210 l 238 1165 b 264 1140 238 1151 249 1140 z "},"Ĕ":{"ha":822,"x_min":0,"x_max":0,"o":"m 142 26 b 168 0 142 13 153 0 l 715 0 b 742 26 731 0 742 13 l 742 67 b 715 93 742 81 731 93 l 249 93 l 249 447 l 647 447 b 674 474 661 447 674 458 l 674 514 b 647 540 674 528 661 540 l 249 540 l 249 879 l 715 879 b 742 906 731 879 742 892 l 742 946 b 715 972 742 960 731 972 l 168 972 b 142 946 153 972 142 960 z m 442 1071 b 629 1229 538 1071 614 1139 b 610 1257 632 1244 625 1257 l 578 1257 b 551 1233 565 1257 557 1249 b 442 1144 536 1185 493 1144 b 329 1233 386 1144 344 1181 b 303 1257 325 1246 318 1257 l 274 1257 b 254 1229 257 1257 251 1244 b 442 1071 267 1139 344 1071 z "},"Ė":{"ha":822,"x_min":0,"x_max":0,"o":"m 142 26 b 168 0 142 13 153 0 l 715 0 b 742 26 731 0 742 13 l 742 67 b 715 93 742 81 731 93 l 249 93 l 249 447 l 647 447 b 674 474 661 447 674 458 l 674 514 b 647 540 674 528 661 540 l 249 540 l 249 879 l 715 879 b 742 906 731 879 742 892 l 742 946 b 715 972 742 960 731 972 l 168 972 b 142 946 153 972 142 960 z m 444 1106 b 524 1185 489 1106 524 1142 b 444 1264 524 1229 489 1264 b 365 1185 401 1264 365 1229 b 444 1106 365 1142 401 1106 z "},"Ę":{"ha":822,"x_min":0,"x_max":0,"o":"m 142 26 b 168 0 142 13 153 0 l 646 0 b 571 -151 618 -24 571 -76 b 718 -293 571 -249 640 -293 b 815 -272 764 -293 801 -279 b 835 -249 825 -267 835 -261 l 835 -214 b 810 -194 835 -196 821 -189 b 733 -217 792 -204 768 -217 b 654 -137 692 -217 654 -183 b 721 0 654 -71 697 -21 b 742 32 731 8 742 14 l 742 67 b 715 93 742 81 731 93 l 249 93 l 249 447 l 647 447 b 674 474 661 447 674 458 l 674 514 b 647 540 674 528 661 540 l 249 540 l 249 879 l 715 879 b 742 906 731 879 742 892 l 742 946 b 715 972 742 960 731 972 l 168 972 b 142 946 153 972 142 960 z "},"Ĝ":{"ha":1017,"x_min":0,"x_max":0,"o":"m 71 485 b 572 -14 71 207 294 -14 b 915 78 774 -14 915 78 b 926 100 921 82 926 93 l 926 418 b 901 444 926 432 915 444 l 661 444 b 635 418 646 444 635 433 l 635 367 b 661 342 635 353 646 342 l 821 342 l 821 147 b 571 89 821 147 724 89 b 185 490 351 89 185 276 b 571 889 185 706 351 889 b 835 781 664 889 764 843 b 871 779 850 767 858 765 b 910 818 882 792 897 806 b 908 857 921 829 919 846 b 572 986 814 938 713 986 b 71 485 294 986 71 763 z m 397 1076 b 429 1074 404 1067 413 1063 l 571 1168 l 713 1071 b 764 1101 740 1051 751 1085 b 756 1128 771 1111 764 1122 l 589 1258 b 571 1264 583 1263 579 1264 b 553 1258 565 1264 558 1263 l 386 1128 b 378 1101 378 1122 371 1111 z "},"Ğ":{"ha":1017,"x_min":0,"x_max":0,"o":"m 71 485 b 572 -14 71 207 294 -14 b 915 78 774 -14 915 78 b 926 100 921 82 926 93 l 926 418 b 901 444 926 432 915 444 l 661 444 b 635 418 646 444 635 433 l 635 367 b 661 342 635 353 646 342 l 821 342 l 821 147 b 571 89 821 147 724 89 b 185 490 351 89 185 276 b 571 889 185 706 351 889 b 835 781 664 889 764 843 b 871 779 850 767 858 765 b 910 818 882 792 897 806 b 908 857 921 829 919 846 b 572 986 814 938 713 986 b 71 485 294 986 71 763 z m 572 1071 b 760 1229 668 1071 744 1139 b 740 1257 763 1244 756 1257 l 708 1257 b 682 1233 696 1257 688 1249 b 572 1144 667 1185 624 1144 b 460 1233 517 1144 475 1181 b 433 1257 456 1246 449 1257 l 404 1257 b 385 1229 388 1257 382 1244 b 572 1071 397 1139 475 1071 z "},"Ġ":{"ha":1017,"x_min":0,"x_max":0,"o":"m 71 485 b 572 -14 71 207 294 -14 b 915 78 774 -14 915 78 b 926 100 921 82 926 93 l 926 418 b 901 444 926 432 915 444 l 661 444 b 635 418 646 444 635 433 l 635 367 b 661 342 635 353 646 342 l 821 342 l 821 147 b 571 89 821 147 724 89 b 185 490 351 89 185 276 b 571 889 185 706 351 889 b 835 781 664 889 764 843 b 871 779 850 767 858 765 b 910 818 882 792 897 806 b 908 857 921 829 919 846 b 572 986 814 938 713 986 b 71 485 294 986 71 763 z m 571 1106 b 650 1185 615 1106 650 1142 b 571 1264 650 1229 615 1264 b 492 1185 528 1264 492 1229 b 571 1106 492 1142 528 1106 z "},"Ģ":{"ha":1017,"x_min":0,"x_max":0,"o":"m 71 485 b 572 -14 71 207 294 -14 b 915 78 774 -14 915 78 b 926 100 921 82 926 93 l 926 418 b 901 444 926 432 915 444 l 661 444 b 635 418 646 444 635 433 l 635 367 b 661 342 635 353 646 342 l 821 342 l 821 147 b 571 89 821 147 724 89 b 185 490 351 89 185 276 b 571 889 185 706 351 889 b 835 781 664 889 764 843 b 871 779 850 767 858 765 b 910 818 882 792 897 806 b 908 857 921 829 919 846 b 572 986 814 938 713 986 b 71 485 294 986 71 763 z m 568 -128 b 489 -207 525 -128 489 -162 b 568 -286 489 -250 525 -286 b 585 -285 574 -286 579 -286 b 499 -460 585 -386 513 -447 b 490 -493 485 -472 483 -486 l 510 -512 b 543 -510 518 -521 529 -522 b 660 -253 588 -468 660 -368 b 568 -128 660 -153 613 -128 z "},"Ĥ":{"ha":1061,"x_min":0,"x_max":0,"o":"m 142 26 b 168 0 142 13 154 0 l 222 0 b 249 26 238 0 249 13 l 249 447 l 813 447 l 813 26 b 839 0 813 13 824 0 l 893 0 b 919 26 907 0 919 13 l 919 946 b 893 972 919 960 907 972 l 839 972 b 813 946 824 972 813 960 l 813 540 l 249 540 l 249 946 b 222 972 249 960 238 972 l 168 972 b 142 946 154 972 142 960 z m 360 1076 b 392 1074 367 1067 375 1063 l 533 1168 l 675 1071 b 726 1101 703 1051 714 1085 b 718 1128 733 1111 726 1122 l 551 1258 b 533 1264 546 1263 542 1264 b 515 1258 528 1264 521 1263 l 349 1128 b 340 1101 340 1122 333 1111 z "},"Ħ":{"ha":1061,"x_min":0,"x_max":0,"o":"m 142 26 b 168 0 142 13 154 0 l 222 0 b 249 26 238 0 249 13 l 249 447 l 813 447 l 813 26 b 839 0 813 13 824 0 l 893 0 b 919 26 907 0 919 13 l 919 744 l 949 744 b 975 769 964 744 975 756 l 975 781 b 949 807 975 794 964 807 l 919 807 l 919 946 b 893 972 919 960 907 972 l 839 972 b 813 946 824 972 813 960 l 813 807 l 249 807 l 249 946 b 222 972 249 960 238 972 l 168 972 b 142 946 154 972 142 960 l 142 807 l 111 807 b 86 781 97 807 86 794 l 86 771 b 111 744 86 757 97 744 l 142 744 z m 249 540 l 249 744 l 813 744 l 813 540 z "},"Ì":{"ha":392,"x_min":0,"x_max":0,"o":"m 142 26 b 168 0 142 13 154 0 l 224 0 b 250 26 238 0 250 13 l 250 946 b 224 972 250 960 238 972 l 168 972 b 142 946 154 972 142 960 z m 289 1085 b 321 1088 308 1076 315 1076 l 335 1118 b 326 1144 340 1129 335 1140 l 118 1261 b 82 1257 110 1267 89 1269 l 57 1207 b 65 1178 51 1196 54 1182 z "},"Í":{"ha":392,"x_min":0,"x_max":0,"o":"m 142 26 b 168 0 142 13 154 0 l 224 0 b 250 26 238 0 250 13 l 250 946 b 224 972 250 960 238 972 l 168 972 b 142 946 154 972 142 960 z m 71 1088 b 103 1085 76 1076 83 1076 l 326 1178 b 335 1207 338 1182 340 1196 l 310 1257 b 274 1261 303 1269 282 1267 l 65 1144 b 57 1118 57 1140 51 1129 z "},"Ĭ":{"ha":392,"x_min":0,"x_max":0,"o":"m 142 26 b 168 0 142 13 154 0 l 224 0 b 250 26 238 0 250 13 l 250 946 b 224 972 250 960 238 972 l 168 972 b 142 946 154 972 142 960 z m 197 1071 b 385 1229 293 1071 369 1139 b 365 1257 388 1244 381 1257 l 333 1257 b 307 1233 321 1257 313 1249 b 197 1144 292 1185 249 1144 b 85 1233 142 1144 100 1181 b 58 1257 81 1246 74 1257 l 29 1257 b 10 1229 13 1257 7 1244 b 197 1071 22 1139 100 1071 z "},"Î":{"ha":392,"x_min":0,"x_max":0,"o":"m 142 26 b 168 0 142 13 154 0 l 224 0 b 250 26 238 0 250 13 l 250 946 b 224 972 250 960 238 972 l 168 972 b 142 946 154 972 142 960 z m 22 1076 b 54 1074 29 1067 38 1063 l 196 1168 l 338 1071 b 389 1101 365 1051 376 1085 b 381 1128 396 1111 389 1122 l 214 1258 b 196 1264 208 1263 204 1264 b 178 1258 190 1264 183 1263 l 11 1128 b 3 1101 3 1122 -4 1111 z "},"Ĩ":{"ha":392,"x_min":0,"x_max":0,"o":"m 142 26 b 168 0 142 13 154 0 l 224 0 b 250 26 238 0 250 13 l 250 946 b 224 972 250 960 238 972 l 168 972 b 142 946 154 972 142 960 z m 22 1104 b 57 1118 40 1094 53 1104 b 118 1188 67 1147 81 1188 b 271 1083 157 1188 194 1083 b 394 1196 347 1083 381 1156 b 389 1232 397 1206 406 1224 l 367 1243 b 335 1232 351 1250 339 1246 b 272 1161 328 1208 311 1161 b 119 1264 229 1161 203 1264 b -8 1147 28 1264 4 1172 b -3 1117 -12 1138 -14 1122 z "},"Ï":{"ha":392,"x_min":0,"x_max":0,"o":"m 142 26 b 168 0 142 13 154 0 l 224 0 b 250 26 238 0 250 13 l 250 946 b 224 972 250 960 238 972 l 168 972 b 142 946 154 972 142 960 z m 343 1100 b 410 1165 381 1100 410 1129 b 343 1232 410 1203 381 1232 b 278 1165 307 1232 278 1203 b 343 1100 278 1129 307 1100 z m 50 1100 b 117 1165 88 1100 117 1129 b 50 1232 117 1203 88 1232 b -15 1165 14 1232 -15 1203 b 50 1100 -15 1129 14 1100 z "},"Ī":{"ha":392,"x_min":0,"x_max":0,"o":"m 142 26 b 168 0 142 13 154 0 l 224 0 b 250 26 238 0 250 13 l 250 946 b 224 972 250 960 238 972 l 168 972 b 142 946 154 972 142 960 z m 19 1140 l 375 1140 b 401 1165 390 1140 401 1151 l 401 1194 b 375 1221 401 1210 390 1221 l 19 1221 b -7 1194 4 1221 -7 1210 l -7 1165 b 19 1140 -7 1151 4 1140 z "},"İ":{"ha":392,"x_min":0,"x_max":0,"o":"m 142 26 b 168 0 142 13 154 0 l 224 0 b 250 26 238 0 250 13 l 250 946 b 224 972 250 960 238 972 l 168 972 b 142 946 154 972 142 960 z m 196 1106 b 275 1185 240 1106 275 1142 b 196 1264 275 1229 240 1264 b 117 1185 153 1264 117 1229 b 196 1106 117 1142 153 1106 z "},"Į":{"ha":392,"x_min":0,"x_max":0,"o":"m 142 26 b 153 4 142 18 146 10 b 71 -151 126 -15 71 -69 b 218 -293 71 -249 140 -293 b 315 -272 264 -293 301 -279 b 335 -249 325 -267 335 -261 l 335 -214 b 310 -194 335 -196 321 -189 b 233 -217 292 -204 268 -217 b 154 -137 192 -217 154 -183 b 219 0 154 -71 196 -22 l 224 0 b 250 26 238 0 250 13 l 250 946 b 224 972 250 960 238 972 l 168 972 b 142 946 154 972 142 960 z "},"Ĵ":{"ha":563,"x_min":0,"x_max":0,"o":"m -28 89 b 183 -14 -4 60 63 -14 b 463 290 346 -14 463 97 l 463 946 b 436 972 463 960 451 972 l 382 972 b 356 946 367 972 356 960 l 356 288 b 186 79 356 140 269 79 b 51 153 125 79 75 126 b 4 157 38 168 26 178 l -25 124 b -28 89 -33 114 -35 100 z m 235 1076 b 267 1074 242 1067 250 1063 l 408 1168 l 550 1071 b 601 1101 578 1051 589 1085 b 593 1128 608 1111 601 1122 l 426 1258 b 408 1264 421 1263 417 1264 b 390 1258 403 1264 396 1263 l 224 1128 b 215 1101 215 1122 208 1111 z "},"Ķ":{"ha":858,"x_min":0,"x_max":0,"o":"m 142 33 b 175 0 142 15 156 0 l 215 0 b 249 33 233 0 249 15 l 249 475 l 694 10 b 719 0 697 6 710 0 l 790 0 b 814 43 821 0 824 33 l 354 514 l 793 924 b 776 972 815 944 801 972 l 708 972 b 682 958 700 972 688 965 l 249 546 l 249 939 b 215 972 249 957 233 972 l 175 972 b 142 939 156 972 142 957 z m 433 -128 b 354 -207 390 -128 354 -162 b 433 -286 354 -250 390 -286 b 450 -285 439 -286 444 -286 b 364 -460 450 -386 378 -447 b 356 -493 350 -472 349 -486 l 375 -512 b 408 -510 383 -521 394 -522 b 525 -253 453 -468 525 -368 b 433 -128 525 -153 478 -128 z "},"Ĺ":{"ha":682,"x_min":0,"x_max":0,"o":"m 142 26 b 168 0 142 13 153 0 l 649 0 b 675 26 664 0 675 13 l 675 67 b 649 93 675 81 664 93 l 249 93 l 249 946 b 222 972 249 960 236 972 l 168 972 b 142 946 153 972 142 960 z m 71 1088 b 103 1085 76 1076 83 1076 l 326 1178 b 335 1207 338 1182 340 1196 l 310 1257 b 274 1261 303 1269 282 1267 l 65 1144 b 57 1118 57 1140 51 1129 z "},"Ľ":{"ha":682,"x_min":0,"x_max":0,"o":"m 142 26 b 168 0 142 13 153 0 l 649 0 b 675 26 664 0 675 13 l 675 67 b 649 93 675 81 664 93 l 249 93 l 249 946 b 222 972 249 960 236 972 l 168 972 b 142 946 153 972 142 960 z m 547 986 b 468 907 504 986 468 951 b 547 828 468 864 504 828 b 564 829 553 828 558 828 b 478 654 564 728 492 667 b 469 621 464 642 463 628 l 489 601 b 522 604 497 593 508 592 b 639 861 567 646 639 746 b 547 986 639 961 592 986 z "},"Ļ":{"ha":683,"x_min":0,"x_max":0,"o":"m 142 26 b 168 0 142 13 153 0 l 649 0 b 675 26 664 0 675 13 l 675 67 b 649 93 675 81 664 93 l 249 93 l 249 946 b 222 972 249 960 236 972 l 168 972 b 142 946 153 972 142 960 z m 408 -128 b 329 -207 365 -128 329 -162 b 408 -286 329 -250 365 -286 b 425 -285 414 -286 419 -286 b 339 -460 425 -386 353 -447 b 331 -493 325 -472 324 -486 l 350 -512 b 383 -510 358 -521 369 -522 b 500 -253 428 -468 500 -368 b 408 -128 500 -153 453 -128 z "},"Ł":{"ha":690,"x_min":0,"x_max":0,"o":"m 150 26 b 176 0 150 13 161 0 l 657 0 b 683 26 672 0 683 13 l 683 67 b 657 93 683 81 672 93 l 257 93 l 257 494 l 442 600 b 451 636 454 608 458 624 l 447 644 b 411 654 442 656 425 663 l 257 565 l 257 946 b 231 972 257 960 244 972 l 176 972 b 150 946 161 972 150 960 l 150 503 l 90 469 b 81 436 78 463 75 447 l 86 425 b 121 415 93 413 106 406 l 150 432 z "},"Ŀ":{"ha":797,"x_min":0,"x_max":0,"o":"m 142 26 b 168 0 142 13 153 0 l 649 0 b 675 26 664 0 675 13 l 675 67 b 649 93 675 81 664 93 l 249 93 l 249 946 b 222 972 249 960 236 972 l 168 972 b 142 946 153 972 142 960 z m 672 406 b 751 485 717 406 751 442 b 672 564 751 529 717 564 b 593 485 629 564 593 529 b 672 406 593 442 629 406 z "},"Ń":{"ha":1075,"x_min":0,"x_max":0,"o":"m 142 26 b 168 0 142 13 154 0 l 217 0 b 243 26 232 0 243 13 l 243 782 b 244 782 243 782 244 782 l 882 -14 l 907 -14 b 933 11 921 -14 933 -3 l 933 946 b 907 972 933 960 921 972 l 858 972 b 832 946 843 972 832 960 l 832 206 b 829 206 831 206 831 206 l 203 986 l 168 986 b 142 961 154 986 142 975 z m 429 1088 b 461 1085 435 1076 442 1076 l 685 1178 b 693 1207 696 1182 699 1196 l 668 1257 b 632 1261 661 1269 640 1267 l 424 1144 b 415 1118 415 1140 410 1129 z "},"Ň":{"ha":1075,"x_min":0,"x_max":0,"o":"m 142 26 b 168 0 142 13 154 0 l 217 0 b 243 26 232 0 243 13 l 243 782 b 244 782 243 782 244 782 l 882 -14 l 907 -14 b 933 11 921 -14 933 -3 l 933 946 b 907 972 933 960 921 972 l 858 972 b 832 946 843 972 832 960 l 832 206 b 829 206 831 206 831 206 l 203 986 l 168 986 b 142 961 154 986 142 975 z m 544 1067 b 563 1072 553 1067 557 1068 l 711 1189 b 738 1229 722 1197 750 1213 l 718 1257 b 686 1260 711 1267 703 1271 l 544 1163 l 403 1257 b 371 1254 386 1268 378 1264 l 351 1229 b 360 1203 344 1219 351 1208 l 526 1072 b 544 1067 532 1068 539 1067 z "},"Ñ":{"ha":1075,"x_min":0,"x_max":0,"o":"m 142 26 b 168 0 142 13 154 0 l 217 0 b 243 26 232 0 243 13 l 243 782 b 244 782 243 782 244 782 l 882 -14 l 907 -14 b 933 11 921 -14 933 -3 l 933 946 b 907 972 933 960 921 972 l 858 972 b 832 946 843 972 832 960 l 832 206 b 829 206 831 206 831 206 l 203 986 l 168 986 b 142 961 154 986 142 975 z m 381 1104 b 415 1118 399 1094 411 1104 b 476 1188 425 1147 439 1188 b 629 1083 515 1188 553 1083 b 753 1196 706 1083 739 1156 b 747 1232 756 1206 764 1224 l 725 1243 b 693 1232 710 1250 697 1246 b 631 1161 686 1208 669 1161 b 478 1264 588 1161 561 1264 b 350 1147 386 1264 363 1172 b 356 1117 346 1138 344 1122 z "},"Ņ":{"ha":1075,"x_min":0,"x_max":0,"o":"m 142 26 b 168 0 142 13 154 0 l 217 0 b 243 26 232 0 243 13 l 243 782 b 244 782 243 782 244 782 l 882 -14 l 907 -14 b 933 11 921 -14 933 -3 l 933 946 b 907 972 933 960 921 972 l 858 972 b 832 946 843 972 832 960 l 832 206 b 829 206 831 206 831 206 l 203 986 l 168 986 b 142 961 154 986 142 975 z m 539 -128 b 460 -207 496 -128 460 -162 b 539 -286 460 -250 496 -286 b 556 -285 544 -286 550 -286 b 469 -460 556 -386 483 -447 b 461 -493 456 -472 454 -486 l 481 -512 b 514 -510 489 -521 500 -522 b 631 -253 558 -468 631 -368 b 539 -128 631 -153 583 -128 z "},"Ò":{"ha":1140,"x_min":0,"x_max":0,"o":"m 71 485 b 569 -14 71 207 292 -14 b 1069 485 847 -14 1069 207 b 569 986 1069 763 847 986 b 71 485 292 986 71 763 z m 168 485 b 569 889 168 706 349 889 b 972 485 790 889 972 706 b 569 83 972 264 790 83 b 168 485 349 83 168 264 z m 676 1085 b 708 1088 696 1076 703 1076 l 722 1118 b 714 1144 728 1129 722 1140 l 506 1261 b 469 1257 497 1267 476 1269 l 444 1207 b 453 1178 439 1196 442 1182 z "},"Ó":{"ha":1140,"x_min":0,"x_max":0,"o":"m 71 485 b 569 -14 71 207 292 -14 b 1069 485 847 -14 1069 207 b 569 986 1069 763 847 986 b 71 485 292 986 71 763 z m 168 485 b 569 889 168 706 349 889 b 972 485 790 889 972 706 b 569 83 972 264 790 83 b 168 485 349 83 168 264 z m 458 1088 b 490 1085 464 1076 471 1076 l 714 1178 b 722 1207 725 1182 728 1196 l 697 1257 b 661 1261 690 1269 669 1267 l 453 1144 b 444 1118 444 1140 439 1129 z "},"Ô":{"ha":1140,"x_min":0,"x_max":0,"o":"m 71 485 b 569 -14 71 207 292 -14 b 1069 485 847 -14 1069 207 b 569 986 1069 763 847 986 b 71 485 292 986 71 763 z m 168 485 b 569 889 168 706 349 889 b 972 485 790 889 972 706 b 569 83 972 264 790 83 b 168 485 349 83 168 264 z m 396 1076 b 428 1074 403 1067 411 1063 l 569 1168 l 711 1071 b 763 1101 739 1051 750 1085 b 754 1128 769 1111 763 1122 l 588 1258 b 569 1264 582 1263 578 1264 b 551 1258 564 1264 557 1263 l 385 1128 b 376 1101 376 1122 369 1111 z "},"Õ":{"ha":1140,"x_min":0,"x_max":0,"o":"m 71 485 b 569 -14 71 207 292 -14 b 1069 485 847 -14 1069 207 b 569 986 1069 763 847 986 b 71 485 292 986 71 763 z m 168 485 b 569 889 168 706 349 889 b 972 485 790 889 972 706 b 569 83 972 264 790 83 b 168 485 349 83 168 264 z m 396 1104 b 431 1118 414 1094 426 1104 b 492 1188 440 1147 454 1188 b 644 1083 531 1188 568 1083 b 768 1196 721 1083 754 1156 b 763 1232 771 1206 779 1224 l 740 1243 b 708 1232 725 1250 713 1246 b 646 1161 701 1208 685 1161 b 493 1264 603 1161 576 1264 b 365 1147 401 1264 378 1172 b 371 1117 361 1138 360 1122 z "},"Ö":{"ha":1140,"x_min":0,"x_max":0,"o":"m 71 485 b 569 -14 71 207 292 -14 b 1069 485 847 -14 1069 207 b 569 986 1069 763 847 986 b 71 485 292 986 71 763 z m 168 485 b 569 889 168 706 349 889 b 972 485 790 889 972 706 b 569 83 972 264 790 83 b 168 485 349 83 168 264 z m 717 1100 b 783 1165 754 1100 783 1129 b 717 1232 783 1203 754 1232 b 651 1165 681 1232 651 1203 b 717 1100 651 1129 681 1100 z m 424 1100 b 490 1165 461 1100 490 1129 b 424 1232 490 1203 461 1232 b 358 1165 388 1232 358 1203 b 424 1100 358 1129 388 1100 z "},"Ō":{"ha":1140,"x_min":0,"x_max":0,"o":"m 71 485 b 569 -14 71 207 292 -14 b 1069 485 847 -14 1069 207 b 569 986 1069 763 847 986 b 71 485 292 986 71 763 z m 168 485 b 569 889 168 706 349 889 b 972 485 790 889 972 706 b 569 83 972 264 790 83 b 168 485 349 83 168 264 z m 393 1140 l 749 1140 b 775 1165 764 1140 775 1151 l 775 1194 b 749 1221 775 1210 764 1221 l 393 1221 b 367 1194 378 1221 367 1210 l 367 1165 b 393 1140 367 1151 378 1140 z "},"Ŏ":{"ha":1140,"x_min":0,"x_max":0,"o":"m 71 485 b 569 -14 71 207 292 -14 b 1069 485 847 -14 1069 207 b 569 986 1069 763 847 986 b 71 485 292 986 71 763 z m 168 485 b 569 889 168 706 349 889 b 972 485 790 889 972 706 b 569 83 972 264 790 83 b 168 485 349 83 168 264 z m 571 1071 b 758 1229 667 1071 743 1139 b 739 1257 761 1244 754 1257 l 707 1257 b 681 1233 694 1257 686 1249 b 571 1144 665 1185 622 1144 b 458 1233 515 1144 474 1181 b 432 1257 454 1246 447 1257 l 403 1257 b 383 1229 386 1257 381 1244 b 571 1071 396 1139 474 1071 z "},"Ő":{"ha":1140,"x_min":0,"x_max":0,"o":"m 71 485 b 569 -14 71 207 292 -14 b 1069 485 847 -14 1069 207 b 569 986 1069 763 847 986 b 71 485 292 986 71 763 z m 168 485 b 569 889 168 706 349 889 b 972 485 790 889 972 706 b 569 83 972 264 790 83 b 168 485 349 83 168 264 z m 704 1068 l 719 1068 b 744 1089 729 1068 739 1078 l 853 1282 b 828 1317 863 1300 854 1317 l 774 1317 b 747 1290 760 1317 751 1304 l 678 1094 b 704 1068 674 1081 690 1068 z m 474 1068 l 489 1068 b 514 1089 499 1068 508 1078 l 622 1282 b 597 1317 632 1300 624 1317 l 543 1317 b 517 1290 529 1317 521 1304 l 447 1094 b 474 1068 443 1081 460 1068 z "},"Ø":{"ha":1140,"x_min":0,"x_max":0,"o":"m 113 31 l 118 25 b 154 24 128 15 144 14 l 239 108 b 569 -14 326 32 442 -14 b 1069 485 847 -14 1069 207 b 946 817 1069 611 1022 728 l 1033 904 b 1033 940 1043 914 1043 931 l 1026 947 b 990 947 1017 957 1000 957 l 903 860 b 569 986 814 938 697 986 b 71 485 292 986 71 763 b 196 151 71 356 118 240 l 111 67 b 113 31 101 57 103 40 z m 267 222 b 168 485 206 293 168 385 b 569 889 168 706 349 889 b 833 790 669 889 763 851 z m 310 179 l 875 746 b 972 485 936 676 972 583 b 569 83 972 264 790 83 b 310 179 471 83 379 119 z "},"Ǿ":{"ha":1140,"x_min":0,"x_max":0,"o":"m 113 31 l 118 25 b 154 24 128 15 144 14 l 239 108 b 569 -14 326 32 442 -14 b 1069 485 847 -14 1069 207 b 946 817 1069 611 1022 728 l 1033 904 b 1033 940 1043 914 1043 931 l 1026 947 b 990 947 1017 957 1000 957 l 903 860 b 569 986 814 938 697 986 b 71 485 292 986 71 763 b 196 151 71 356 118 240 l 111 67 b 113 31 101 57 103 40 z m 267 222 b 168 485 206 293 168 385 b 569 889 168 706 349 889 b 833 790 669 889 763 851 z m 310 179 l 875 746 b 972 485 936 676 972 583 b 569 83 972 264 790 83 b 310 179 471 83 379 119 z m 458 1088 b 490 1085 464 1076 471 1076 l 714 1178 b 722 1207 725 1182 728 1196 l 697 1257 b 661 1261 690 1269 669 1267 l 453 1144 b 444 1118 444 1140 439 1129 z "},"Œ":{"ha":1343,"x_min":0,"x_max":0,"o":"m 71 485 b 569 -14 71 207 292 -14 b 689 0 632 -14 689 0 l 1236 0 b 1263 26 1251 0 1263 13 l 1263 67 b 1236 93 1263 81 1251 93 l 769 93 l 769 447 l 1168 447 b 1194 474 1182 447 1194 458 l 1194 514 b 1168 540 1194 528 1182 540 l 769 540 l 769 879 l 1236 879 b 1263 906 1251 879 1263 892 l 1263 946 b 1236 972 1263 960 1251 972 l 689 972 b 569 986 689 972 632 986 b 71 485 292 986 71 763 z m 168 485 b 569 888 168 706 349 888 b 663 876 601 888 632 883 l 663 93 b 569 83 632 86 601 83 b 168 485 349 83 168 264 z "},"Ŕ":{"ha":918,"x_min":0,"x_max":0,"o":"m 142 26 b 168 0 142 13 153 0 l 222 0 b 249 26 236 0 249 13 l 249 381 l 514 381 l 699 13 b 721 0 701 7 708 0 l 792 0 b 815 40 815 0 825 22 l 625 393 b 831 676 746 442 831 549 b 528 972 831 842 694 972 l 168 972 b 142 946 153 972 142 960 z m 251 472 l 251 871 l 521 871 b 721 675 628 871 721 781 b 521 472 721 561 628 472 z m 314 1088 b 346 1085 319 1076 326 1076 l 569 1178 b 578 1207 581 1182 583 1196 l 553 1257 b 517 1261 546 1269 525 1267 l 308 1144 b 300 1118 300 1140 294 1129 z "},"Ř":{"ha":918,"x_min":0,"x_max":0,"o":"m 142 26 b 168 0 142 13 153 0 l 222 0 b 249 26 236 0 249 13 l 249 381 l 514 381 l 699 13 b 721 0 701 7 708 0 l 792 0 b 815 40 815 0 825 22 l 625 393 b 831 676 746 442 831 549 b 528 972 831 842 694 972 l 168 972 b 142 946 153 972 142 960 z m 251 472 l 251 871 l 521 871 b 721 675 628 871 721 781 b 521 472 721 561 628 472 z m 425 1067 b 443 1072 433 1067 438 1068 l 592 1189 b 618 1229 603 1197 631 1213 l 599 1257 b 567 1260 592 1267 583 1271 l 425 1163 l 283 1257 b 251 1254 267 1268 258 1264 l 232 1229 b 240 1203 225 1219 232 1208 l 407 1072 b 425 1067 413 1068 419 1067 z "},"Ŗ":{"ha":917,"x_min":0,"x_max":0,"o":"m 142 26 b 168 0 142 13 153 0 l 222 0 b 249 26 236 0 249 13 l 249 381 l 514 381 l 699 13 b 721 0 701 7 708 0 l 792 0 b 815 40 815 0 825 22 l 625 393 b 831 676 746 442 831 549 b 528 972 831 842 694 972 l 168 972 b 142 946 153 972 142 960 z m 251 472 l 251 871 l 521 871 b 721 675 628 871 721 781 b 521 472 721 561 628 472 z m 438 -128 b 358 -207 394 -128 358 -162 b 438 -286 358 -250 394 -286 b 454 -285 443 -286 449 -286 b 368 -460 454 -386 382 -447 b 360 -493 354 -472 353 -486 l 379 -512 b 413 -510 388 -521 399 -522 b 529 -253 457 -468 529 -368 b 438 -128 529 -153 482 -128 z "},"Ś":{"ha":740,"x_min":0,"x_max":0,"o":"m 88 99 b 381 -14 106 82 217 -14 b 681 236 543 -14 681 92 b 372 544 681 397 560 468 b 185 740 256 593 185 647 b 376 893 185 799 229 893 b 558 829 461 893 549 835 b 607 842 581 817 594 822 b 624 868 613 850 618 860 b 615 915 640 894 624 911 b 378 986 615 915 514 986 b 82 739 157 986 82 833 b 326 451 82 581 174 518 b 569 232 486 385 569 328 b 383 79 569 150 496 79 b 149 185 260 79 158 176 b 100 172 129 201 114 190 b 79 146 93 164 86 154 b 88 99 63 119 76 108 z m 268 1088 b 300 1085 274 1076 281 1076 l 524 1178 b 532 1207 535 1182 538 1196 l 507 1257 b 471 1261 500 1269 479 1267 l 263 1144 b 254 1118 254 1140 249 1129 z "},"Ŝ":{"ha":740,"x_min":0,"x_max":0,"o":"m 88 99 b 381 -14 106 82 217 -14 b 681 236 543 -14 681 92 b 372 544 681 397 560 468 b 185 740 256 593 185 647 b 376 893 185 799 229 893 b 558 829 461 893 549 835 b 607 842 581 817 594 822 b 624 868 613 850 618 860 b 615 915 640 894 624 911 b 378 986 615 915 514 986 b 82 739 157 986 82 833 b 326 451 82 581 174 518 b 569 232 486 385 569 328 b 383 79 569 150 496 79 b 149 185 260 79 158 176 b 100 172 129 201 114 190 b 79 146 93 164 86 154 b 88 99 63 119 76 108 z m 206 1076 b 238 1074 213 1067 221 1063 l 379 1168 l 521 1071 b 572 1101 549 1051 560 1085 b 564 1128 579 1111 572 1122 l 397 1258 b 379 1264 392 1263 388 1264 b 361 1258 374 1264 367 1263 l 194 1128 b 186 1101 186 1122 179 1111 z "},"Š":{"ha":740,"x_min":0,"x_max":0,"o":"m 88 99 b 381 -14 106 82 217 -14 b 681 236 543 -14 681 92 b 372 544 681 397 560 468 b 185 740 256 593 185 647 b 376 893 185 799 229 893 b 558 829 461 893 549 835 b 607 842 581 817 594 822 b 624 868 613 850 618 860 b 615 915 640 894 624 911 b 378 986 615 915 514 986 b 82 739 157 986 82 833 b 326 451 82 581 174 518 b 569 232 486 385 569 328 b 383 79 569 150 496 79 b 149 185 260 79 158 176 b 100 172 129 201 114 190 b 79 146 93 164 86 154 b 88 99 63 119 76 108 z m 379 1067 b 397 1072 388 1067 392 1068 l 546 1189 b 572 1229 557 1197 585 1213 l 553 1257 b 521 1260 546 1267 538 1271 l 379 1163 l 238 1257 b 206 1254 221 1268 213 1264 l 186 1229 b 194 1203 179 1219 186 1208 l 361 1072 b 379 1067 367 1068 374 1067 z "},"Ş":{"ha":742,"x_min":0,"x_max":0,"o":"m 89 99 b 329 -10 104 83 194 7 l 329 -106 b 353 -133 329 -112 332 -129 b 468 -221 400 -142 468 -157 b 407 -286 468 -258 444 -286 b 350 -261 390 -286 367 -279 b 318 -261 343 -253 328 -254 l 299 -276 b 299 -312 289 -283 288 -300 b 404 -361 322 -340 363 -361 b 550 -217 486 -361 550 -297 b 404 -74 550 -136 489 -85 l 404 -12 b 682 236 557 -4 682 99 b 374 544 682 397 561 468 b 186 740 257 593 186 647 b 378 893 186 799 231 893 b 560 829 463 893 550 835 b 608 842 582 817 596 822 l 625 868 b 617 915 642 894 625 911 b 379 986 617 915 515 986 b 83 739 158 986 83 833 b 328 451 83 581 175 518 b 571 232 488 385 571 328 b 385 79 571 150 497 79 b 150 185 261 79 160 176 b 101 172 131 201 115 190 l 81 146 b 89 99 64 119 78 108 z "},"Ș":{"ha":740,"x_min":0,"x_max":0,"o":"m 88 99 b 381 -14 106 82 217 -14 b 681 236 543 -14 681 92 b 372 544 681 397 560 468 b 185 740 256 593 185 647 b 376 893 185 799 229 893 b 558 829 461 893 549 835 b 607 842 581 817 594 822 b 624 868 613 850 618 860 b 615 915 640 894 624 911 b 378 986 615 915 514 986 b 82 739 157 986 82 833 b 326 451 82 581 174 518 b 569 232 486 385 569 328 b 383 79 569 150 496 79 b 149 185 260 79 158 176 b 100 172 129 201 114 190 b 79 146 93 164 86 154 b 88 99 63 119 76 108 z m 382 -128 b 303 -207 339 -128 303 -162 b 382 -286 303 -250 339 -286 b 399 -285 388 -286 393 -286 b 313 -460 399 -386 326 -447 b 304 -493 299 -472 297 -486 l 324 -512 b 357 -510 332 -521 343 -522 b 474 -253 401 -468 474 -368 b 382 -128 474 -153 426 -128 z "},"Ť":{"ha":664,"x_min":0,"x_max":0,"o":"m 279 26 b 306 0 279 13 292 0 l 358 0 b 385 26 372 0 385 13 l 385 879 l 626 879 b 653 906 642 879 653 892 l 653 946 b 626 972 653 960 642 972 l 38 972 b 11 946 22 972 11 960 l 11 906 b 38 879 11 892 22 879 l 279 879 z m 331 1067 b 349 1072 339 1067 343 1068 l 497 1189 b 524 1229 508 1197 536 1213 l 504 1257 b 472 1260 497 1267 489 1271 l 331 1163 l 189 1257 b 157 1254 172 1268 164 1264 l 138 1229 b 146 1203 131 1219 138 1208 l 313 1072 b 331 1067 318 1068 325 1067 z "},"Ţ":{"ha":664,"x_min":0,"x_max":0,"o":"m 279 26 b 306 0 279 13 292 0 l 358 0 b 385 26 372 0 385 13 l 385 879 l 626 879 b 653 906 642 879 653 892 l 653 946 b 626 972 653 960 642 972 l 38 972 b 11 946 22 972 11 960 l 11 906 b 38 879 11 892 22 879 l 279 879 z m 328 -128 b 249 -207 285 -128 249 -162 b 328 -286 249 -250 285 -286 b 344 -285 333 -286 339 -286 b 258 -460 344 -386 272 -447 b 250 -493 244 -472 243 -486 l 269 -512 b 303 -510 278 -521 289 -522 b 419 -253 347 -468 419 -368 b 328 -128 419 -153 372 -128 z "},"Ț":{"ha":664,"x_min":0,"x_max":0,"o":"m 279 26 b 306 0 279 13 292 0 l 358 0 b 385 26 372 0 385 13 l 385 879 l 626 879 b 653 906 642 879 653 892 l 653 946 b 626 972 653 960 642 972 l 38 972 b 11 946 22 972 11 960 l 11 906 b 38 879 11 892 22 879 l 279 879 z m 329 -128 b 250 -207 286 -128 250 -162 b 329 -286 250 -250 286 -286 b 346 -285 335 -286 340 -286 b 260 -460 346 -386 274 -447 b 251 -493 246 -472 244 -486 l 271 -512 b 304 -510 279 -521 290 -522 b 421 -253 349 -468 421 -368 b 329 -128 421 -153 374 -128 z "},"Ŧ":{"ha":664,"x_min":0,"x_max":0,"o":"m 279 26 b 306 0 279 13 292 0 l 358 0 b 385 26 372 0 385 13 l 385 410 l 529 410 b 556 435 544 410 556 421 l 556 446 b 529 472 556 460 544 472 l 385 472 l 385 879 l 626 879 b 653 906 642 879 653 892 l 653 946 b 626 972 653 960 642 972 l 38 972 b 11 946 22 972 11 960 l 11 906 b 38 879 11 892 22 879 l 279 879 l 279 472 l 135 472 b 110 446 121 472 110 460 l 110 436 b 135 410 110 422 121 410 l 279 410 z "},"Þ":{"ha":829,"x_min":0,"x_max":0,"o":"m 142 26 b 168 0 142 13 153 0 l 221 0 b 247 26 235 0 247 13 l 247 178 l 476 178 b 786 490 646 178 786 318 b 475 797 786 658 646 799 l 247 797 l 247 946 b 221 972 247 960 235 972 l 168 972 b 142 944 153 972 142 958 z m 247 281 l 247 692 l 468 692 b 679 493 582 692 679 606 b 468 281 679 374 582 281 z "},"Ù":{"ha":994,"x_min":0,"x_max":0,"o":"m 129 358 b 496 -14 129 147 278 -14 b 865 358 715 -14 865 147 l 865 946 b 839 972 865 960 853 972 l 786 972 b 760 946 771 972 760 960 l 760 364 b 496 85 760 206 660 85 b 235 367 333 85 235 208 l 235 946 b 208 972 235 960 224 972 l 156 972 b 129 946 142 972 129 960 z m 588 1085 b 619 1088 607 1076 614 1076 l 633 1118 b 625 1144 639 1129 633 1140 l 417 1261 b 381 1257 408 1267 388 1269 l 356 1207 b 364 1178 350 1196 353 1182 z "},"Ú":{"ha":994,"x_min":0,"x_max":0,"o":"m 129 358 b 496 -14 129 147 278 -14 b 865 358 715 -14 865 147 l 865 946 b 839 972 865 960 853 972 l 786 972 b 760 946 771 972 760 960 l 760 364 b 496 85 760 206 660 85 b 235 367 333 85 235 208 l 235 946 b 208 972 235 960 224 972 l 156 972 b 129 946 142 972 129 960 z m 369 1088 b 401 1085 375 1076 382 1076 l 625 1178 b 633 1207 636 1182 639 1196 l 608 1257 b 572 1261 601 1269 581 1267 l 364 1144 b 356 1118 356 1140 350 1129 z "},"Û":{"ha":994,"x_min":0,"x_max":0,"o":"m 129 358 b 496 -14 129 147 278 -14 b 865 358 715 -14 865 147 l 865 946 b 839 972 865 960 853 972 l 786 972 b 760 946 771 972 760 960 l 760 364 b 496 85 760 206 660 85 b 235 367 333 85 235 208 l 235 946 b 208 972 235 960 224 972 l 156 972 b 129 946 142 972 129 960 z m 317 1076 b 349 1074 324 1067 332 1063 l 490 1168 l 632 1071 b 683 1101 660 1051 671 1085 b 675 1128 690 1111 683 1122 l 508 1258 b 490 1264 503 1263 499 1264 b 472 1258 485 1264 478 1263 l 306 1128 b 297 1101 297 1122 290 1111 z "},"Ũ":{"ha":994,"x_min":0,"x_max":0,"o":"m 129 358 b 496 -14 129 147 278 -14 b 865 358 715 -14 865 147 l 865 946 b 839 972 865 960 853 972 l 786 972 b 760 946 771 972 760 960 l 760 364 b 496 85 760 206 660 85 b 235 367 333 85 235 208 l 235 946 b 208 972 235 960 224 972 l 156 972 b 129 946 142 972 129 960 z m 329 1104 b 364 1118 347 1094 360 1104 b 425 1188 374 1147 388 1188 b 578 1083 464 1188 501 1083 b 701 1196 654 1083 688 1156 b 696 1232 704 1206 713 1224 l 674 1243 b 642 1232 658 1250 646 1246 b 579 1161 635 1208 618 1161 b 426 1264 536 1161 510 1264 b 299 1147 335 1264 311 1172 b 304 1117 294 1138 293 1122 z "},"Ü":{"ha":994,"x_min":0,"x_max":0,"o":"m 129 358 b 496 -14 129 147 278 -14 b 865 358 715 -14 865 147 l 865 946 b 839 972 865 960 853 972 l 786 972 b 760 946 771 972 760 960 l 760 364 b 496 85 760 206 660 85 b 235 367 333 85 235 208 l 235 946 b 208 972 235 960 224 972 l 156 972 b 129 946 142 972 129 960 z m 642 1100 b 708 1165 679 1100 708 1129 b 642 1232 708 1203 679 1232 b 576 1165 606 1232 576 1203 b 642 1100 576 1129 606 1100 z m 349 1100 b 415 1165 386 1100 415 1129 b 349 1232 415 1203 386 1232 b 283 1165 313 1232 283 1203 b 349 1100 283 1129 313 1100 z "},"Ū":{"ha":994,"x_min":0,"x_max":0,"o":"m 129 358 b 496 -14 129 147 278 -14 b 865 358 715 -14 865 147 l 865 946 b 839 972 865 960 853 972 l 786 972 b 760 946 771 972 760 960 l 760 364 b 496 85 760 206 660 85 b 235 367 333 85 235 208 l 235 946 b 208 972 235 960 224 972 l 156 972 b 129 946 142 972 129 960 z m 318 1140 l 674 1140 b 700 1165 689 1140 700 1151 l 700 1194 b 674 1221 700 1210 689 1221 l 318 1221 b 292 1194 303 1221 292 1210 l 292 1165 b 318 1140 292 1151 303 1140 z "},"Ŭ":{"ha":994,"x_min":0,"x_max":0,"o":"m 129 358 b 496 -14 129 147 278 -14 b 865 358 715 -14 865 147 l 865 946 b 839 972 865 960 853 972 l 786 972 b 760 946 771 972 760 960 l 760 364 b 496 85 760 206 660 85 b 235 367 333 85 235 208 l 235 946 b 208 972 235 960 224 972 l 156 972 b 129 946 142 972 129 960 z m 494 1071 b 682 1229 590 1071 667 1139 b 663 1257 685 1244 678 1257 l 631 1257 b 604 1233 618 1257 610 1249 b 494 1144 589 1185 546 1144 b 382 1233 439 1144 397 1181 b 356 1257 378 1246 371 1257 l 326 1257 b 307 1229 310 1257 304 1244 b 494 1071 319 1139 397 1071 z "},"Ů":{"ha":994,"x_min":0,"x_max":0,"o":"m 129 358 b 496 -14 129 147 278 -14 b 865 358 715 -14 865 147 l 865 946 b 839 972 865 960 853 972 l 786 972 b 760 946 771 972 760 960 l 760 364 b 496 85 760 206 660 85 b 235 367 333 85 235 208 l 235 946 b 208 972 235 960 224 972 l 156 972 b 129 946 142 972 129 960 z m 494 1053 b 646 1204 578 1053 646 1119 b 494 1356 646 1289 578 1356 b 343 1204 410 1356 343 1289 b 494 1053 343 1119 410 1053 z m 494 1119 b 410 1204 450 1119 410 1160 b 494 1286 410 1249 450 1286 b 576 1204 539 1286 576 1249 b 494 1119 576 1160 539 1119 z "},"Ű":{"ha":994,"x_min":0,"x_max":0,"o":"m 129 358 b 496 -14 129 147 278 -14 b 865 358 715 -14 865 147 l 865 946 b 839 972 865 960 853 972 l 786 972 b 760 946 771 972 760 960 l 760 364 b 496 85 760 206 660 85 b 235 367 333 85 235 208 l 235 946 b 208 972 235 960 224 972 l 156 972 b 129 946 142 972 129 960 z m 618 1068 l 633 1068 b 658 1089 643 1068 653 1078 l 767 1282 b 742 1317 776 1300 768 1317 l 688 1317 b 661 1290 674 1317 665 1304 l 592 1094 b 618 1068 588 1081 604 1068 z m 388 1068 l 403 1068 b 428 1089 413 1068 422 1078 l 536 1282 b 511 1317 546 1300 538 1317 l 457 1317 b 431 1290 443 1317 435 1304 l 361 1094 b 388 1068 357 1081 374 1068 z "},"Ų":{"ha":1000,"x_min":0,"x_max":0,"o":"m 132 358 b 457 -11 132 160 263 7 b 394 -151 429 -39 394 -86 b 542 -293 394 -249 464 -293 b 639 -272 588 -293 625 -279 b 658 -249 649 -267 658 -261 l 658 -214 b 633 -194 658 -196 644 -189 b 557 -217 615 -204 592 -217 b 478 -137 515 -217 478 -183 b 532 -12 478 -82 507 -39 b 868 358 733 3 868 158 l 868 946 b 842 972 868 960 856 972 l 789 972 b 763 946 774 972 763 960 l 763 364 b 499 85 763 206 663 85 b 238 367 336 85 238 208 l 238 946 b 211 972 238 960 226 972 l 158 972 b 132 946 144 972 132 960 z "},"Ẃ":{"ha":1253,"x_min":0,"x_max":0,"o":"m 314 6 b 339 -14 317 -6 328 -14 l 361 -14 b 385 1 371 -14 381 -7 l 621 753 l 628 753 l 868 1 b 892 -14 872 -7 882 -14 l 914 -14 b 939 6 925 -14 936 -6 l 1201 939 b 1176 972 1207 958 1196 972 l 1118 972 b 1093 953 1107 972 1096 963 l 904 233 l 899 233 l 663 971 b 639 986 660 979 650 986 l 614 986 b 590 971 601 986 593 979 l 358 233 l 353 233 l 160 953 b 135 972 157 963 146 972 l 76 972 b 51 939 57 972 46 958 z m 500 1088 b 532 1085 506 1076 513 1076 l 756 1178 b 764 1207 767 1182 769 1196 l 739 1257 b 703 1261 732 1269 711 1267 l 494 1144 b 486 1118 486 1140 481 1129 z "},"Ŵ":{"ha":1253,"x_min":0,"x_max":0,"o":"m 314 6 b 339 -14 317 -6 328 -14 l 361 -14 b 385 1 371 -14 381 -7 l 621 753 l 628 753 l 868 1 b 892 -14 872 -7 882 -14 l 914 -14 b 939 6 925 -14 936 -6 l 1201 939 b 1176 972 1207 958 1196 972 l 1118 972 b 1093 953 1107 972 1096 963 l 904 233 l 899 233 l 663 971 b 639 986 660 979 650 986 l 614 986 b 590 971 601 986 593 979 l 358 233 l 353 233 l 160 953 b 135 972 157 963 146 972 l 76 972 b 51 939 57 972 46 958 z m 451 1076 b 483 1074 458 1067 467 1063 l 625 1168 l 767 1071 b 818 1101 794 1051 806 1085 b 810 1128 825 1111 818 1122 l 643 1258 b 625 1264 638 1263 633 1264 b 607 1258 619 1264 613 1263 l 440 1128 b 432 1101 432 1122 425 1111 z "},"Ẅ":{"ha":1253,"x_min":0,"x_max":0,"o":"m 314 6 b 339 -14 317 -6 328 -14 l 361 -14 b 385 1 371 -14 381 -7 l 621 753 l 628 753 l 868 1 b 892 -14 872 -7 882 -14 l 914 -14 b 939 6 925 -14 936 -6 l 1201 939 b 1176 972 1207 958 1196 972 l 1118 972 b 1093 953 1107 972 1096 963 l 904 233 l 899 233 l 663 971 b 639 986 660 979 650 986 l 614 986 b 590 971 601 986 593 979 l 358 233 l 353 233 l 160 953 b 135 972 157 963 146 972 l 76 972 b 51 939 57 972 46 958 z m 771 1100 b 838 1165 808 1100 838 1129 b 771 1232 838 1203 808 1232 b 706 1165 735 1232 706 1203 b 771 1100 706 1129 735 1100 z m 478 1100 b 544 1165 515 1100 544 1129 b 478 1232 544 1203 515 1232 b 413 1165 442 1232 413 1203 b 478 1100 413 1129 442 1100 z "},"Ẁ":{"ha":1253,"x_min":0,"x_max":0,"o":"m 314 6 b 339 -14 317 -6 328 -14 l 361 -14 b 385 1 371 -14 381 -7 l 621 753 l 628 753 l 868 1 b 892 -14 872 -7 882 -14 l 914 -14 b 939 6 925 -14 936 -6 l 1201 939 b 1176 972 1207 958 1196 972 l 1118 972 b 1093 953 1107 972 1096 963 l 904 233 l 899 233 l 663 971 b 639 986 660 979 650 986 l 614 986 b 590 971 601 986 593 979 l 358 233 l 353 233 l 160 953 b 135 972 157 963 146 972 l 76 972 b 51 939 57 972 46 958 z m 718 1085 b 750 1088 738 1076 744 1076 l 764 1118 b 756 1144 769 1129 764 1140 l 547 1261 b 511 1257 539 1267 518 1269 l 486 1207 b 494 1178 481 1196 483 1182 z "},"Ý":{"ha":785,"x_min":0,"x_max":0,"o":"m 338 26 b 364 0 338 13 349 0 l 418 0 b 444 26 432 0 444 13 l 444 469 l 783 932 b 761 972 794 950 783 972 l 696 972 b 674 960 686 972 678 965 l 393 572 l 113 960 b 90 972 108 965 100 972 l 25 972 b 3 932 3 972 -8 950 l 338 468 z m 268 1088 b 300 1085 274 1076 281 1076 l 524 1178 b 532 1207 535 1182 538 1196 l 507 1257 b 471 1261 500 1269 479 1267 l 263 1144 b 254 1118 254 1140 249 1129 z "},"Ŷ":{"ha":785,"x_min":0,"x_max":0,"o":"m 338 26 b 364 0 338 13 349 0 l 418 0 b 444 26 432 0 444 13 l 444 469 l 783 932 b 761 972 794 950 783 972 l 696 972 b 674 960 686 972 678 965 l 393 572 l 113 960 b 90 972 108 965 100 972 l 25 972 b 3 932 3 972 -8 950 l 338 468 z m 219 1076 b 251 1074 226 1067 235 1063 l 393 1168 l 535 1071 b 586 1101 563 1051 574 1085 b 578 1128 593 1111 586 1122 l 411 1258 b 393 1264 406 1263 401 1264 b 375 1258 388 1264 381 1263 l 208 1128 b 200 1101 200 1122 193 1111 z "},"Ÿ":{"ha":785,"x_min":0,"x_max":0,"o":"m 338 26 b 364 0 338 13 349 0 l 418 0 b 444 26 432 0 444 13 l 444 469 l 783 932 b 761 972 794 950 783 972 l 696 972 b 674 960 686 972 678 965 l 393 572 l 113 960 b 90 972 108 965 100 972 l 25 972 b 3 932 3 972 -8 950 l 338 468 z m 539 1100 b 606 1165 576 1100 606 1129 b 539 1232 606 1203 576 1232 b 474 1165 503 1232 474 1203 b 539 1100 474 1129 503 1100 z m 246 1100 b 313 1165 283 1100 313 1129 b 246 1232 313 1203 283 1232 b 181 1165 210 1232 181 1203 b 246 1100 181 1129 210 1100 z "},"Ỳ":{"ha":785,"x_min":0,"x_max":0,"o":"m 338 26 b 364 0 338 13 349 0 l 418 0 b 444 26 432 0 444 13 l 444 469 l 783 932 b 761 972 794 950 783 972 l 696 972 b 674 960 686 972 678 965 l 393 572 l 113 960 b 90 972 108 965 100 972 l 25 972 b 3 932 3 972 -8 950 l 338 468 z m 486 1085 b 518 1088 506 1076 513 1076 l 532 1118 b 524 1144 538 1129 532 1140 l 315 1261 b 279 1257 307 1267 286 1269 l 254 1207 b 263 1178 249 1196 251 1182 z "},"Ź":{"ha":742,"x_min":0,"x_max":0,"o":"m 42 26 b 68 0 42 13 54 0 l 643 0 b 669 26 658 0 669 13 l 669 71 b 643 97 669 85 658 97 l 185 97 l 185 99 l 697 928 l 697 946 b 671 972 697 960 685 972 l 108 972 b 82 946 94 972 82 960 l 82 901 b 108 875 82 888 94 875 l 546 875 l 546 871 l 42 51 z m 285 1088 b 317 1085 290 1076 297 1076 l 540 1178 b 549 1207 551 1182 554 1196 l 524 1257 b 488 1261 517 1269 496 1267 l 279 1144 b 271 1118 271 1140 265 1129 z "},"Ž":{"ha":742,"x_min":0,"x_max":0,"o":"m 42 26 b 68 0 42 13 54 0 l 643 0 b 669 26 658 0 669 13 l 669 71 b 643 97 669 85 658 97 l 185 97 l 185 99 l 697 928 l 697 946 b 671 972 697 960 685 972 l 108 972 b 82 946 94 972 82 960 l 82 901 b 108 875 82 888 94 875 l 546 875 l 546 871 l 42 51 z m 396 1067 b 414 1072 404 1067 408 1068 l 563 1189 b 589 1229 574 1197 601 1213 l 569 1257 b 538 1260 563 1267 554 1271 l 396 1163 l 254 1257 b 222 1254 238 1268 229 1264 l 203 1229 b 211 1203 196 1219 203 1208 l 378 1072 b 396 1067 383 1068 390 1067 z "},"Ż":{"ha":742,"x_min":0,"x_max":0,"o":"m 42 26 b 68 0 42 13 54 0 l 643 0 b 669 26 658 0 669 13 l 669 71 b 643 97 669 85 658 97 l 185 97 l 185 99 l 697 928 l 697 946 b 671 972 697 960 685 972 l 108 972 b 82 946 94 972 82 960 l 82 901 b 108 875 82 888 94 875 l 546 875 l 546 871 l 42 51 z m 396 1106 b 475 1185 440 1106 475 1142 b 396 1264 475 1229 440 1264 b 317 1185 353 1264 317 1229 b 396 1106 317 1142 353 1106 z "},"à":{"ha":582,"x_min":0,"x_max":0,"o":"m 58 168 b 229 -14 58 57 132 -14 b 401 58 315 -14 372 29 l 413 21 b 436 0 417 8 421 0 l 463 0 b 489 26 476 0 489 13 l 489 335 b 313 569 489 497 454 569 b 119 533 208 569 128 538 b 104 503 107 528 99 519 l 115 468 b 142 454 119 456 128 449 b 308 485 167 464 232 485 b 399 335 388 485 400 438 b 281 353 399 335 340 353 b 58 168 138 353 58 274 z m 147 168 b 281 279 147 240 203 279 b 397 257 342 279 381 267 l 397 147 b 244 69 374 113 314 69 b 147 168 185 69 147 113 z m 401 776 b 433 779 421 768 428 768 l 447 810 b 439 836 453 821 447 832 l 231 953 b 194 949 222 958 201 961 l 169 899 b 178 869 164 888 167 874 z "},"á":{"ha":582,"x_min":0,"x_max":0,"o":"m 58 168 b 229 -14 58 57 132 -14 b 401 58 315 -14 372 29 l 413 21 b 436 0 417 8 421 0 l 463 0 b 489 26 476 0 489 13 l 489 335 b 313 569 489 497 454 569 b 119 533 208 569 128 538 b 104 503 107 528 99 519 l 115 468 b 142 454 119 456 128 449 b 308 485 167 464 232 485 b 399 335 388 485 400 438 b 281 353 399 335 340 353 b 58 168 138 353 58 274 z m 147 168 b 281 279 147 240 203 279 b 397 257 342 279 381 267 l 397 147 b 244 69 374 113 314 69 b 147 168 185 69 147 113 z m 172 779 b 204 776 178 768 185 768 l 428 869 b 436 899 439 874 442 888 l 411 949 b 375 953 404 961 383 958 l 167 836 b 158 810 158 832 153 821 z "},"â":{"ha":582,"x_min":0,"x_max":0,"o":"m 58 168 b 229 -14 58 57 132 -14 b 401 58 315 -14 372 29 l 413 21 b 436 0 417 8 421 0 l 463 0 b 489 26 476 0 489 13 l 489 335 b 313 569 489 497 454 569 b 119 533 208 569 128 538 b 104 503 107 528 99 519 l 115 468 b 142 454 119 456 128 449 b 308 485 167 464 232 485 b 399 335 388 485 400 438 b 281 353 399 335 340 353 b 58 168 138 353 58 274 z m 147 168 b 281 279 147 240 203 279 b 397 257 342 279 381 267 l 397 147 b 244 69 374 113 314 69 b 147 168 185 69 147 113 z m 113 771 b 144 768 119 761 128 757 l 286 863 l 428 765 b 479 796 456 746 467 779 b 471 822 486 806 479 817 l 304 953 b 286 958 299 957 294 958 b 268 953 281 958 274 957 l 101 822 b 93 796 93 817 86 806 z "},"ã":{"ha":582,"x_min":0,"x_max":0,"o":"m 58 168 b 229 -14 58 57 132 -14 b 401 58 315 -14 372 29 l 413 21 b 436 0 417 8 421 0 l 463 0 b 489 26 476 0 489 13 l 489 335 b 313 569 489 497 454 569 b 119 533 208 569 128 538 b 104 503 107 528 99 519 l 115 468 b 142 454 119 456 128 449 b 308 485 167 464 232 485 b 399 335 388 485 400 438 b 281 353 399 335 340 353 b 58 168 138 353 58 274 z m 147 168 b 281 279 147 240 203 279 b 397 257 342 279 381 267 l 397 147 b 244 69 374 113 314 69 b 147 168 185 69 147 113 z m 114 799 b 149 813 132 789 144 799 b 210 882 158 842 172 882 b 363 778 249 882 286 778 b 486 890 439 778 472 850 b 481 926 489 900 497 918 l 458 938 b 426 926 443 944 431 940 b 364 856 419 903 403 856 b 211 958 321 856 294 958 b 83 842 119 958 96 867 b 89 811 79 832 78 817 z "},"ä":{"ha":582,"x_min":0,"x_max":0,"o":"m 58 168 b 229 -14 58 57 132 -14 b 401 58 315 -14 372 29 l 413 21 b 436 0 417 8 421 0 l 463 0 b 489 26 476 0 489 13 l 489 335 b 313 569 489 497 454 569 b 119 533 208 569 128 538 b 104 503 107 528 99 519 l 115 468 b 142 454 119 456 128 449 b 308 485 167 464 232 485 b 399 335 388 485 400 438 b 281 353 399 335 340 353 b 58 168 138 353 58 274 z m 147 168 b 281 279 147 240 203 279 b 397 257 342 279 381 267 l 397 147 b 244 69 374 113 314 69 b 147 168 185 69 147 113 z m 438 813 b 504 878 475 813 504 842 b 438 944 504 915 475 944 b 372 878 401 944 372 915 b 438 813 372 842 401 813 z m 169 813 b 236 878 207 813 236 842 b 169 944 236 915 207 944 b 104 878 133 944 104 915 b 169 813 104 842 133 813 z "},"ā":{"ha":582,"x_min":0,"x_max":0,"o":"m 58 168 b 229 -14 58 57 132 -14 b 401 58 315 -14 372 29 l 413 21 b 436 0 417 8 421 0 l 463 0 b 489 26 476 0 489 13 l 489 335 b 313 569 489 497 454 569 b 119 533 208 569 128 538 b 104 503 107 528 99 519 l 115 468 b 142 454 119 456 128 449 b 308 485 167 464 232 485 b 399 335 388 485 400 438 b 281 353 399 335 340 353 b 58 168 138 353 58 274 z m 147 168 b 281 279 147 240 203 279 b 397 257 342 279 381 267 l 397 147 b 244 69 374 113 314 69 b 147 168 185 69 147 113 z m 107 810 l 463 810 b 489 835 478 810 489 821 l 489 864 b 463 890 489 879 478 890 l 107 890 b 81 864 92 890 81 879 l 81 835 b 107 810 81 821 92 810 z "},"ă":{"ha":582,"x_min":0,"x_max":0,"o":"m 58 168 b 229 -14 58 57 132 -14 b 401 58 315 -14 372 29 l 413 21 b 436 0 417 8 421 0 l 463 0 b 489 26 476 0 489 13 l 489 335 b 313 569 489 497 454 569 b 119 533 208 569 128 538 b 104 503 107 528 99 519 l 115 468 b 142 454 119 456 128 449 b 308 485 167 464 232 485 b 399 335 388 485 400 438 b 281 353 399 335 340 353 b 58 168 138 353 58 274 z m 147 168 b 281 279 147 240 203 279 b 397 257 342 279 381 267 l 397 147 b 244 69 374 113 314 69 b 147 168 185 69 147 113 z m 300 738 b 488 896 396 738 472 806 b 468 924 490 911 483 924 l 436 924 b 410 900 424 924 415 915 b 300 811 394 851 351 811 b 188 900 244 811 203 847 b 161 924 183 913 176 924 l 132 924 b 113 896 115 924 110 911 b 300 738 125 806 203 738 z "},"å":{"ha":582,"x_min":0,"x_max":0,"o":"m 58 168 b 229 -14 58 57 132 -14 b 401 58 315 -14 372 29 l 413 21 b 436 0 417 8 421 0 l 463 0 b 489 26 476 0 489 13 l 489 335 b 313 569 489 497 454 569 b 119 533 208 569 128 538 b 104 503 107 528 99 519 l 115 468 b 142 454 119 456 128 449 b 308 485 167 464 232 485 b 399 335 388 485 400 438 b 281 353 399 335 340 353 b 58 168 138 353 58 274 z m 147 168 b 281 279 147 240 203 279 b 397 257 342 279 381 267 l 397 147 b 244 69 374 113 314 69 b 147 168 185 69 147 113 z m 288 683 b 439 835 371 683 439 750 b 288 986 439 919 371 986 b 136 835 203 986 136 919 b 288 683 136 750 203 683 z m 288 750 b 203 835 243 750 203 790 b 288 917 203 879 243 917 b 369 835 332 917 369 879 b 288 750 369 790 332 750 z "},"ǻ":{"ha":582,"x_min":0,"x_max":0,"o":"m 58 168 b 229 -14 58 57 132 -14 b 401 58 315 -14 372 29 l 413 21 b 436 0 417 8 421 0 l 463 0 b 489 26 476 0 489 13 l 489 335 b 313 569 489 497 454 569 b 119 533 208 569 128 538 b 104 503 107 528 99 519 l 115 468 b 142 454 119 456 128 449 b 308 485 167 464 232 485 b 399 335 388 485 400 438 b 281 353 399 335 340 353 b 58 168 138 353 58 274 z m 147 168 b 281 279 147 240 203 279 b 397 257 342 279 381 267 l 397 147 b 244 69 374 113 314 69 b 147 168 185 69 147 113 z m 282 606 b 433 757 365 606 433 672 b 282 908 433 842 365 908 b 131 757 197 908 131 842 b 282 606 131 672 197 606 z m 282 672 b 197 757 238 672 197 713 b 282 839 197 801 238 839 b 364 757 326 839 364 801 b 282 672 364 713 326 672 z m 151 924 b 183 921 157 913 164 913 l 407 1014 b 415 1043 418 1018 421 1032 l 390 1093 b 354 1097 383 1106 363 1103 l 146 981 b 138 954 138 976 132 965 z "},"ą":{"ha":583,"x_min":0,"x_max":0,"o":"m 58 168 b 229 -14 58 57 132 -14 b 401 58 315 -14 372 29 l 414 15 b 318 -151 414 15 318 -46 b 465 -293 318 -249 388 -293 b 563 -272 511 -293 549 -279 b 582 -249 572 -267 582 -261 l 582 -214 b 557 -194 582 -196 568 -189 b 481 -217 539 -204 515 -217 b 401 -137 439 -217 401 -183 b 468 0 401 -71 444 -21 b 489 26 479 3 489 14 l 489 317 b 315 569 489 443 496 569 b 119 533 199 569 128 538 b 104 503 107 528 100 519 l 114 475 b 143 456 118 461 129 451 b 307 489 168 464 229 489 b 399 335 385 489 400 438 b 281 353 399 335 340 353 b 58 168 138 353 58 274 z m 147 168 b 281 279 147 240 203 279 b 397 257 342 279 381 267 l 397 147 b 244 69 374 113 314 69 b 147 168 185 69 147 113 z "},"æ":{"ha":958,"x_min":0,"x_max":0,"o":"m 60 172 b 242 -14 60 60 133 -14 b 444 85 331 -14 407 36 b 654 -14 493 19 564 -14 b 858 50 750 -14 824 24 b 864 86 879 65 874 74 l 840 118 b 801 115 829 133 821 126 b 664 76 769 96 722 76 b 489 169 589 76 522 111 l 489 254 l 878 254 b 906 315 904 254 906 288 b 656 569 906 468 794 569 b 469 493 582 569 517 539 b 318 569 450 540 413 569 b 124 536 213 569 124 536 b 101 508 108 532 99 522 l 108 474 b 138 454 111 460 124 450 b 314 488 163 463 228 488 b 392 343 383 488 393 447 b 265 351 392 343 339 351 b 60 172 136 351 60 276 z m 492 333 l 492 390 b 654 483 521 442 586 483 b 811 333 739 483 807 419 z m 147 169 b 279 276 147 239 210 276 b 394 264 354 276 394 264 l 394 140 b 260 69 371 106 318 69 b 147 169 203 69 147 99 z "},"ǽ":{"ha":958,"x_min":0,"x_max":0,"o":"m 60 172 b 242 -14 60 60 133 -14 b 444 85 331 -14 407 36 b 654 -14 493 19 564 -14 b 858 50 750 -14 824 24 b 864 86 879 65 874 74 l 840 118 b 801 115 829 133 821 126 b 664 76 769 96 722 76 b 489 169 589 76 522 111 l 489 254 l 878 254 b 906 315 904 254 906 288 b 656 569 906 468 794 569 b 469 493 582 569 517 539 b 318 569 450 540 413 569 b 124 536 213 569 124 536 b 101 508 108 532 99 522 l 108 474 b 138 454 111 460 124 450 b 314 488 163 463 228 488 b 392 343 383 488 393 447 b 265 351 392 343 339 351 b 60 172 136 351 60 276 z m 492 333 l 492 390 b 654 483 521 442 586 483 b 811 333 739 483 807 419 z m 147 169 b 279 276 147 239 210 276 b 394 264 354 276 394 264 l 394 140 b 260 69 371 106 318 69 b 147 169 203 69 147 99 z m 408 779 b 440 776 414 768 421 768 l 664 869 b 672 899 675 874 678 888 l 647 949 b 611 953 640 961 619 958 l 403 836 b 394 810 394 832 389 821 z "},"ć":{"ha":613,"x_min":0,"x_max":0,"o":"m 57 276 b 342 -14 57 110 188 -14 b 554 103 436 -14 513 36 b 544 142 563 117 558 132 l 529 153 b 488 150 514 164 504 167 b 340 78 456 119 424 78 b 157 278 236 78 157 167 b 342 475 157 389 238 475 b 469 417 396 475 442 449 b 510 411 482 406 489 392 l 536 433 b 542 472 549 443 551 460 b 343 569 492 536 426 569 b 57 276 192 569 57 440 z m 218 779 b 250 776 224 768 231 768 l 474 869 b 482 899 485 874 488 888 l 457 949 b 421 953 450 961 429 958 l 213 836 b 204 810 204 832 199 821 z "},"ĉ":{"ha":613,"x_min":0,"x_max":0,"o":"m 57 276 b 342 -14 57 110 188 -14 b 554 103 436 -14 513 36 b 544 142 563 117 558 132 l 529 153 b 488 150 514 164 504 167 b 340 78 456 119 424 78 b 157 278 236 78 157 167 b 342 475 157 389 238 475 b 469 417 396 475 442 449 b 510 411 482 406 489 392 l 536 433 b 542 472 549 443 551 460 b 343 569 492 536 426 569 b 57 276 192 569 57 440 z m 167 771 b 199 768 174 761 182 757 l 340 863 l 482 765 b 533 796 510 746 521 779 b 525 822 540 806 533 817 l 358 953 b 340 958 353 957 349 958 b 322 953 335 958 328 957 l 156 822 b 147 796 147 817 140 806 z "},"č":{"ha":613,"x_min":0,"x_max":0,"o":"m 57 276 b 342 -14 57 110 188 -14 b 554 103 436 -14 513 36 b 544 142 563 117 558 132 l 529 153 b 488 150 514 164 504 167 b 340 78 456 119 424 78 b 157 278 236 78 157 167 b 342 475 157 389 238 475 b 469 417 396 475 442 449 b 510 411 482 406 489 392 l 536 433 b 542 472 549 443 551 460 b 343 569 492 536 426 569 b 57 276 192 569 57 440 z m 322 758 b 340 753 328 754 335 753 b 358 758 349 753 353 754 l 507 875 b 533 915 518 883 546 899 l 514 943 b 482 946 507 953 499 957 l 340 849 l 199 943 b 167 940 182 954 174 950 l 147 915 b 156 889 140 906 147 894 z "},"ċ":{"ha":613,"x_min":0,"x_max":0,"o":"m 57 276 b 342 -14 57 110 188 -14 b 554 103 436 -14 513 36 b 544 142 563 117 558 132 l 529 153 b 488 150 514 164 504 167 b 340 78 456 119 424 78 b 157 278 236 78 157 167 b 342 475 157 389 238 475 b 469 417 396 475 442 449 b 510 411 482 406 489 392 l 536 433 b 542 472 549 443 551 460 b 343 569 492 536 426 569 b 57 276 192 569 57 440 z m 340 786 b 419 865 385 786 419 822 b 340 944 419 910 385 944 b 261 865 297 944 261 910 b 340 786 261 822 297 786 z "},"ç":{"ha":615,"x_min":0,"x_max":0,"o":"m 58 276 b 289 -8 58 129 160 15 l 289 -106 b 313 -133 289 -112 292 -129 b 428 -221 360 -142 428 -157 b 367 -286 428 -258 404 -286 b 310 -261 350 -286 326 -279 b 278 -261 303 -253 288 -254 l 258 -276 b 258 -312 249 -283 247 -300 b 364 -361 282 -340 322 -361 b 510 -217 446 -361 510 -297 b 364 -74 510 -136 449 -85 l 364 -12 b 556 103 449 -6 517 40 b 546 142 564 117 560 132 l 531 153 b 489 150 515 164 506 167 b 342 78 457 119 425 78 b 158 278 238 78 158 167 b 343 475 158 389 239 475 b 471 417 397 475 443 449 b 511 411 483 406 490 392 l 538 433 b 543 472 550 443 553 460 b 344 569 493 536 428 569 b 58 276 193 569 58 440 z "},"ď":{"ha":711,"x_min":0,"x_max":0,"o":"m 58 279 b 311 -14 58 119 169 -14 b 482 60 415 -14 482 60 l 490 22 b 514 0 493 10 501 0 l 543 0 b 569 26 557 0 569 13 l 569 946 b 543 972 569 960 557 972 l 500 972 b 474 946 486 972 474 960 l 474 533 b 325 569 474 533 417 569 b 58 279 158 569 58 442 z m 156 278 b 338 476 156 389 217 476 b 472 443 414 476 472 443 l 472 165 b 321 74 472 165 421 74 b 156 278 219 74 156 169 z m 732 603 b 765 606 740 594 751 593 b 882 863 810 647 882 747 b 790 988 882 963 835 988 b 711 908 747 988 711 953 b 790 829 711 865 747 829 b 807 831 796 829 801 829 b 721 656 807 729 735 668 b 713 622 707 643 706 629 z "},"đ":{"ha":669,"x_min":0,"x_max":0,"o":"m 58 279 b 311 -14 58 119 169 -14 b 482 60 415 -14 482 60 l 490 22 b 514 0 493 10 501 0 l 543 0 b 569 26 557 0 569 13 l 569 744 l 615 744 b 640 771 629 744 640 757 l 640 781 b 615 807 640 794 629 807 l 569 807 l 569 946 b 543 972 569 960 557 972 l 500 972 b 474 946 486 972 474 960 l 474 807 l 258 807 b 232 781 243 807 232 794 l 232 769 b 258 744 232 756 243 744 l 474 744 l 474 533 b 325 569 474 533 417 569 b 58 279 158 569 58 442 z m 156 278 b 338 476 156 389 217 476 b 472 443 414 476 472 443 l 472 165 b 321 74 472 165 421 74 b 156 278 219 74 156 169 z "},"ð":{"ha":756,"x_min":0,"x_max":0,"o":"m 57 304 b 364 -14 57 129 183 -14 b 688 382 589 -14 688 161 b 476 832 688 592 586 736 l 551 875 b 561 910 564 883 568 899 l 556 919 b 519 929 549 932 533 938 l 422 874 b 231 976 344 929 271 961 b 203 967 218 981 207 976 l 185 929 b 196 896 176 913 179 903 b 333 822 219 886 263 867 l 222 758 b 214 724 210 751 207 735 l 219 714 b 254 704 225 703 242 697 l 389 782 b 567 543 467 721 542 638 b 356 606 567 543 475 606 b 57 304 199 606 57 489 z m 156 299 b 365 515 156 419 249 515 b 585 425 494 515 585 425 b 364 78 608 286 554 78 b 156 299 247 78 156 179 z "},"è":{"ha":635,"x_min":0,"x_max":0,"o":"m 58 278 b 331 -14 58 118 163 -14 b 535 50 426 -14 501 24 b 540 86 556 65 550 74 b 517 118 532 97 525 107 b 478 115 506 133 497 126 b 340 74 446 96 399 74 b 154 254 242 74 160 161 l 554 254 b 579 278 567 254 578 264 b 582 315 581 288 582 306 b 331 569 582 461 476 569 b 58 278 163 569 58 435 z m 156 332 b 331 485 165 418 238 485 b 486 332 415 485 482 413 z m 422 776 b 454 779 442 768 449 768 l 468 810 b 460 836 474 821 468 832 l 251 953 b 215 949 243 958 222 961 l 190 899 b 199 869 185 888 188 874 z "},"é":{"ha":635,"x_min":0,"x_max":0,"o":"m 58 278 b 331 -14 58 118 163 -14 b 535 50 426 -14 501 24 b 540 86 556 65 550 74 b 517 118 532 97 525 107 b 478 115 506 133 497 126 b 340 74 446 96 399 74 b 154 254 242 74 160 161 l 554 254 b 579 278 567 254 578 264 b 582 315 581 288 582 306 b 331 569 582 461 476 569 b 58 278 163 569 58 435 z m 156 332 b 331 485 165 418 238 485 b 486 332 415 485 482 413 z m 200 779 b 232 776 206 768 213 768 l 456 869 b 464 899 467 874 469 888 l 439 949 b 403 953 432 961 411 958 l 194 836 b 186 810 186 832 181 821 z "},"ê":{"ha":635,"x_min":0,"x_max":0,"o":"m 58 278 b 331 -14 58 118 163 -14 b 535 50 426 -14 501 24 b 540 86 556 65 550 74 b 517 118 532 97 525 107 b 478 115 506 133 497 126 b 340 74 446 96 399 74 b 154 254 242 74 160 161 l 554 254 b 579 278 567 254 578 264 b 582 315 581 288 582 306 b 331 569 582 461 476 569 b 58 278 163 569 58 435 z m 156 332 b 331 485 165 418 238 485 b 486 332 415 485 482 413 z m 160 771 b 192 768 167 761 175 757 l 333 863 l 475 765 b 526 796 503 746 514 779 b 518 822 533 806 526 817 l 351 953 b 333 958 346 957 342 958 b 315 953 328 958 321 957 l 149 822 b 140 796 140 817 133 806 z "},"ě":{"ha":635,"x_min":0,"x_max":0,"o":"m 58 278 b 331 -14 58 118 163 -14 b 535 50 426 -14 501 24 b 540 86 556 65 550 74 b 517 118 532 97 525 107 b 478 115 506 133 497 126 b 340 74 446 96 399 74 b 154 254 242 74 160 161 l 554 254 b 579 278 567 254 578 264 b 582 315 581 288 582 306 b 331 569 582 461 476 569 b 58 278 163 569 58 435 z m 156 332 b 331 485 165 418 238 485 b 486 332 415 485 482 413 z m 310 758 b 328 753 315 754 322 753 b 346 758 336 753 340 754 l 494 875 b 521 915 506 883 533 899 l 501 943 b 469 946 494 953 486 957 l 328 849 l 186 943 b 154 940 169 954 161 950 l 135 915 b 143 889 128 906 135 894 z "},"ë":{"ha":635,"x_min":0,"x_max":0,"o":"m 58 278 b 331 -14 58 118 163 -14 b 535 50 426 -14 501 24 b 540 86 556 65 550 74 b 517 118 532 97 525 107 b 478 115 506 133 497 126 b 340 74 446 96 399 74 b 154 254 242 74 160 161 l 554 254 b 579 278 567 254 578 264 b 582 315 581 288 582 306 b 331 569 582 461 476 569 b 58 278 163 569 58 435 z m 156 332 b 331 485 165 418 238 485 b 486 332 415 485 482 413 z m 463 813 b 529 878 500 813 529 842 b 463 944 529 915 500 944 b 397 878 426 944 397 915 b 463 813 397 842 426 813 z m 194 813 b 261 878 232 813 261 842 b 194 944 261 915 232 944 b 129 878 158 944 129 915 b 194 813 129 842 158 813 z "},"ē":{"ha":635,"x_min":0,"x_max":0,"o":"m 58 278 b 331 -14 58 118 163 -14 b 535 50 426 -14 501 24 b 540 86 556 65 550 74 b 517 118 532 97 525 107 b 478 115 506 133 497 126 b 340 74 446 96 399 74 b 154 254 242 74 160 161 l 554 254 b 579 278 567 254 578 264 b 582 315 581 288 582 306 b 331 569 582 461 476 569 b 58 278 163 569 58 435 z m 156 332 b 331 485 165 418 238 485 b 486 332 415 485 482 413 z m 150 810 l 506 810 b 532 835 521 810 532 821 l 532 864 b 506 890 532 879 521 890 l 150 890 b 124 864 135 890 124 879 l 124 835 b 150 810 124 821 135 810 z "},"ĕ":{"ha":635,"x_min":0,"x_max":0,"o":"m 58 278 b 331 -14 58 118 163 -14 b 535 50 426 -14 501 24 b 540 86 556 65 550 74 b 517 118 532 97 525 107 b 478 115 506 133 497 126 b 340 74 446 96 399 74 b 154 254 242 74 160 161 l 554 254 b 579 278 567 254 578 264 b 582 315 581 288 582 306 b 331 569 582 461 476 569 b 58 278 163 569 58 435 z m 156 332 b 331 485 165 418 238 485 b 486 332 415 485 482 413 z m 329 738 b 517 896 425 738 501 806 b 497 924 519 911 513 924 l 465 924 b 439 900 453 924 444 915 b 329 811 424 851 381 811 b 217 900 274 811 232 847 b 190 924 213 913 206 924 l 161 924 b 142 896 144 924 139 911 b 329 738 154 806 232 738 z "},"ė":{"ha":635,"x_min":0,"x_max":0,"o":"m 58 278 b 331 -14 58 118 163 -14 b 535 50 426 -14 501 24 b 540 86 556 65 550 74 b 517 118 532 97 525 107 b 478 115 506 133 497 126 b 340 74 446 96 399 74 b 154 254 242 74 160 161 l 554 254 b 579 278 567 254 578 264 b 582 315 581 288 582 306 b 331 569 582 461 476 569 b 58 278 163 569 58 435 z m 156 332 b 331 485 165 418 238 485 b 486 332 415 485 482 413 z m 333 786 b 413 865 378 786 413 822 b 333 944 413 910 378 944 b 254 865 290 944 254 910 b 333 786 254 822 290 786 z "},"ę":{"ha":638,"x_min":0,"x_max":0,"o":"m 232 -151 b 379 -293 232 -249 301 -293 b 476 -272 425 -293 463 -279 b 496 -249 486 -267 496 -261 l 496 -214 b 471 -194 496 -196 482 -189 b 394 -217 453 -204 429 -217 b 315 -137 353 -217 315 -183 b 369 -12 315 -82 344 -39 b 536 50 447 -4 507 26 b 542 86 557 65 551 74 l 518 118 b 479 115 507 133 499 126 b 342 74 447 96 400 74 b 156 254 243 74 161 161 l 556 254 b 581 278 568 254 579 264 b 583 315 582 288 583 306 b 332 569 583 461 478 569 b 60 278 164 569 60 435 b 294 -11 60 129 149 6 b 232 -151 267 -39 232 -86 z m 157 332 b 332 485 167 418 239 485 b 488 332 417 485 483 413 z "},"ĝ":{"ha":638,"x_min":0,"x_max":0,"o":"m 43 26 b 144 -106 43 -60 108 -96 l 144 -110 b 64 -239 131 -118 64 -156 b 331 -431 64 -331 144 -431 b 618 -206 499 -431 618 -321 b 410 -28 618 -85 526 -28 l 210 -28 b 133 40 158 -28 133 6 b 194 124 133 96 194 124 b 326 89 194 124 238 89 b 560 325 469 89 560 199 b 497 481 560 435 497 481 l 572 496 b 588 519 582 497 588 510 l 588 543 b 561 569 588 558 576 569 l 326 569 b 92 325 182 569 92 454 b 136 186 92 243 136 186 b 43 26 136 186 43 132 z m 328 172 b 182 328 243 172 182 236 b 328 483 182 419 243 483 b 467 328 411 483 467 419 b 328 172 467 236 411 172 z m 163 -225 b 256 -118 163 -143 256 -118 b 410 -118 307 -118 358 -118 b 515 -208 507 -118 515 -190 b 329 -340 515 -289 421 -340 b 163 -225 235 -340 163 -292 z m 172 771 b 204 768 179 761 188 757 l 346 863 l 488 765 b 539 796 515 746 526 779 b 531 822 546 806 539 817 l 364 953 b 346 958 358 957 354 958 b 328 953 340 958 333 957 l 161 822 b 153 796 153 817 146 806 z "},"ğ":{"ha":638,"x_min":0,"x_max":0,"o":"m 43 26 b 144 -106 43 -60 108 -96 l 144 -110 b 64 -239 131 -118 64 -156 b 331 -431 64 -331 144 -431 b 618 -206 499 -431 618 -321 b 410 -28 618 -85 526 -28 l 210 -28 b 133 40 158 -28 133 6 b 194 124 133 96 194 124 b 326 89 194 124 238 89 b 560 325 469 89 560 199 b 497 481 560 435 497 481 l 572 496 b 588 519 582 497 588 510 l 588 543 b 561 569 588 558 576 569 l 326 569 b 92 325 182 569 92 454 b 136 186 92 243 136 186 b 43 26 136 186 43 132 z m 328 172 b 182 328 243 172 182 236 b 328 483 182 419 243 483 b 467 328 411 483 467 419 b 328 172 467 236 411 172 z m 163 -225 b 256 -118 163 -143 256 -118 b 410 -118 307 -118 358 -118 b 515 -208 507 -118 515 -190 b 329 -340 515 -289 421 -340 b 163 -225 235 -340 163 -292 z m 347 738 b 535 896 443 738 519 806 b 515 924 538 911 531 924 l 483 924 b 457 900 471 924 463 915 b 347 811 442 851 399 811 b 235 900 292 811 250 847 b 208 924 231 913 224 924 l 179 924 b 160 896 163 924 157 911 b 347 738 172 806 250 738 z "},"ġ":{"ha":638,"x_min":0,"x_max":0,"o":"m 43 26 b 144 -106 43 -60 108 -96 l 144 -110 b 64 -239 131 -118 64 -156 b 331 -431 64 -331 144 -431 b 618 -206 499 -431 618 -321 b 410 -28 618 -85 526 -28 l 210 -28 b 133 40 158 -28 133 6 b 194 124 133 96 194 124 b 326 89 194 124 238 89 b 560 325 469 89 560 199 b 497 481 560 435 497 481 l 572 496 b 588 519 582 497 588 510 l 588 543 b 561 569 588 558 576 569 l 326 569 b 92 325 182 569 92 454 b 136 186 92 243 136 186 b 43 26 136 186 43 132 z m 328 172 b 182 328 243 172 182 236 b 328 483 182 419 243 483 b 467 328 411 483 467 419 b 328 172 467 236 411 172 z m 163 -225 b 256 -118 163 -143 256 -118 b 410 -118 307 -118 358 -118 b 515 -208 507 -118 515 -190 b 329 -340 515 -289 421 -340 b 163 -225 235 -340 163 -292 z m 344 786 b 424 865 389 786 424 822 b 344 944 424 910 389 944 b 265 865 301 944 265 910 b 344 786 265 822 301 786 z "},"ģ":{"ha":638,"x_min":0,"x_max":0,"o":"m 358 736 b 438 815 401 736 438 771 b 358 894 438 858 401 894 b 342 893 353 894 347 894 b 428 1068 342 994 414 1056 b 436 1101 442 1081 443 1094 l 417 1121 b 383 1118 408 1129 397 1131 b 267 861 339 1076 267 976 b 358 736 267 761 314 736 z m 43 26 b 144 -106 43 -60 108 -96 l 144 -110 b 64 -239 131 -118 64 -156 b 331 -431 64 -331 144 -431 b 618 -206 499 -431 618 -321 b 410 -28 618 -85 526 -28 l 210 -28 b 133 40 158 -28 133 6 b 194 124 133 96 194 124 b 326 89 194 124 238 89 b 560 325 469 89 560 199 b 497 481 560 435 497 481 l 572 496 b 588 519 582 497 588 510 l 588 543 b 561 569 588 558 576 569 l 326 569 b 92 325 182 569 92 454 b 136 186 92 243 136 186 b 43 26 136 186 43 132 z m 328 172 b 182 328 243 172 182 236 b 328 483 182 419 243 483 b 467 328 411 483 467 419 b 328 172 467 236 411 172 z m 163 -225 b 256 -118 163 -143 256 -118 b 410 -118 307 -118 358 -118 b 515 -208 507 -118 515 -190 b 329 -340 515 -289 421 -340 b 163 -225 235 -340 163 -292 z "},"ĥ":{"ha":689,"x_min":0,"x_max":0,"o":"m 100 26 b 126 0 100 13 113 0 l 169 0 b 196 26 183 0 196 13 l 196 399 b 375 476 196 399 269 476 b 500 319 453 476 500 425 l 500 26 b 526 0 500 13 513 0 l 571 0 b 597 26 585 0 597 13 l 597 319 b 382 569 597 482 519 569 b 196 496 269 569 196 496 l 196 946 b 169 972 196 960 183 972 l 126 972 b 100 946 113 972 100 960 z m -26 1072 b 6 1069 -19 1063 -11 1058 l 147 1164 l 289 1067 b 340 1097 317 1047 328 1081 b 332 1124 347 1107 340 1118 l 165 1254 b 147 1260 160 1258 156 1260 b 129 1254 142 1260 135 1258 l -37 1124 b -46 1097 -46 1118 -53 1107 z "},"ħ":{"ha":689,"x_min":0,"x_max":0,"o":"m 100 26 b 126 0 100 13 113 0 l 169 0 b 196 26 183 0 196 13 l 196 399 b 375 476 196 399 269 476 b 500 319 453 476 500 425 l 500 26 b 526 0 500 13 513 0 l 571 0 b 597 26 585 0 597 13 l 597 315 b 382 569 597 467 540 569 b 196 496 269 569 196 496 l 196 744 l 411 744 b 438 769 426 744 438 756 l 438 781 b 411 807 438 794 426 807 l 196 807 l 196 946 b 169 972 196 960 183 972 l 126 972 b 100 946 113 972 100 960 l 100 807 l 54 807 b 29 781 40 807 29 794 l 29 771 b 54 744 29 757 40 744 l 100 744 z "},"ı":{"ha":293,"x_min":0,"x_max":0,"o":"m 99 26 b 125 0 99 13 111 0 l 168 0 b 194 26 182 0 194 13 l 194 529 b 168 556 194 543 182 556 l 125 556 b 99 529 111 556 99 543 z "},"ì":{"ha":293,"x_min":0,"x_max":0,"o":"m 99 26 b 125 0 99 13 111 0 l 168 0 b 194 26 182 0 194 13 l 194 529 b 168 556 194 543 182 556 l 125 556 b 99 529 111 556 99 543 z m 240 776 b 272 779 260 768 267 768 l 286 810 b 278 836 292 821 286 832 l 69 953 b 33 949 61 958 40 961 l 8 899 b 17 869 3 888 6 874 z "},"í":{"ha":293,"x_min":0,"x_max":0,"o":"m 99 26 b 125 0 99 13 111 0 l 168 0 b 194 26 182 0 194 13 l 194 529 b 168 556 194 543 182 556 l 125 556 b 99 529 111 556 99 543 z m 22 779 b 54 776 28 768 35 768 l 278 869 b 286 899 289 874 292 888 l 261 949 b 225 953 254 961 233 958 l 17 836 b 8 810 8 832 3 821 z "},"ĭ":{"ha":293,"x_min":0,"x_max":0,"o":"m 99 26 b 125 0 99 13 111 0 l 168 0 b 194 26 182 0 194 13 l 194 529 b 168 556 194 543 182 556 l 125 556 b 99 529 111 556 99 543 z m 150 738 b 338 896 246 738 322 806 b 318 924 340 911 333 924 l 286 924 b 260 900 274 924 265 915 b 150 811 244 851 201 811 b 38 900 94 811 53 847 b 11 924 33 913 26 924 l -18 924 b -37 896 -35 924 -40 911 b 150 738 -25 806 53 738 z "},"î":{"ha":293,"x_min":0,"x_max":0,"o":"m 99 26 b 125 0 99 13 111 0 l 168 0 b 194 26 182 0 194 13 l 194 529 b 168 556 194 543 182 556 l 125 556 b 99 529 111 556 99 543 z m -25 771 b 7 768 -18 761 -10 757 l 149 863 l 290 765 b 342 796 318 746 329 779 b 333 822 349 806 342 817 l 167 953 b 149 958 161 957 157 958 b 131 953 143 958 136 957 l -36 822 b -44 796 -44 817 -51 806 z "},"ĩ":{"ha":293,"x_min":0,"x_max":0,"o":"m 99 26 b 125 0 99 13 111 0 l 168 0 b 194 26 182 0 194 13 l 194 529 b 168 556 194 543 182 556 l 125 556 b 99 529 111 556 99 543 z m -25 799 b 10 813 -7 789 6 799 b 71 882 19 842 33 882 b 224 778 110 882 147 778 b 347 890 300 778 333 850 b 342 926 350 900 358 918 l 319 938 b 288 926 304 944 292 940 b 225 856 281 903 264 856 b 72 958 182 856 156 958 b -56 842 -19 958 -43 867 b -50 811 -60 832 -61 817 z "},"ï":{"ha":293,"x_min":0,"x_max":0,"o":"m 99 26 b 125 0 99 13 111 0 l 168 0 b 194 26 182 0 194 13 l 194 529 b 168 556 194 543 182 556 l 125 556 b 99 529 111 556 99 543 z m 281 813 b 347 878 318 813 347 842 b 281 944 347 915 318 944 b 215 878 244 944 215 915 b 281 813 215 842 244 813 z m 13 813 b 79 878 50 813 79 842 b 13 944 79 915 50 944 b -53 878 -24 944 -53 915 b 13 813 -53 842 -24 813 z "},"ī":{"ha":293,"x_min":0,"x_max":0,"o":"m 99 26 b 125 0 99 13 111 0 l 168 0 b 194 26 182 0 194 13 l 194 529 b 168 556 194 543 182 556 l 125 556 b 99 529 111 556 99 543 z m -28 810 l 328 810 b 354 835 343 810 354 821 l 354 864 b 328 890 354 879 343 890 l -28 890 b -54 864 -43 890 -54 879 l -54 835 b -28 810 -54 821 -43 810 z "},"į":{"ha":294,"x_min":0,"x_max":0,"o":"m 146 813 b 213 878 183 813 213 842 b 146 944 213 915 183 944 b 81 878 110 944 81 915 b 146 813 81 842 110 813 z m 100 26 b 107 8 100 19 103 13 b 21 -151 85 -8 21 -64 b 168 -293 21 -249 90 -293 b 265 -272 214 -293 251 -279 b 285 -249 275 -267 285 -261 l 285 -214 b 260 -194 285 -196 271 -189 b 183 -217 242 -204 218 -217 b 104 -137 142 -217 104 -183 b 169 0 104 -71 146 -22 b 196 26 183 0 196 13 l 196 529 b 169 556 196 543 183 556 l 126 556 b 100 529 113 556 100 543 z "},"ȷ":{"ha":296,"x_min":0,"x_max":0,"o":"m 100 -194 b -15 -344 100 -301 49 -344 b -117 -304 -50 -344 -99 -318 b -153 -306 -131 -293 -144 -292 l -175 -342 b -169 -374 -181 -351 -179 -365 b -17 -431 -144 -397 -93 -431 b 196 -194 103 -431 196 -356 l 196 529 b 169 556 196 544 183 556 l 126 556 b 100 529 113 556 100 544 z "},"ĵ":{"ha":296,"x_min":0,"x_max":0,"o":"m 100 -194 b -15 -344 100 -301 49 -344 b -117 -304 -50 -344 -99 -318 b -153 -306 -131 -293 -144 -292 l -175 -342 b -169 -374 -181 -351 -179 -365 b -17 -431 -144 -397 -93 -431 b 196 -194 103 -431 196 -356 l 196 529 b 169 556 196 544 183 556 l 126 556 b 100 529 113 556 100 544 z m -26 771 b 6 768 -19 761 -11 757 l 147 863 l 289 765 b 340 796 317 746 328 779 b 332 822 347 806 340 817 l 165 953 b 147 958 160 957 156 958 b 129 953 142 958 135 957 l -37 822 b -46 796 -46 817 -53 806 z "},"ķ":{"ha":621,"x_min":0,"x_max":0,"o":"m 99 26 b 125 0 99 13 111 0 l 168 0 b 194 26 182 0 194 13 l 194 279 l 476 11 b 504 0 482 7 492 0 l 581 0 b 594 35 604 0 606 25 l 288 310 l 551 521 b 539 556 561 529 563 556 l 464 556 b 431 539 453 556 442 549 l 194 344 l 194 946 b 168 972 194 960 182 972 l 125 972 b 99 946 111 972 99 960 z m 314 -128 b 235 -207 271 -128 235 -162 b 314 -286 235 -250 271 -286 b 331 -285 319 -286 325 -286 b 244 -460 331 -386 258 -447 b 236 -493 231 -472 229 -486 l 256 -512 b 289 -510 264 -521 275 -522 b 406 -253 333 -468 406 -368 b 314 -128 406 -153 358 -128 z "},"ĸ":{"ha":624,"x_min":0,"x_max":0,"o":"m 99 26 b 125 0 99 13 111 0 l 168 0 b 194 26 182 0 194 13 l 194 238 l 476 11 b 504 0 482 7 492 0 l 581 0 b 594 35 604 0 606 25 l 288 275 l 560 521 b 547 556 569 529 571 556 l 475 556 b 442 539 464 556 451 547 l 194 303 l 194 529 b 168 556 194 543 182 556 l 125 556 b 99 529 111 556 99 543 z "},"ĺ":{"ha":296,"x_min":0,"x_max":0,"o":"m 100 26 b 126 0 100 13 113 0 l 169 0 b 196 26 183 0 196 13 l 196 946 b 169 972 196 960 183 972 l 126 972 b 100 946 113 972 100 960 z m 25 1081 b 57 1078 31 1069 38 1069 l 281 1171 b 289 1200 292 1175 294 1189 l 264 1250 b 228 1254 257 1263 236 1260 l 19 1138 b 11 1111 11 1133 6 1122 z "},"ľ":{"ha":338,"x_min":0,"x_max":0,"o":"m 100 26 b 126 0 100 13 113 0 l 169 0 b 196 26 183 0 196 13 l 196 946 b 169 972 196 960 183 972 l 126 972 b 100 946 113 972 100 960 z m 358 603 b 392 606 367 594 378 593 b 508 863 436 647 508 747 b 417 988 508 963 461 988 b 338 908 374 988 338 953 b 417 829 338 865 374 829 b 433 831 422 829 428 829 b 347 656 433 729 361 668 b 339 622 333 643 332 629 z "},"ļ":{"ha":294,"x_min":0,"x_max":0,"o":"m 97 26 b 124 0 97 13 110 0 l 167 0 b 193 26 181 0 193 13 l 193 946 b 167 972 193 960 181 972 l 124 972 b 97 946 110 972 97 960 z m 143 -128 b 64 -207 100 -128 64 -162 b 143 -286 64 -250 100 -286 b 160 -285 149 -286 154 -286 b 74 -460 160 -386 88 -447 b 65 -493 60 -472 58 -486 l 85 -512 b 118 -510 93 -521 104 -522 b 235 -253 163 -468 235 -368 b 143 -128 235 -153 188 -128 z "},"ł":{"ha":331,"x_min":0,"x_max":0,"o":"m 122 26 b 149 0 122 13 135 0 l 192 0 b 218 26 206 0 218 13 l 218 503 l 372 592 b 382 628 385 600 389 615 l 378 636 b 342 646 371 647 356 654 l 218 574 l 218 946 b 192 972 218 960 206 972 l 149 972 b 122 946 135 972 122 960 l 122 518 l 21 461 b 13 425 8 453 6 436 l 17 417 b 51 407 24 404 40 400 l 122 447 z "},"ŀ":{"ha":453,"x_min":0,"x_max":0,"o":"m 100 26 b 126 0 100 13 113 0 l 169 0 b 196 26 183 0 196 13 l 196 946 b 169 972 196 960 183 972 l 126 972 b 100 946 113 972 100 960 z m 372 421 b 451 500 417 421 451 457 b 372 579 451 544 417 579 b 293 500 329 579 293 544 b 372 421 293 457 329 421 z "},"ń":{"ha":688,"x_min":0,"x_max":0,"o":"m 99 26 b 125 0 99 13 111 0 l 168 0 b 194 26 182 0 194 13 l 194 397 b 374 476 194 397 269 476 b 499 319 451 476 499 425 l 499 26 b 525 0 499 13 511 0 l 569 0 b 596 26 583 0 596 13 l 596 319 b 381 569 596 464 542 569 b 186 496 265 569 186 496 l 174 539 b 151 556 171 550 164 556 l 125 556 b 99 529 111 556 99 543 z m 235 779 b 267 776 240 768 247 768 l 490 869 b 499 899 501 874 504 888 l 474 949 b 438 953 467 961 446 958 l 229 836 b 221 810 221 832 215 821 z "},"ň":{"ha":688,"x_min":0,"x_max":0,"o":"m 99 26 b 125 0 99 13 111 0 l 168 0 b 194 26 182 0 194 13 l 194 397 b 374 476 194 397 269 476 b 499 319 451 476 499 425 l 499 26 b 525 0 499 13 511 0 l 569 0 b 596 26 583 0 596 13 l 596 319 b 381 569 596 464 542 569 b 186 496 265 569 186 496 l 174 539 b 151 556 171 550 164 556 l 125 556 b 99 529 111 556 99 543 z m 331 758 b 349 753 336 754 343 753 b 367 758 357 753 361 754 l 515 875 b 542 915 526 883 554 899 l 522 943 b 490 946 515 953 507 957 l 349 849 l 207 943 b 175 940 190 954 182 950 l 156 915 b 164 889 149 906 156 894 z "},"ñ":{"ha":688,"x_min":0,"x_max":0,"o":"m 99 26 b 125 0 99 13 111 0 l 168 0 b 194 26 182 0 194 13 l 194 397 b 374 476 194 397 269 476 b 499 319 451 476 499 425 l 499 26 b 525 0 499 13 511 0 l 569 0 b 596 26 583 0 596 13 l 596 319 b 381 569 596 464 542 569 b 186 496 265 569 186 496 l 174 539 b 151 556 171 550 164 556 l 125 556 b 99 529 111 556 99 543 z m 176 799 b 211 813 194 789 207 799 b 272 882 221 842 235 882 b 425 778 311 882 349 778 b 549 890 501 778 535 850 b 543 926 551 900 560 918 l 521 938 b 489 926 506 944 493 940 b 426 856 482 903 465 856 b 274 958 383 856 357 958 b 146 842 182 958 158 867 b 151 811 142 832 140 817 z "},"ņ":{"ha":690,"x_min":0,"x_max":0,"o":"m 100 26 b 126 0 100 13 113 0 l 169 0 b 196 26 183 0 196 13 l 196 397 b 375 476 196 397 271 476 b 500 319 453 476 500 425 l 500 26 b 526 0 500 13 513 0 l 571 0 b 597 26 585 0 597 13 l 597 319 b 382 569 597 464 543 569 b 188 496 267 569 188 496 l 175 539 b 153 556 172 550 165 556 l 126 556 b 100 529 113 556 100 543 z m 338 -128 b 258 -207 294 -128 258 -162 b 338 -286 258 -250 294 -286 b 354 -285 343 -286 349 -286 b 268 -460 354 -386 282 -447 b 260 -493 254 -472 253 -486 l 279 -512 b 313 -510 288 -521 299 -522 b 429 -253 357 -468 429 -368 b 338 -128 429 -153 382 -128 z "},"ŉ":{"ha":688,"x_min":0,"x_max":0,"o":"m 97 26 b 124 0 97 13 110 0 l 167 0 b 193 26 181 0 193 13 l 193 397 b 372 476 193 397 268 476 b 497 319 450 476 497 425 l 497 26 b 524 0 497 13 510 0 l 568 0 b 594 26 582 0 594 13 l 594 319 b 379 569 594 464 540 569 b 185 496 264 569 185 496 l 172 539 b 150 556 169 550 163 556 l 124 556 b 97 529 110 556 97 543 z m -69 986 b -149 907 -112 986 -149 951 b -69 828 -149 864 -112 828 b -53 829 -64 828 -58 828 b -139 654 -53 728 -125 667 b -147 621 -153 642 -154 628 l -128 601 b -94 604 -119 593 -108 592 b 22 861 -50 646 22 746 b -69 986 22 961 -25 986 z "},"ò":{"ha":669,"x_min":0,"x_max":0,"o":"m 58 279 b 335 -14 58 119 181 -14 b 611 279 489 -14 611 119 b 335 569 611 436 489 569 b 58 279 181 569 58 436 z m 154 279 b 335 478 154 389 233 478 b 515 279 436 478 515 389 b 335 76 515 167 436 76 b 154 279 233 76 154 167 z m 428 776 b 460 779 447 768 454 768 l 474 810 b 465 836 479 821 474 832 l 257 953 b 221 949 249 958 228 961 l 196 899 b 204 869 190 888 193 874 z "},"ó":{"ha":669,"x_min":0,"x_max":0,"o":"m 58 279 b 335 -14 58 119 181 -14 b 611 279 489 -14 611 119 b 335 569 611 436 489 569 b 58 279 181 569 58 436 z m 154 279 b 335 478 154 389 233 478 b 515 279 436 478 515 389 b 335 76 515 167 436 76 b 154 279 233 76 154 167 z m 210 779 b 242 776 215 768 222 768 l 465 869 b 474 899 476 874 479 888 l 449 949 b 413 953 442 961 421 958 l 204 836 b 196 810 196 832 190 821 z "},"ô":{"ha":669,"x_min":0,"x_max":0,"o":"m 58 279 b 335 -14 58 119 181 -14 b 611 279 489 -14 611 119 b 335 569 611 436 489 569 b 58 279 181 569 58 436 z m 154 279 b 335 478 154 389 233 478 b 515 279 436 478 515 389 b 335 76 515 167 436 76 b 154 279 233 76 154 167 z m 161 771 b 193 768 168 761 176 757 l 335 863 l 476 765 b 528 796 504 746 515 779 b 519 822 535 806 528 817 l 353 953 b 335 958 347 957 343 958 b 317 953 329 958 322 957 l 150 822 b 142 796 142 817 135 806 z "},"õ":{"ha":669,"x_min":0,"x_max":0,"o":"m 58 279 b 335 -14 58 119 181 -14 b 611 279 489 -14 611 119 b 335 569 611 436 489 569 b 58 279 181 569 58 436 z m 154 279 b 335 478 154 389 233 478 b 515 279 436 478 515 389 b 335 76 515 167 436 76 b 154 279 233 76 154 167 z m 163 799 b 197 813 181 789 193 799 b 258 882 207 842 221 882 b 411 778 297 882 335 778 b 535 890 488 778 521 850 b 529 926 538 900 546 918 l 507 938 b 475 926 492 944 479 940 b 413 856 468 903 451 856 b 260 958 369 856 343 958 b 132 842 168 958 144 867 b 138 811 128 832 126 817 z "},"ö":{"ha":669,"x_min":0,"x_max":0,"o":"m 58 279 b 335 -14 58 119 181 -14 b 611 279 489 -14 611 119 b 335 569 611 436 489 569 b 58 279 181 569 58 436 z m 154 279 b 335 478 154 389 233 478 b 515 279 436 478 515 389 b 335 76 515 167 436 76 b 154 279 233 76 154 167 z m 467 813 b 533 878 504 813 533 842 b 467 944 533 915 504 944 b 401 878 431 944 401 915 b 467 813 401 842 431 813 z m 199 813 b 265 878 236 813 265 842 b 199 944 265 915 236 944 b 133 878 163 944 133 915 b 199 813 133 842 163 813 z "},"ō":{"ha":669,"x_min":0,"x_max":0,"o":"m 58 279 b 335 -14 58 119 181 -14 b 611 279 489 -14 611 119 b 335 569 611 436 489 569 b 58 279 181 569 58 436 z m 154 279 b 335 478 154 389 233 478 b 515 279 436 478 515 389 b 335 76 515 167 436 76 b 154 279 233 76 154 167 z m 158 810 l 514 810 b 540 835 529 810 540 821 l 540 864 b 514 890 540 879 529 890 l 158 890 b 132 864 143 890 132 879 l 132 835 b 158 810 132 821 143 810 z "},"ŏ":{"ha":669,"x_min":0,"x_max":0,"o":"m 58 279 b 335 -14 58 119 181 -14 b 611 279 489 -14 611 119 b 335 569 611 436 489 569 b 58 279 181 569 58 436 z m 154 279 b 335 478 154 389 233 478 b 515 279 436 478 515 389 b 335 76 515 167 436 76 b 154 279 233 76 154 167 z m 335 738 b 522 896 431 738 507 806 b 503 924 525 911 518 924 l 471 924 b 444 900 458 924 450 915 b 335 811 429 851 386 811 b 222 900 279 811 238 847 b 196 924 218 913 211 924 l 167 924 b 147 896 150 924 144 911 b 335 738 160 806 238 738 z "},"ő":{"ha":669,"x_min":0,"x_max":0,"o":"m 58 279 b 335 -14 58 119 181 -14 b 611 279 489 -14 611 119 b 335 569 611 436 489 569 b 58 279 181 569 58 436 z m 154 279 b 335 478 154 389 233 478 b 515 279 436 478 515 389 b 335 76 515 167 436 76 b 154 279 233 76 154 167 z m 461 724 l 476 724 b 501 744 486 724 496 733 l 610 938 b 585 972 619 956 611 972 l 531 972 b 504 946 517 972 508 960 l 435 750 b 461 724 431 736 447 724 z m 231 724 l 246 724 b 271 744 256 724 265 733 l 379 938 b 354 972 389 956 381 972 l 300 972 b 274 946 286 972 278 960 l 204 750 b 231 724 200 736 217 724 z "},"ø":{"ha":667,"x_min":0,"x_max":0,"o":"m 94 40 l 100 33 b 138 33 111 24 128 22 l 157 53 b 335 -14 204 11 267 -14 b 610 281 489 -14 610 121 b 554 454 610 344 589 406 l 586 486 b 586 522 597 496 597 513 l 579 529 b 542 529 569 540 553 540 l 513 500 b 335 569 465 543 403 569 b 60 281 181 569 60 438 b 115 99 60 214 81 149 l 93 76 b 94 40 83 67 83 50 z m 183 167 b 156 281 165 199 156 239 b 335 478 156 390 233 478 b 447 435 378 478 417 463 z m 222 118 l 486 386 b 514 281 504 356 514 319 b 335 76 514 168 436 76 b 222 118 292 76 253 92 z "},"ǿ":{"ha":667,"x_min":0,"x_max":0,"o":"m 94 40 l 100 33 b 138 33 111 24 128 22 l 157 53 b 335 -14 204 11 267 -14 b 610 281 489 -14 610 121 b 554 454 610 344 589 406 l 586 486 b 586 522 597 496 597 513 l 579 529 b 542 529 569 540 553 540 l 513 500 b 335 569 465 543 403 569 b 60 281 181 569 60 438 b 115 99 60 214 81 149 l 93 76 b 94 40 83 67 83 50 z m 183 167 b 156 281 165 199 156 239 b 335 478 156 390 233 478 b 447 435 378 478 417 463 z m 222 118 l 486 386 b 514 281 504 356 514 319 b 335 76 514 168 436 76 b 222 118 292 76 253 92 z m 208 779 b 240 776 214 768 221 768 l 464 869 b 472 899 475 874 478 888 l 447 949 b 411 953 440 961 419 958 l 203 836 b 194 810 194 832 189 821 z "},"œ":{"ha":1082,"x_min":0,"x_max":0,"o":"m 57 281 b 332 -14 57 121 178 -14 b 554 106 424 -14 504 33 b 778 -14 603 33 681 -14 b 982 50 874 -14 949 24 b 988 86 1003 65 997 74 b 964 118 979 97 972 107 b 925 115 953 133 944 126 b 788 75 893 96 846 75 b 604 254 696 75 617 161 l 1001 254 b 1026 278 1014 254 1025 264 b 1029 315 1028 288 1029 306 b 778 569 1029 468 917 569 b 554 450 681 569 603 524 b 332 569 504 522 424 569 b 57 281 178 569 57 438 z m 606 331 b 778 481 615 417 685 481 b 935 331 863 481 931 417 z m 153 281 b 332 478 153 390 231 478 b 511 281 433 478 511 390 b 332 76 511 168 433 76 b 153 281 231 76 153 168 z "},"ŕ":{"ha":464,"x_min":0,"x_max":0,"o":"m 99 26 b 125 0 99 13 111 0 l 168 0 b 194 26 182 0 194 13 l 194 397 b 346 475 194 397 240 475 b 400 464 367 475 388 469 b 433 476 414 458 426 458 l 450 524 b 353 569 464 563 394 569 b 186 496 238 569 186 496 l 175 536 b 151 556 172 549 163 556 l 125 556 b 99 529 111 556 99 543 z m 133 779 b 165 776 139 768 146 768 l 389 869 b 397 899 400 874 403 888 l 372 949 b 336 953 365 961 344 958 l 128 836 b 119 810 119 832 114 821 z "},"ř":{"ha":464,"x_min":0,"x_max":0,"o":"m 99 26 b 125 0 99 13 111 0 l 168 0 b 194 26 182 0 194 13 l 194 397 b 346 475 194 397 240 475 b 400 464 367 475 388 469 b 433 476 414 458 426 458 l 450 524 b 353 569 464 563 394 569 b 186 496 238 569 186 496 l 175 536 b 151 556 172 549 163 556 l 125 556 b 99 529 111 556 99 543 z m 219 758 b 238 753 225 754 232 753 b 256 758 246 753 250 754 l 404 875 b 431 915 415 883 443 899 l 411 943 b 379 946 404 953 396 957 l 238 849 l 96 943 b 64 940 79 954 71 950 l 44 915 b 53 889 38 906 44 894 z "},"ŗ":{"ha":464,"x_min":0,"x_max":0,"o":"m 99 26 b 125 0 99 13 111 0 l 168 0 b 194 26 182 0 194 13 l 194 397 b 346 475 194 397 240 475 b 400 464 367 475 388 469 b 433 476 414 458 426 458 l 450 524 b 353 569 464 563 394 569 b 186 496 238 569 186 496 l 175 536 b 151 556 172 549 163 556 l 125 556 b 99 529 111 556 99 543 z m 147 -128 b 68 -207 104 -128 68 -162 b 147 -286 68 -250 104 -286 b 164 -285 153 -286 158 -286 b 78 -460 164 -386 92 -447 b 69 -493 64 -472 63 -486 l 89 -512 b 122 -510 97 -521 108 -522 b 239 -253 167 -468 239 -368 b 147 -128 239 -153 192 -128 z "},"ś":{"ha":494,"x_min":0,"x_max":0,"o":"m 72 49 b 253 -14 103 25 160 -14 b 444 143 367 -14 444 63 b 263 332 444 243 358 286 b 160 426 206 360 160 381 b 239 482 160 450 176 482 b 350 449 290 482 350 449 b 390 461 363 442 382 446 l 401 483 b 393 526 410 499 406 518 b 239 569 367 544 311 569 b 63 425 110 569 63 483 b 221 246 63 331 147 282 b 343 135 301 206 343 183 b 253 68 343 97 310 68 b 122 117 182 68 122 117 b 85 113 107 126 92 124 b 65 78 81 106 71 86 b 72 49 61 68 65 54 z m 142 779 b 174 776 147 768 154 768 l 397 869 b 406 899 408 874 411 888 l 381 949 b 344 953 374 961 353 958 l 136 836 b 128 810 128 832 122 821 z "},"ŝ":{"ha":494,"x_min":0,"x_max":0,"o":"m 72 49 b 253 -14 103 25 160 -14 b 444 143 367 -14 444 63 b 263 332 444 243 358 286 b 160 426 206 360 160 381 b 239 482 160 450 176 482 b 350 449 290 482 350 449 b 390 461 363 442 382 446 l 401 483 b 393 526 410 499 406 518 b 239 569 367 544 311 569 b 63 425 110 569 63 483 b 221 246 63 331 147 282 b 343 135 301 206 343 183 b 253 68 343 97 310 68 b 122 117 182 68 122 117 b 85 113 107 126 92 124 b 65 78 81 106 71 86 b 72 49 61 68 65 54 z m 82 771 b 114 768 89 761 97 757 l 256 863 l 397 765 b 449 796 425 746 436 779 b 440 822 456 806 449 817 l 274 953 b 256 958 268 957 264 958 b 238 953 250 958 243 957 l 71 822 b 63 796 63 817 56 806 z "},"š":{"ha":494,"x_min":0,"x_max":0,"o":"m 72 49 b 253 -14 103 25 160 -14 b 444 143 367 -14 444 63 b 263 332 444 243 358 286 b 160 426 206 360 160 381 b 239 482 160 450 176 482 b 350 449 290 482 350 449 b 390 461 363 442 382 446 l 401 483 b 393 526 410 499 406 518 b 239 569 367 544 311 569 b 63 425 110 569 63 483 b 221 246 63 331 147 282 b 343 135 301 206 343 183 b 253 68 343 97 310 68 b 122 117 182 68 122 117 b 85 113 107 126 92 124 b 65 78 81 106 71 86 b 72 49 61 68 65 54 z m 242 758 b 260 753 247 754 254 753 b 278 758 268 753 272 754 l 426 875 b 453 915 438 883 465 899 l 433 943 b 401 946 426 953 418 957 l 260 849 l 118 943 b 86 940 101 954 93 950 l 67 915 b 75 889 60 906 67 894 z "},"ş":{"ha":497,"x_min":0,"x_max":0,"o":"m 74 49 b 200 -8 97 29 138 1 l 200 -106 b 224 -133 200 -112 203 -129 b 339 -221 271 -142 339 -157 b 278 -286 339 -258 315 -286 b 221 -261 261 -286 238 -279 b 189 -261 214 -253 199 -254 l 169 -276 b 169 -312 160 -283 158 -300 b 275 -361 193 -340 233 -361 b 421 -217 357 -361 421 -297 b 275 -74 421 -136 360 -85 l 275 -12 b 446 143 376 -4 446 67 b 264 332 446 243 360 286 b 161 426 207 360 161 381 b 240 482 161 450 178 482 b 351 449 292 482 351 449 b 392 461 364 442 383 446 l 403 483 b 394 526 411 499 407 518 b 240 569 368 544 313 569 b 64 425 111 569 64 483 b 222 246 64 331 149 282 b 344 135 303 206 344 183 b 254 68 344 97 311 68 b 124 117 183 68 124 117 b 86 113 108 126 93 124 b 67 78 82 106 72 86 b 74 49 63 68 67 54 z "},"ș":{"ha":494,"x_min":0,"x_max":0,"o":"m 72 49 b 253 -14 103 25 160 -14 b 444 143 367 -14 444 63 b 263 332 444 243 358 286 b 160 426 206 360 160 381 b 239 482 160 450 176 482 b 350 449 290 482 350 449 b 390 461 363 442 382 446 l 401 483 b 393 526 410 499 406 518 b 239 569 367 544 311 569 b 63 425 110 569 63 483 b 221 246 63 331 147 282 b 343 135 301 206 343 183 b 253 68 343 97 310 68 b 122 117 182 68 122 117 b 85 113 107 126 92 124 b 65 78 81 106 71 86 b 72 49 61 68 65 54 z m 250 -128 b 171 -207 207 -128 171 -162 b 250 -286 171 -250 207 -286 b 267 -285 256 -286 261 -286 b 181 -460 267 -386 194 -447 b 172 -493 167 -472 165 -486 l 192 -512 b 225 -510 200 -521 211 -522 b 342 -253 269 -468 342 -368 b 250 -128 342 -153 294 -128 z "},"ß":{"ha":751,"x_min":0,"x_max":0,"o":"m 100 26 b 126 0 100 13 113 0 l 171 0 b 197 26 185 0 197 13 b 197 569 197 117 197 207 b 389 900 197 789 261 900 b 526 772 456 900 526 857 b 393 485 526 688 393 569 b 603 186 393 379 603 308 b 476 71 603 118 554 71 b 361 103 426 71 374 96 b 332 86 346 111 336 104 l 321 44 b 342 13 315 25 329 18 b 476 -14 356 6 413 -14 b 704 185 592 -14 704 44 b 501 489 704 356 501 432 b 625 776 501 550 625 643 b 392 986 625 926 511 986 b 100 571 203 986 100 846 z "},"ť":{"ha":475,"x_min":0,"x_max":0,"o":"m 135 139 b 263 -14 135 53 151 -14 b 422 33 328 -14 403 21 b 432 68 438 43 442 51 l 411 103 b 378 111 404 114 399 122 b 276 81 360 101 311 81 b 231 147 244 81 231 92 l 231 472 l 392 472 b 418 499 407 472 418 485 l 418 529 b 392 556 418 544 407 556 l 231 556 l 231 713 b 206 739 231 726 219 739 l 161 736 b 135 710 147 736 135 724 l 135 556 l 64 556 b 38 529 49 556 38 544 l 38 499 b 64 472 38 485 49 472 l 135 472 z m 517 603 b 550 606 525 594 536 593 b 667 863 594 647 667 747 b 575 988 667 963 619 988 b 496 908 532 988 496 953 b 575 829 496 865 532 829 b 592 831 581 829 586 829 b 506 656 592 729 519 668 b 497 622 492 643 490 629 z "},"ţ":{"ha":476,"x_min":0,"x_max":0,"o":"m 135 139 b 263 -14 135 53 151 -14 b 422 33 328 -14 403 21 b 432 68 438 43 442 51 l 411 103 b 378 111 404 114 399 122 b 276 81 360 101 311 81 b 231 147 244 81 231 92 l 231 472 l 392 472 b 418 499 407 472 418 485 l 418 529 b 392 556 418 544 407 556 l 231 556 l 231 713 b 206 739 231 726 219 739 l 161 736 b 135 710 147 736 135 724 l 135 556 l 64 556 b 38 529 49 556 38 544 l 38 499 b 64 472 38 485 49 472 l 135 472 z m 256 -128 b 176 -207 213 -128 176 -162 b 256 -286 176 -250 213 -286 b 272 -285 261 -286 267 -286 b 186 -460 272 -386 200 -447 b 178 -493 172 -472 171 -486 l 197 -512 b 231 -510 206 -521 217 -522 b 347 -253 275 -468 347 -368 b 256 -128 347 -153 300 -128 z "},"ț":{"ha":476,"x_min":0,"x_max":0,"o":"m 135 139 b 263 -14 135 53 151 -14 b 422 33 328 -14 403 21 b 432 68 438 43 442 51 l 411 103 b 378 111 404 114 399 122 b 276 81 360 101 311 81 b 231 147 244 81 231 92 l 231 472 l 392 472 b 418 499 407 472 418 485 l 418 529 b 392 556 418 544 407 556 l 231 556 l 231 713 b 206 739 231 726 219 739 l 161 736 b 135 710 147 736 135 724 l 135 556 l 64 556 b 38 529 49 556 38 544 l 38 499 b 64 472 38 485 49 472 l 135 472 z m 256 -128 b 176 -207 213 -128 176 -162 b 256 -286 176 -250 213 -286 b 272 -285 261 -286 267 -286 b 186 -460 272 -386 200 -447 b 178 -493 172 -472 171 -486 l 197 -512 b 231 -510 206 -521 217 -522 b 347 -253 275 -468 347 -368 b 256 -128 347 -153 300 -128 z "},"ŧ":{"ha":475,"x_min":0,"x_max":0,"o":"m 135 139 b 263 -14 135 53 151 -14 b 422 33 328 -14 403 21 b 432 68 438 43 442 51 l 411 103 b 378 111 404 114 399 122 b 276 81 360 101 311 81 b 231 147 244 81 231 92 l 231 240 l 361 240 b 388 265 376 240 388 251 l 388 276 b 361 303 388 290 376 303 l 231 303 l 231 472 l 392 472 b 418 499 407 472 418 485 l 418 529 b 392 556 418 544 407 556 l 231 556 l 231 713 b 206 739 231 726 219 739 l 161 736 b 135 710 147 736 135 724 l 135 556 l 64 556 b 38 529 49 556 38 544 l 38 499 b 64 472 38 485 49 472 l 135 472 l 135 303 l 78 303 b 53 276 64 303 53 290 l 53 267 b 78 240 53 253 64 240 l 135 240 z "},"þ":{"ha":669,"x_min":0,"x_max":0,"o":"m 196 32 b 344 -14 196 32 253 -14 b 611 276 497 -14 611 114 b 349 569 611 436 508 569 b 196 517 249 569 196 517 l 196 946 b 169 972 196 960 183 972 l 126 972 b 100 946 113 972 100 960 l 100 -390 b 126 -417 100 -404 113 -417 l 169 -417 b 196 -390 183 -417 196 -404 z m 197 128 b 197 414 197 224 197 318 b 339 482 197 414 249 482 b 514 278 458 482 514 386 b 332 79 514 167 439 79 b 197 128 256 79 197 128 z "},"ù":{"ha":674,"x_min":0,"x_max":0,"o":"m 92 238 b 307 -14 92 90 146 -14 b 488 60 422 -14 488 60 l 497 24 b 522 0 501 10 507 0 l 549 0 b 575 26 563 0 575 13 l 575 529 b 549 556 575 543 563 556 l 506 556 b 479 529 492 556 479 543 b 479 158 479 221 479 189 b 314 79 479 158 419 79 b 189 236 236 79 189 131 l 189 529 b 163 556 189 543 176 556 l 118 556 b 92 529 104 556 92 543 z m 438 776 b 469 779 457 768 464 768 l 483 810 b 475 836 489 821 483 832 l 267 953 b 231 949 258 958 238 961 l 206 899 b 214 869 200 888 203 874 z "},"ú":{"ha":674,"x_min":0,"x_max":0,"o":"m 92 238 b 307 -14 92 90 146 -14 b 488 60 422 -14 488 60 l 497 24 b 522 0 501 10 507 0 l 549 0 b 575 26 563 0 575 13 l 575 529 b 549 556 575 543 563 556 l 506 556 b 479 529 492 556 479 543 b 479 158 479 221 479 189 b 314 79 479 158 419 79 b 189 236 236 79 189 131 l 189 529 b 163 556 189 543 176 556 l 118 556 b 92 529 104 556 92 543 z m 218 779 b 250 776 224 768 231 768 l 474 869 b 482 899 485 874 488 888 l 457 949 b 421 953 450 961 429 958 l 213 836 b 204 810 204 832 199 821 z "},"û":{"ha":674,"x_min":0,"x_max":0,"o":"m 92 238 b 307 -14 92 90 146 -14 b 488 60 422 -14 488 60 l 497 24 b 522 0 501 10 507 0 l 549 0 b 575 26 563 0 575 13 l 575 529 b 549 556 575 543 563 556 l 506 556 b 479 529 492 556 479 543 b 479 158 479 221 479 189 b 314 79 479 158 419 79 b 189 236 236 79 189 131 l 189 529 b 163 556 189 543 176 556 l 118 556 b 92 529 104 556 92 543 z m 168 771 b 200 768 175 761 183 757 l 342 863 l 483 765 b 535 796 511 746 522 779 b 526 822 542 806 535 817 l 360 953 b 342 958 354 957 350 958 b 324 953 336 958 329 957 l 157 822 b 149 796 149 817 142 806 z "},"ũ":{"ha":674,"x_min":0,"x_max":0,"o":"m 92 238 b 307 -14 92 90 146 -14 b 488 60 422 -14 488 60 l 497 24 b 522 0 501 10 507 0 l 549 0 b 575 26 563 0 575 13 l 575 529 b 549 556 575 543 563 556 l 506 556 b 479 529 492 556 479 543 b 479 158 479 221 479 189 b 314 79 479 158 419 79 b 189 236 236 79 189 131 l 189 529 b 163 556 189 543 176 556 l 118 556 b 92 529 104 556 92 543 z m 167 799 b 201 813 185 789 197 799 b 263 882 211 842 225 882 b 415 778 301 882 339 778 b 539 890 492 778 525 850 b 533 926 542 900 550 918 l 511 938 b 479 926 496 944 483 940 b 417 856 472 903 456 856 b 264 958 374 856 347 958 b 136 842 172 958 149 867 b 142 811 132 832 131 817 z "},"ü":{"ha":674,"x_min":0,"x_max":0,"o":"m 92 238 b 307 -14 92 90 146 -14 b 488 60 422 -14 488 60 l 497 24 b 522 0 501 10 507 0 l 549 0 b 575 26 563 0 575 13 l 575 529 b 549 556 575 543 563 556 l 506 556 b 479 529 492 556 479 543 b 479 158 479 221 479 189 b 314 79 479 158 419 79 b 189 236 236 79 189 131 l 189 529 b 163 556 189 543 176 556 l 118 556 b 92 529 104 556 92 543 z m 471 813 b 538 878 508 813 538 842 b 471 944 538 915 508 944 b 406 878 435 944 406 915 b 471 813 406 842 435 813 z m 203 813 b 269 878 240 813 269 842 b 203 944 269 915 240 944 b 138 878 167 944 138 915 b 203 813 138 842 167 813 z "},"ū":{"ha":674,"x_min":0,"x_max":0,"o":"m 92 238 b 307 -14 92 90 146 -14 b 488 60 422 -14 488 60 l 497 24 b 522 0 501 10 507 0 l 549 0 b 575 26 563 0 575 13 l 575 529 b 549 556 575 543 563 556 l 506 556 b 479 529 492 556 479 543 b 479 158 479 221 479 189 b 314 79 479 158 419 79 b 189 236 236 79 189 131 l 189 529 b 163 556 189 543 176 556 l 118 556 b 92 529 104 556 92 543 z m 157 810 l 513 810 b 539 835 528 810 539 821 l 539 864 b 513 890 539 879 528 890 l 157 890 b 131 864 142 890 131 879 l 131 835 b 157 810 131 821 142 810 z "},"ŭ":{"ha":674,"x_min":0,"x_max":0,"o":"m 92 238 b 307 -14 92 90 146 -14 b 488 60 422 -14 488 60 l 497 24 b 522 0 501 10 507 0 l 549 0 b 575 26 563 0 575 13 l 575 529 b 549 556 575 543 563 556 l 506 556 b 479 529 492 556 479 543 b 479 158 479 221 479 189 b 314 79 479 158 419 79 b 189 236 236 79 189 131 l 189 529 b 163 556 189 543 176 556 l 118 556 b 92 529 104 556 92 543 z m 340 738 b 528 896 436 738 513 806 b 508 924 531 911 524 924 l 476 924 b 450 900 464 924 456 915 b 340 811 435 851 392 811 b 228 900 285 811 243 847 b 201 924 224 913 217 924 l 172 924 b 153 896 156 924 150 911 b 340 738 165 806 243 738 z "},"ů":{"ha":674,"x_min":0,"x_max":0,"o":"m 92 238 b 307 -14 92 90 146 -14 b 488 60 422 -14 488 60 l 497 24 b 522 0 501 10 507 0 l 549 0 b 575 26 563 0 575 13 l 575 529 b 549 556 575 543 563 556 l 506 556 b 479 529 492 556 479 543 b 479 158 479 221 479 189 b 314 79 479 158 419 79 b 189 236 236 79 189 131 l 189 529 b 163 556 189 543 176 556 l 118 556 b 92 529 104 556 92 543 z m 339 683 b 490 835 422 683 490 750 b 339 986 490 919 422 986 b 188 835 254 986 188 919 b 339 683 188 750 254 683 z m 339 750 b 254 835 294 750 254 790 b 339 917 254 879 294 917 b 421 835 383 917 421 879 b 339 750 421 790 383 750 z "},"ű":{"ha":674,"x_min":0,"x_max":0,"o":"m 92 238 b 307 -14 92 90 146 -14 b 488 60 422 -14 488 60 l 497 24 b 522 0 501 10 507 0 l 549 0 b 575 26 563 0 575 13 l 575 529 b 549 556 575 543 563 556 l 506 556 b 479 529 492 556 479 543 b 479 158 479 221 479 189 b 314 79 479 158 419 79 b 189 236 236 79 189 131 l 189 529 b 163 556 189 543 176 556 l 118 556 b 92 529 104 556 92 543 z m 453 724 l 468 724 b 493 744 478 724 488 733 l 601 938 b 576 972 611 956 603 972 l 522 972 b 496 946 508 972 500 960 l 426 750 b 453 724 422 736 439 724 z m 222 724 l 238 724 b 263 744 247 724 257 733 l 371 938 b 346 972 381 956 372 972 l 292 972 b 265 946 278 972 269 960 l 196 750 b 222 724 192 736 208 724 z "},"ų":{"ha":674,"x_min":0,"x_max":0,"o":"m 92 238 b 307 -14 92 90 146 -14 b 488 60 422 -14 488 60 l 500 15 b 404 -151 500 15 404 -46 b 551 -293 404 -249 474 -293 b 649 -272 597 -293 635 -279 b 668 -249 658 -267 668 -261 l 668 -214 b 643 -194 668 -196 654 -189 b 567 -217 625 -204 601 -217 b 488 -137 525 -217 488 -183 b 554 0 488 -71 531 -21 b 575 26 565 3 575 14 l 575 529 b 549 556 575 543 563 556 l 506 556 b 479 529 492 556 479 543 l 479 158 b 314 79 479 158 419 79 b 189 236 236 79 189 131 l 189 529 b 163 556 189 543 176 556 l 118 556 b 92 529 104 556 92 543 z "},"ẃ":{"ha":839,"x_min":0,"x_max":0,"o":"m 200 0 b 224 -14 203 -8 211 -14 l 231 -14 b 254 0 243 -14 251 -7 l 418 417 l 588 0 b 611 -14 590 -7 599 -14 l 618 -14 b 642 0 629 -14 639 -8 l 793 524 b 772 556 799 543 793 556 l 729 556 b 706 540 718 556 708 549 l 606 172 l 604 172 l 449 556 b 425 569 446 563 438 569 l 418 569 b 394 556 406 569 397 563 l 238 174 l 236 174 l 135 540 b 110 556 132 549 122 556 l 67 556 b 46 524 46 556 40 543 z m 296 779 b 328 776 301 768 308 768 l 551 869 b 560 899 563 874 565 888 l 535 949 b 499 953 528 961 507 958 l 290 836 b 282 810 282 832 276 821 z "},"ŵ":{"ha":839,"x_min":0,"x_max":0,"o":"m 200 0 b 224 -14 203 -8 211 -14 l 231 -14 b 254 0 243 -14 251 -7 l 418 417 l 588 0 b 611 -14 590 -7 599 -14 l 618 -14 b 642 0 629 -14 639 -8 l 793 524 b 772 556 799 543 793 556 l 729 556 b 706 540 718 556 708 549 l 606 172 l 604 172 l 449 556 b 425 569 446 563 438 569 l 418 569 b 394 556 406 569 397 563 l 238 174 l 236 174 l 135 540 b 110 556 132 549 122 556 l 67 556 b 46 524 46 556 40 543 z m 244 771 b 276 768 251 761 260 757 l 418 863 l 560 765 b 611 796 588 746 599 779 b 603 822 618 806 611 817 l 436 953 b 418 958 431 957 426 958 b 400 953 413 958 406 957 l 233 822 b 225 796 225 817 218 806 z "},"ẅ":{"ha":839,"x_min":0,"x_max":0,"o":"m 200 0 b 224 -14 203 -8 211 -14 l 231 -14 b 254 0 243 -14 251 -7 l 418 417 l 588 0 b 611 -14 590 -7 599 -14 l 618 -14 b 642 0 629 -14 639 -8 l 793 524 b 772 556 799 543 793 556 l 729 556 b 706 540 718 556 708 549 l 606 172 l 604 172 l 449 556 b 425 569 446 563 438 569 l 418 569 b 394 556 406 569 397 563 l 238 174 l 236 174 l 135 540 b 110 556 132 549 122 556 l 67 556 b 46 524 46 556 40 543 z m 551 813 b 618 878 589 813 618 842 b 551 944 618 915 589 944 b 486 878 515 944 486 915 b 551 813 486 842 515 813 z m 283 813 b 350 878 321 813 350 842 b 283 944 350 915 321 944 b 218 878 247 944 218 915 b 283 813 218 842 247 813 z "},"ẁ":{"ha":839,"x_min":0,"x_max":0,"o":"m 200 0 b 224 -14 203 -8 211 -14 l 231 -14 b 254 0 243 -14 251 -7 l 418 417 l 588 0 b 611 -14 590 -7 599 -14 l 618 -14 b 642 0 629 -14 639 -8 l 793 524 b 772 556 799 543 793 556 l 729 556 b 706 540 718 556 708 549 l 606 172 l 604 172 l 449 556 b 425 569 446 563 438 569 l 418 569 b 394 556 406 569 397 563 l 238 174 l 236 174 l 135 540 b 110 556 132 549 122 556 l 67 556 b 46 524 46 556 40 543 z m 511 776 b 543 779 531 768 538 768 l 557 810 b 549 836 563 821 557 832 l 340 953 b 304 949 332 958 311 961 l 279 899 b 288 869 274 888 276 874 z "},"ý":{"ha":647,"x_min":0,"x_max":0,"o":"m 278 1 l 100 -382 b 122 -417 90 -401 101 -417 l 174 -417 b 197 -400 183 -417 193 -408 l 624 524 b 603 556 633 542 624 556 l 550 556 b 526 540 540 556 531 549 l 332 115 l 331 115 l 125 540 b 101 556 121 549 113 556 l 40 556 b 19 525 19 556 11 543 z m 206 779 b 238 776 211 768 218 768 l 461 869 b 469 899 472 874 475 888 l 444 949 b 408 953 438 961 417 958 l 200 836 b 192 810 192 832 186 821 z "},"ŷ":{"ha":647,"x_min":0,"x_max":0,"o":"m 278 1 l 100 -382 b 122 -417 90 -401 101 -417 l 174 -417 b 197 -400 183 -417 193 -408 l 624 524 b 603 556 633 542 624 556 l 550 556 b 526 540 540 556 531 549 l 332 115 l 331 115 l 125 540 b 101 556 121 549 113 556 l 40 556 b 19 525 19 556 11 543 z m 158 771 b 190 768 165 761 174 757 l 332 863 l 474 765 b 525 796 501 746 513 779 b 517 822 532 806 525 817 l 350 953 b 332 958 344 957 340 958 b 314 953 326 958 319 957 l 147 822 b 139 796 139 817 132 806 z "},"ÿ":{"ha":647,"x_min":0,"x_max":0,"o":"m 278 1 l 100 -382 b 122 -417 90 -401 101 -417 l 174 -417 b 197 -400 183 -417 193 -408 l 624 524 b 603 556 633 542 624 556 l 550 556 b 526 540 540 556 531 549 l 332 115 l 331 115 l 125 540 b 101 556 121 549 113 556 l 40 556 b 19 525 19 556 11 543 z m 464 813 b 531 878 501 813 531 842 b 464 944 531 915 501 944 b 399 878 428 944 399 915 b 464 813 399 842 428 813 z m 196 813 b 263 878 233 813 263 842 b 196 944 263 915 233 944 b 131 878 160 944 131 915 b 196 813 131 842 160 813 z "},"ỳ":{"ha":647,"x_min":0,"x_max":0,"o":"m 278 1 l 100 -382 b 122 -417 90 -401 101 -417 l 174 -417 b 197 -400 183 -417 193 -408 l 624 524 b 603 556 633 542 624 556 l 550 556 b 526 540 540 556 531 549 l 332 115 l 331 115 l 125 540 b 101 556 121 549 113 556 l 40 556 b 19 525 19 556 11 543 z m 425 776 b 457 779 444 768 451 768 l 471 810 b 463 836 476 821 471 832 l 254 953 b 218 949 246 958 225 961 l 193 899 b 201 869 188 888 190 874 z "},"ź":{"ha":507,"x_min":0,"x_max":0,"o":"m 50 26 b 76 0 50 13 63 0 l 410 0 b 436 26 425 0 436 13 l 436 61 b 410 88 436 76 425 88 l 196 88 l 196 92 l 461 518 b 438 556 472 536 458 556 l 89 556 b 64 529 75 556 64 544 l 64 494 b 89 468 64 481 75 468 l 322 468 l 322 464 l 50 40 z m 132 779 b 164 776 138 768 144 768 l 388 869 b 396 899 399 874 401 888 l 371 949 b 335 953 364 961 343 958 l 126 836 b 118 810 118 832 113 821 z "},"ž":{"ha":507,"x_min":0,"x_max":0,"o":"m 50 26 b 76 0 50 13 63 0 l 410 0 b 436 26 425 0 436 13 l 436 61 b 410 88 436 76 425 88 l 196 88 l 196 92 l 461 518 b 438 556 472 536 458 556 l 89 556 b 64 529 75 556 64 544 l 64 494 b 89 468 64 481 75 468 l 322 468 l 322 464 l 50 40 z m 246 758 b 264 753 251 754 258 753 b 282 758 272 753 276 754 l 431 875 b 457 915 442 883 469 899 l 438 943 b 406 946 431 953 422 957 l 264 849 l 122 943 b 90 940 106 954 97 950 l 71 915 b 79 889 64 906 71 894 z "},"ż":{"ha":507,"x_min":0,"x_max":0,"o":"m 50 26 b 76 0 50 13 63 0 l 410 0 b 436 26 425 0 436 13 l 436 61 b 410 88 436 76 425 88 l 196 88 l 196 92 l 461 518 b 438 556 472 536 458 556 l 89 556 b 64 529 75 556 64 544 l 64 494 b 89 468 64 481 75 468 l 322 468 l 322 464 l 50 40 z m 264 786 b 343 865 308 786 343 822 b 264 944 343 910 308 944 b 185 865 221 944 185 910 b 264 786 185 822 221 786 z "},"Ĳ":{"ha":971,"x_min":0,"x_max":0,"o":"m 142 26 b 168 0 142 13 154 0 l 224 0 b 250 26 238 0 250 13 l 250 946 b 224 972 250 960 238 972 l 168 972 b 142 946 154 972 142 960 z m 381 89 b 592 -14 404 60 471 -14 b 871 290 754 -14 871 97 l 871 946 b 844 972 871 960 860 972 l 790 972 b 764 946 775 972 764 960 l 764 288 b 594 79 764 140 678 79 b 460 153 533 79 483 126 b 413 157 446 168 435 178 l 383 124 b 381 89 375 114 374 100 z "},"ĳ":{"ha":624,"x_min":0,"x_max":0,"o":"m 144 813 b 211 878 182 813 211 842 b 144 944 211 915 182 944 b 79 878 108 944 79 915 b 144 813 79 842 108 813 z m 99 26 b 125 0 99 13 111 0 l 168 0 b 194 26 182 0 194 13 l 194 529 b 168 556 194 543 182 556 l 125 556 b 99 529 111 556 99 543 z m 475 813 b 542 878 513 813 542 842 b 475 944 542 915 513 944 b 410 878 439 944 410 915 b 475 813 410 842 439 813 z m 428 -194 b 313 -344 428 -301 376 -344 b 211 -304 278 -344 229 -318 b 175 -306 197 -293 183 -292 l 153 -342 b 158 -374 147 -351 149 -365 b 311 -431 183 -397 235 -431 b 524 -194 431 -431 524 -356 l 524 529 b 497 556 524 544 511 556 l 454 556 b 428 529 440 556 428 544 z "},"ﬁ":{"ha":732,"x_min":0,"x_max":0,"o":"m 143 26 b 169 0 143 13 156 0 l 213 0 b 239 26 226 0 239 13 l 239 472 l 538 472 l 538 26 b 564 0 538 13 550 0 l 607 0 b 633 26 621 0 633 13 l 633 529 b 607 556 633 543 621 556 l 239 556 l 239 750 b 368 900 239 857 304 900 b 521 850 435 900 503 860 b 557 851 536 842 549 838 l 579 889 b 574 921 585 899 583 914 b 369 986 549 939 464 986 b 143 750 250 986 143 911 l 143 556 l 58 556 b 32 529 43 556 32 544 l 32 499 b 58 472 32 485 43 472 l 143 472 z "},"ﬂ":{"ha":736,"x_min":0,"x_max":0,"o":"m 143 26 b 169 0 143 13 156 0 l 213 0 b 239 26 226 0 239 13 l 239 472 l 400 472 b 426 499 415 472 426 485 l 426 529 b 400 556 426 544 415 556 l 239 556 l 239 750 b 375 893 239 857 311 893 b 540 806 481 893 540 806 l 540 26 b 567 0 540 13 553 0 l 610 0 b 636 26 624 0 636 13 l 636 946 b 610 972 636 960 624 972 l 586 972 b 560 950 568 972 563 960 l 549 915 b 368 986 549 915 483 986 b 143 750 249 986 143 911 l 143 556 l 58 556 b 32 529 43 556 32 544 l 32 499 b 58 472 32 485 43 472 l 143 472 z "},"´":{"ha":419,"x_min":0,"x_max":0,"o":"m 115 779 b 147 776 121 768 128 768 l 371 869 b 379 899 382 874 385 888 l 354 949 b 318 953 347 961 326 958 l 110 836 b 101 810 101 832 96 821 z "},"ˆ":{"ha":518,"x_min":0,"x_max":0,"o":"m 83 771 b 115 768 90 761 99 757 l 257 863 l 399 765 b 450 796 426 746 438 779 b 442 822 457 806 450 817 l 275 953 b 257 958 269 957 265 958 b 239 953 251 958 244 957 l 72 822 b 64 796 64 817 57 806 z "},"ˇ":{"ha":518,"x_min":0,"x_max":0,"o":"m 239 758 b 257 753 244 754 251 753 b 275 758 265 753 269 754 l 424 875 b 450 915 435 883 463 899 l 431 943 b 399 946 424 953 415 957 l 257 849 l 115 943 b 83 940 99 954 90 950 l 64 915 b 72 889 57 906 64 894 z "},"˜":{"ha":528,"x_min":0,"x_max":0,"o":"m 89 799 b 124 813 107 789 119 799 b 185 882 133 842 147 882 b 338 778 224 882 261 778 b 461 890 414 778 447 850 b 456 926 464 900 472 918 l 433 938 b 401 926 418 944 406 940 b 339 856 394 903 378 856 b 186 958 296 856 269 958 b 58 842 94 958 71 867 b 64 811 54 832 53 817 z "},"¨":{"ha":575,"x_min":0,"x_max":0,"o":"m 444 813 b 511 878 482 813 511 842 b 444 944 511 915 482 944 b 379 878 408 944 379 915 b 444 813 379 842 408 813 z m 176 813 b 243 878 214 813 243 842 b 176 944 243 915 214 944 b 111 878 140 944 111 915 b 176 813 111 842 140 813 z "},"¯":{"ha":575,"x_min":0,"x_max":0,"o":"m 110 810 l 465 810 b 492 835 481 810 492 821 l 492 864 b 465 890 492 879 481 890 l 110 890 b 83 864 94 890 83 879 l 83 835 b 110 810 83 821 94 810 z "},"ˉ":{"ha":575,"x_min":0,"x_max":0,"o":"m 110 810 l 465 810 b 492 835 481 810 492 821 l 492 864 b 465 890 492 879 481 890 l 110 890 b 83 864 94 890 83 879 l 83 835 b 110 810 83 821 94 810 z "},"˘":{"ha":481,"x_min":0,"x_max":0,"o":"m 240 738 b 428 896 336 738 413 806 b 408 924 431 911 424 924 l 376 924 b 350 900 364 924 356 915 b 240 811 335 851 292 811 b 128 900 185 811 143 847 b 101 924 124 913 117 924 l 72 924 b 53 896 56 924 50 911 b 240 738 65 806 143 738 z "},"˚":{"ha":403,"x_min":0,"x_max":0,"o":"m 201 683 b 353 835 285 683 353 750 b 201 986 353 919 285 986 b 50 835 117 986 50 919 b 201 683 50 750 117 683 z m 201 750 b 117 835 157 750 117 790 b 201 917 117 879 157 917 b 283 835 246 917 283 879 b 201 750 283 790 246 750 z "},"˝":{"ha":544,"x_min":0,"x_max":0,"o":"m 335 724 l 350 724 b 375 744 360 724 369 733 l 483 938 b 458 972 493 956 485 972 l 404 972 b 378 946 390 972 382 960 l 308 750 b 335 724 304 736 321 724 z m 104 724 l 119 724 b 144 744 129 724 139 733 l 253 938 b 228 972 263 956 254 972 l 174 972 b 147 946 160 972 151 960 l 78 750 b 104 724 74 736 90 724 z "},"˙":{"ha":304,"x_min":0,"x_max":0,"o":"m 150 786 b 229 865 194 786 229 822 b 150 944 229 910 194 944 b 71 865 107 944 71 910 b 150 786 71 822 107 786 z "},"¸":{"ha":343,"x_min":0,"x_max":0,"o":"m 79 0 l 79 -106 b 103 -133 79 -112 82 -129 b 218 -221 150 -142 218 -157 b 157 -286 218 -258 194 -286 b 100 -261 140 -286 117 -279 b 68 -261 93 -253 78 -254 l 49 -276 b 49 -312 39 -283 38 -300 b 154 -361 72 -340 113 -361 b 300 -217 236 -361 300 -297 b 154 -74 300 -136 239 -85 l 154 0 z "},"˛":{"ha":383,"x_min":0,"x_max":0,"o":"m 156 15 b 60 -151 156 15 60 -46 b 207 -293 60 -249 129 -293 b 304 -272 253 -293 290 -279 b 324 -249 314 -267 324 -261 l 324 -214 b 299 -194 324 -196 310 -189 b 222 -217 281 -204 257 -217 b 143 -137 181 -217 143 -183 b 226 15 143 -47 226 15 z "},"…":{"ha":867,"x_min":0,"x_max":0,"o":"m 625 65 b 704 -14 625 22 661 -14 b 783 65 749 -14 783 22 b 704 144 783 110 749 144 b 625 65 661 144 625 110 z m 351 65 b 431 -14 351 22 388 -14 b 510 65 475 -14 510 22 b 431 144 510 110 475 144 b 351 65 388 144 351 110 z m 83 65 b 163 -14 83 22 119 -14 b 242 65 207 -14 242 22 b 163 144 242 110 207 144 b 83 65 119 144 83 110 z "},"­":{"ha":482,"x_min":0,"x_max":0,"o":"m 96 306 l 386 306 b 413 331 401 306 413 317 l 413 357 b 386 383 413 372 401 383 l 96 383 b 69 357 81 383 69 372 l 69 331 b 96 306 69 317 81 306 z "},"¡":{"ha":318,"x_min":0,"x_max":0,"o":"m 160 411 b 239 490 203 411 239 446 b 160 569 239 533 203 569 b 81 490 115 569 81 533 b 160 411 81 446 115 411 z m 125 156 l 99 -235 l 99 -390 b 125 -417 99 -404 111 -417 l 194 -417 b 221 -390 208 -417 221 -404 l 221 -232 l 194 156 b 168 178 193 167 181 178 l 151 178 b 125 156 139 178 126 167 z "},"¿":{"ha":339,"x_min":0,"x_max":0,"o":"m 179 411 b 258 490 222 411 258 446 b 179 569 258 533 222 569 b 100 490 135 569 100 533 b 179 411 100 446 135 411 z m 129 93 b -90 -218 129 -21 -90 -36 b 151 -431 -90 -346 7 -431 b 406 -308 326 -431 406 -308 b 406 -272 414 -297 417 -282 l 379 -249 b 343 -250 367 -237 356 -237 b 151 -344 315 -279 264 -344 b 14 -222 61 -344 14 -287 b 222 93 14 -65 222 -79 l 222 151 b 196 178 222 167 210 178 l 158 178 b 129 150 144 178 129 169 z "},"‘":{"ha":283,"x_min":0,"x_max":0,"o":"m 144 593 b 224 672 188 593 224 628 b 144 751 224 715 188 751 b 128 750 139 751 133 751 b 214 925 128 851 200 913 b 222 958 228 938 229 951 l 203 978 b 169 975 194 986 183 988 b 53 718 125 933 53 833 b 144 593 53 618 100 593 z "},"’":{"ha":281,"x_min":0,"x_max":0,"o":"m 83 603 b 117 606 92 594 103 593 b 233 863 161 647 233 747 b 142 988 233 963 186 988 b 63 908 99 988 63 953 b 142 829 63 865 99 829 b 158 831 147 829 153 829 b 72 656 158 729 86 668 b 64 622 58 643 57 629 z "},"“":{"ha":533,"x_min":0,"x_max":0,"o":"m 394 596 b 474 675 438 596 474 631 b 394 754 474 718 438 754 b 378 753 389 754 383 754 b 464 928 378 854 450 915 b 472 961 478 940 479 954 l 453 981 b 419 978 444 989 433 990 b 303 721 375 936 303 836 b 394 596 303 621 350 596 z m 144 596 b 224 675 188 596 224 631 b 144 754 224 718 188 754 b 128 753 139 754 133 754 b 214 928 128 854 200 915 b 222 961 228 940 229 954 l 203 981 b 169 978 194 989 183 990 b 53 721 125 936 53 836 b 144 596 53 621 100 596 z "},"”":{"ha":531,"x_min":0,"x_max":0,"o":"m 333 603 b 367 606 342 594 353 593 b 483 863 411 647 483 747 b 392 988 483 963 436 988 b 313 908 349 988 313 953 b 392 829 313 865 349 829 b 408 831 397 829 403 829 b 322 656 408 729 336 668 b 314 622 308 643 307 629 z m 83 603 b 117 606 92 594 103 593 b 233 863 161 647 233 747 b 142 988 233 963 186 988 b 63 908 99 988 63 953 b 142 829 63 865 99 829 b 158 831 147 829 153 829 b 72 656 158 729 86 668 b 64 622 58 643 57 629 z "},"‚":{"ha":324,"x_min":0,"x_max":0,"o":"m 76 65 b 156 -14 76 22 113 -14 b 172 -12 161 -14 167 -14 b 86 -187 172 -114 100 -175 b 78 -221 72 -200 71 -214 l 97 -240 b 131 -237 106 -249 117 -250 b 247 19 175 -196 247 -96 b 156 144 247 119 200 144 b 76 65 113 144 76 110 z "},"„":{"ha":574,"x_min":0,"x_max":0,"o":"m 326 65 b 406 -14 326 22 363 -14 b 422 -12 411 -14 417 -14 b 336 -187 422 -114 350 -175 b 328 -221 322 -200 321 -214 l 347 -240 b 381 -237 356 -249 367 -250 b 497 19 425 -196 497 -96 b 406 144 497 119 450 144 b 326 65 363 144 326 110 z m 76 65 b 156 -14 76 22 113 -14 b 172 -12 161 -14 167 -14 b 86 -187 172 -114 100 -175 b 78 -221 72 -200 71 -214 l 97 -240 b 131 -237 106 -249 117 -250 b 247 19 175 -196 247 -96 b 156 144 247 119 200 144 b 76 65 113 144 76 110 z "},"‹":{"ha":350,"x_min":0,"x_max":0,"o":"m 201 54 b 222 43 206 49 213 43 l 249 43 b 269 85 272 43 279 63 l 171 289 l 274 482 b 253 525 285 504 276 525 l 233 525 b 208 508 222 525 215 518 l 57 303 b 57 269 51 294 49 281 z "},"›":{"ha":350,"x_min":0,"x_max":0,"o":"m 100 43 l 126 43 b 147 54 136 43 143 49 l 292 269 b 292 303 300 281 297 294 l 140 508 b 115 525 135 517 126 525 l 96 525 b 75 482 72 525 64 504 l 178 289 l 79 85 b 100 43 69 63 76 43 z "},"«":{"ha":576,"x_min":0,"x_max":0,"o":"m 283 269 l 428 54 b 449 43 432 49 439 43 l 475 43 b 496 85 499 43 507 63 l 397 289 l 500 482 b 479 525 511 504 503 525 l 460 525 b 435 508 449 525 439 515 l 283 303 b 283 269 278 294 275 281 z m 201 54 b 222 43 206 49 213 43 l 249 43 b 269 85 272 43 281 63 l 171 289 l 274 482 b 253 525 285 504 276 525 l 233 525 b 208 508 222 525 213 515 l 57 303 b 57 269 51 294 49 281 z "},"»":{"ha":576,"x_min":0,"x_max":0,"o":"m 306 85 b 326 43 294 63 303 43 l 353 43 b 374 54 363 43 369 49 l 518 269 b 518 303 526 281 524 294 l 367 508 b 342 525 363 515 353 525 l 322 525 b 301 482 299 525 290 504 l 404 289 z m 100 43 l 126 43 b 147 54 136 43 143 49 l 292 269 b 292 303 300 281 297 294 l 140 508 b 115 525 136 515 126 525 l 96 525 b 75 482 72 525 64 504 l 178 289 l 79 85 b 100 43 68 63 76 43 z "},"–":{"ha":801,"x_min":0,"x_max":0,"o":"m 144 310 l 657 310 b 683 335 672 310 683 321 l 683 350 b 657 376 683 365 672 376 l 144 376 b 118 350 129 376 118 365 l 118 335 b 144 310 118 321 129 310 z "},"—":{"ha":1107,"x_min":0,"x_max":0,"o":"m 144 310 l 963 310 b 989 335 978 310 989 321 l 989 350 b 963 376 989 365 978 376 l 144 376 b 118 350 129 376 118 365 l 118 335 b 144 310 118 321 129 310 z "},"•":{"ha":492,"x_min":0,"x_max":0,"o":"m 243 165 b 394 311 326 165 394 232 b 243 463 394 394 326 463 b 97 311 164 463 97 394 b 243 165 97 232 164 165 z "},"·":{"ha":318,"x_min":0,"x_max":0,"o":"m 158 283 b 238 363 203 283 238 319 b 158 442 238 407 203 442 b 79 363 115 442 79 407 b 158 283 79 319 115 283 z "},"∙":{"ha":492,"x_min":0,"x_max":0,"o":"m 246 283 b 325 363 290 283 325 319 b 246 442 325 407 290 442 b 167 363 203 442 167 407 b 246 283 167 319 203 283 z "},"†":{"ha":858,"x_min":0,"x_max":0,"o":"m 96 464 l 369 464 l 393 -394 b 419 -417 393 -406 407 -417 l 436 -417 b 463 -394 449 -417 463 -406 l 486 464 l 764 464 b 789 490 778 464 789 476 l 789 529 b 764 556 789 543 778 556 l 489 556 l 489 946 b 463 972 489 960 476 972 l 393 972 b 367 946 379 972 367 960 l 367 556 l 96 556 b 69 529 82 556 69 543 l 69 490 b 96 464 69 476 82 464 z "},"‡":{"ha":858,"x_min":0,"x_max":0,"o":"m 111 26 b 138 0 111 13 124 0 l 382 0 l 393 -394 b 419 -417 393 -406 407 -417 l 436 -417 b 463 -394 449 -417 463 -406 l 474 0 l 722 0 b 747 26 736 0 747 13 l 747 65 b 722 92 747 79 736 92 l 476 92 l 489 556 l 764 556 b 789 582 778 556 789 568 l 789 621 b 764 647 789 635 778 647 l 489 647 l 489 946 b 463 972 489 960 476 972 l 393 972 b 367 946 379 972 367 960 l 367 647 l 96 647 b 69 621 82 647 69 635 l 69 582 b 96 556 69 568 82 556 l 367 556 l 367 554 l 379 92 l 138 92 b 111 65 124 92 111 79 z "},"§":{"ha":732,"x_min":0,"x_max":0,"o":"m 92 -153 l 64 -187 b 72 -235 44 -212 61 -225 b 365 -347 90 -251 201 -347 b 665 -111 536 -347 665 -256 b 547 100 665 24 547 100 b 665 292 547 100 665 175 b 357 572 665 429 544 494 b 169 754 240 619 169 676 b 361 893 169 813 211 893 b 543 829 446 893 533 835 b 589 838 565 817 578 822 l 610 869 b 600 915 625 894 608 911 b 363 986 600 915 499 986 b 67 753 142 986 67 847 b 178 553 67 624 178 553 b 67 375 178 553 67 493 b 311 104 67 249 163 167 b 554 -115 471 36 554 -28 b 368 -254 554 -210 467 -254 b 133 -149 246 -254 142 -157 b 92 -153 118 -133 103 -139 z m 169 379 b 253 506 169 471 253 506 b 311 479 269 497 292 488 b 554 283 471 413 554 367 b 464 147 554 189 464 147 b 169 379 289 238 169 264 z "},"¶":{"ha":975,"x_min":0,"x_max":0,"o":"m 324 392 l 385 392 l 385 -392 b 411 -418 385 -406 397 -418 l 439 -418 b 465 -392 453 -418 465 -406 l 465 892 l 682 892 l 682 -392 b 708 -418 682 -406 694 -418 l 738 -418 b 764 -392 753 -418 764 -406 l 764 892 l 918 892 b 944 918 932 892 944 903 l 944 946 b 918 972 944 960 932 972 l 304 974 b 35 683 153 974 35 842 b 324 392 35 519 167 392 z "},"©":{"ha":1147,"x_min":0,"x_max":0,"o":"m 75 486 b 574 -12 75 211 299 -12 b 1074 486 849 -12 1074 211 b 574 986 1074 761 849 986 b 75 486 299 986 75 761 z m 158 486 b 574 901 158 717 344 901 b 989 486 804 901 989 717 b 574 71 989 257 804 71 b 158 486 344 71 158 257 z m 326 483 b 586 224 326 340 443 224 b 749 282 646 224 700 240 b 750 321 760 293 760 310 l 728 347 b 688 349 717 361 703 358 b 589 318 658 329 624 318 b 424 488 493 318 424 392 b 589 657 424 579 493 657 b 692 625 624 657 658 647 b 729 626 703 618 718 611 l 749 651 b 746 692 760 664 758 681 b 586 744 700 728 642 744 b 326 483 443 744 326 629 z "},"®":{"ha":1149,"x_min":0,"x_max":0,"o":"m 75 486 b 574 -12 75 211 299 -12 b 1074 486 849 -12 1074 211 b 574 986 1074 761 849 986 b 75 486 299 986 75 761 z m 158 486 b 574 901 158 717 344 901 b 989 486 804 901 989 717 b 574 71 989 257 804 71 b 158 486 344 71 158 257 z m 400 260 b 426 233 400 246 411 233 l 463 233 b 489 260 478 233 489 246 l 489 426 l 592 426 l 669 253 b 694 233 674 244 683 233 l 742 233 b 765 271 761 233 775 254 b 682 435 738 325 710 381 b 794 586 721 444 794 482 b 624 742 794 690 710 742 l 426 742 b 400 715 411 742 400 729 z m 488 507 l 488 665 l 624 665 b 707 586 675 665 707 633 b 624 507 707 543 675 507 z "},"™":{"ha":1001,"x_min":0,"x_max":0,"o":"m 460 553 l 474 553 b 500 575 485 553 497 564 l 549 806 l 646 563 b 669 549 649 554 663 549 l 678 549 b 700 561 686 549 697 554 l 800 806 l 847 576 b 874 553 850 564 861 553 l 890 553 b 917 583 907 553 919 567 l 843 958 b 817 979 840 969 828 979 l 811 979 b 788 964 803 979 790 971 l 674 669 l 561 964 b 538 979 558 971 546 979 l 532 979 b 506 958 519 979 508 969 l 433 585 b 460 553 431 568 442 553 z m 219 553 l 238 553 b 264 579 251 553 264 565 l 264 904 l 361 904 b 388 931 376 904 388 915 l 388 946 b 361 972 388 960 376 972 l 96 972 b 69 946 82 972 69 960 l 69 931 b 96 904 69 915 82 904 l 193 904 l 193 579 b 219 553 193 565 204 553 z "},"¤":{"ha":661,"x_min":0,"x_max":0,"o":"m 140 244 b 178 244 150 235 168 235 l 235 301 b 426 300 293 265 367 265 l 485 242 b 521 243 494 232 511 233 l 549 271 b 549 307 558 281 558 297 l 492 364 b 492 558 528 424 528 500 l 549 615 b 549 651 558 625 558 642 l 521 679 b 485 681 511 689 494 690 l 426 622 b 235 621 367 658 293 657 l 178 678 b 140 678 168 688 150 688 l 113 651 b 113 614 103 642 103 624 l 169 557 b 169 365 135 497 135 425 l 113 308 b 113 271 103 299 103 281 z m 331 361 b 231 461 275 361 231 406 b 331 561 231 517 275 561 b 431 461 386 561 431 517 b 331 361 431 406 386 361 z "},"€":{"ha":1015,"x_min":0,"x_max":0,"o":"m 53 351 l 122 351 b 606 -14 181 139 374 -14 b 943 121 729 -14 849 29 b 944 158 953 131 956 150 l 904 199 b 871 194 892 206 881 203 b 604 88 797 139 724 88 b 239 351 432 88 292 200 l 563 351 b 589 376 578 351 589 363 l 589 388 b 563 414 589 401 578 414 l 222 414 b 217 486 218 438 217 461 b 218 518 217 497 217 507 l 618 518 b 644 543 633 518 644 529 l 644 554 b 618 581 644 568 633 581 l 228 581 b 604 886 268 753 417 886 b 864 786 699 886 794 851 b 910 785 879 771 897 772 l 943 818 b 942 857 954 829 953 846 b 606 986 847 938 746 986 b 113 581 360 986 157 813 l 53 581 b 28 554 39 581 28 568 l 28 544 b 53 518 28 531 39 518 l 106 518 b 104 485 104 507 104 496 b 108 414 104 460 106 436 l 53 414 b 28 388 39 414 28 401 l 28 378 b 53 351 28 364 39 351 z "},"¢":{"ha":593,"x_min":0,"x_max":0,"o":"m 213 10 l 176 -128 b 196 -158 174 -142 182 -156 l 204 -161 b 236 -143 218 -164 233 -157 l 272 -8 b 326 -14 289 -12 307 -14 b 539 103 421 -14 497 36 b 529 142 547 117 543 132 l 514 153 b 472 150 499 164 489 167 b 325 78 440 119 401 78 b 296 79 315 78 306 78 l 399 458 b 454 417 421 447 440 432 b 494 411 467 406 472 393 l 521 433 b 526 472 533 443 536 460 b 424 551 497 508 463 535 l 439 607 b 421 639 443 622 435 636 l 411 642 b 379 624 397 646 383 638 l 364 567 b 328 569 351 568 340 569 b 42 276 169 569 42 440 b 213 10 42 153 113 53 z m 238 100 b 142 278 179 133 142 200 b 326 475 142 389 222 475 b 339 474 332 475 339 474 z "},"£":{"ha":700,"x_min":0,"x_max":0,"o":"m 114 26 b 140 0 114 13 126 0 l 582 0 b 607 26 596 0 607 13 l 607 63 b 582 89 607 78 596 89 l 235 89 b 265 408 278 183 279 336 l 478 408 b 504 433 493 408 504 419 l 504 444 b 478 471 504 458 493 471 l 250 471 b 204 700 246 497 204 593 b 392 894 204 817 285 894 b 563 814 485 894 563 814 b 603 815 574 800 588 796 l 632 851 b 629 888 642 863 640 879 b 397 986 594 918 517 986 b 107 701 235 986 107 876 b 151 471 107 597 144 506 l 107 471 b 82 444 93 471 82 458 l 82 435 b 107 408 82 421 93 408 l 168 408 b 114 51 188 304 183 182 z "},"ƒ":{"ha":449,"x_min":0,"x_max":0,"o":"m 143 -194 b 28 -344 143 -301 92 -344 b -74 -304 -7 -344 -56 -318 b -110 -306 -87 -293 -101 -292 l -132 -342 b -126 -374 -137 -351 -136 -365 b 26 -431 -101 -397 -50 -431 b 239 -194 146 -431 239 -356 l 239 472 l 400 472 b 426 499 415 472 426 485 l 426 529 b 400 556 426 544 415 556 l 239 556 l 239 750 b 354 900 239 857 290 900 b 456 860 397 900 438 874 b 492 861 469 849 483 847 l 514 897 b 508 929 519 907 518 921 b 356 986 483 953 432 986 b 143 750 236 986 143 911 l 143 556 l 58 556 b 32 529 43 556 32 544 l 32 499 b 58 472 32 485 43 472 l 143 472 z "},"¥":{"ha":858,"x_min":0,"x_max":0,"o":"m 192 171 l 374 171 l 374 26 b 400 0 374 13 385 0 l 454 0 b 481 26 468 0 481 13 l 481 171 l 660 171 b 686 196 675 171 686 182 l 686 207 b 660 233 686 221 675 233 l 481 233 l 481 338 l 660 338 b 686 363 675 338 686 349 l 686 374 b 660 400 686 388 675 400 l 481 400 l 481 469 l 819 932 b 797 972 831 950 819 972 l 732 972 b 710 960 722 972 714 965 l 429 572 l 149 960 b 126 972 144 965 136 972 l 61 972 b 39 932 39 972 28 950 l 374 468 l 374 400 l 192 400 b 167 374 178 400 167 388 l 167 364 b 192 338 167 350 178 338 l 374 338 l 374 233 l 192 233 b 167 207 178 233 167 221 l 167 197 b 192 171 167 183 178 171 z "},"ª":{"ha":433,"x_min":0,"x_max":0,"o":"m 172 561 b 293 615 236 561 271 594 l 301 586 b 318 572 304 578 307 572 l 343 572 b 361 592 353 572 361 581 l 361 803 b 236 986 361 893 367 986 b 93 958 151 986 99 963 b 83 938 85 954 81 949 l 90 913 b 111 897 93 903 101 894 b 231 922 131 904 174 922 b 293 815 286 922 293 890 b 210 829 293 815 253 829 b 49 696 106 829 49 772 b 172 561 49 614 101 561 z m 181 626 b 111 697 140 626 111 657 b 206 775 111 743 153 775 b 290 757 247 775 276 764 l 290 679 b 181 626 272 657 228 626 z "},"º":{"ha":450,"x_min":0,"x_max":0,"o":"m 225 547 b 397 765 335 547 397 629 b 225 985 397 903 335 985 b 53 765 115 985 53 903 b 225 547 53 629 115 547 z m 225 614 b 129 765 164 614 129 668 b 225 918 129 863 164 918 b 321 765 286 918 321 863 b 225 614 321 668 286 614 z "},"¹":{"ha":264,"x_min":0,"x_max":0,"o":"m 125 700 l 174 700 b 186 713 181 700 186 706 l 186 1099 b 174 1111 186 1106 182 1111 l 135 1111 l 38 1033 b 33 1018 32 1028 32 1025 l 40 994 b 54 989 42 989 47 988 l 111 1004 l 111 713 b 125 700 111 706 117 700 z "},"²":{"ha":426,"x_min":0,"x_max":0,"o":"m 76 700 l 346 700 b 358 713 357 700 358 707 l 358 747 b 346 761 358 756 354 761 l 178 761 l 290 876 b 358 1001 331 918 358 957 b 208 1125 358 1069 308 1125 b 74 1063 126 1125 74 1063 b 74 1047 68 1058 69 1051 l 101 1018 b 118 1018 104 1015 111 1011 b 204 1060 140 1040 174 1060 b 283 994 261 1060 283 1024 b 239 917 283 969 267 947 l 63 732 l 63 713 b 76 700 63 703 69 700 z "},"³":{"ha":414,"x_min":0,"x_max":0,"o":"m 201 686 b 360 806 297 686 360 738 b 275 910 360 860 308 897 l 275 913 b 347 1010 307 925 347 963 b 201 1125 347 1081 282 1125 b 72 1069 125 1125 72 1069 b 72 1053 67 1065 67 1057 l 100 1028 b 118 1028 107 1022 114 1024 b 196 1061 132 1042 156 1061 b 271 999 235 1061 271 1036 b 181 938 271 965 243 938 l 138 938 b 124 925 129 938 124 933 l 124 890 b 138 878 124 882 131 878 l 181 878 b 282 811 251 878 282 846 b 199 749 282 774 242 749 b 107 785 151 749 111 782 b 89 786 101 790 96 790 l 60 758 b 58 743 54 754 54 747 b 201 686 74 726 115 686 z "},"⁄":{"ha":165,"x_min":0,"x_max":0,"o":"m -110 14 l 369 935 b 346 972 379 953 367 972 l 324 972 b 300 958 313 972 306 968 l -176 38 b -153 0 -186 19 -174 0 l -133 0 b -110 14 -121 0 -112 8 z "},"∕":{"ha":165,"x_min":0,"x_max":0,"o":"m -110 14 l 369 935 b 346 972 379 953 367 972 l 324 972 b 300 958 313 972 306 968 l -176 38 b -153 0 -186 19 -174 0 l -133 0 b -110 14 -121 0 -112 8 z "},"½":{"ha":869,"x_min":0,"x_max":0,"o":"m 125 38 b 149 0 115 19 128 0 l 168 0 b 192 14 181 0 189 8 l 671 935 b 647 972 681 953 668 972 l 625 972 b 601 958 614 972 607 968 z m 144 561 l 193 561 b 206 574 200 561 206 567 l 206 960 b 193 972 206 967 201 972 l 154 972 l 57 894 b 53 879 51 889 51 886 l 60 856 b 74 850 61 850 67 849 l 131 865 l 131 574 b 144 561 131 567 136 561 z m 482 13 b 496 0 482 3 489 0 l 765 0 b 778 13 776 0 778 7 l 778 47 b 765 61 778 56 774 61 b 597 61 710 61 653 61 l 710 176 b 778 301 750 218 778 257 b 628 425 778 369 728 425 b 493 363 546 425 493 363 b 493 347 488 358 489 351 l 521 318 b 538 318 524 315 531 311 b 624 360 560 340 593 360 b 703 294 681 360 703 324 b 658 217 703 269 686 247 l 482 32 z "},"⅓":{"ha":865,"x_min":0,"x_max":0,"o":"m 143 38 b 167 0 133 19 146 0 l 186 0 b 210 14 199 0 207 8 l 689 935 b 665 972 699 953 686 972 l 643 972 b 619 958 632 972 625 968 z m 163 561 l 211 561 b 224 574 218 561 224 567 l 224 960 b 211 972 224 967 219 972 l 172 972 l 75 894 b 71 879 69 889 69 886 l 78 856 b 92 850 79 850 85 849 l 149 865 l 149 574 b 163 561 149 567 154 561 z m 504 43 b 647 -14 519 26 561 -14 b 806 106 743 -14 806 38 b 721 210 806 160 754 197 l 721 213 b 793 310 753 225 793 263 b 647 425 793 381 728 425 b 518 369 571 425 518 369 b 518 353 513 365 513 357 l 546 328 b 564 328 553 322 560 324 b 642 361 578 342 601 361 b 717 299 681 361 717 336 b 626 238 717 265 689 238 l 583 238 b 569 225 575 238 569 233 l 569 190 b 583 178 569 182 576 178 l 626 178 b 728 111 697 178 728 146 b 644 49 728 74 688 49 b 553 85 597 49 557 82 b 535 86 547 90 542 90 l 506 58 b 504 43 500 54 500 47 z "},"¼":{"ha":879,"x_min":0,"x_max":0,"o":"m 125 38 b 149 0 115 19 128 0 l 168 0 b 192 14 181 0 189 8 l 671 935 b 647 972 681 953 668 972 l 625 972 b 601 958 614 972 607 968 z m 144 561 l 193 561 b 206 574 200 561 206 567 l 206 960 b 193 972 206 967 201 972 l 154 972 l 57 894 b 53 879 51 889 51 886 l 60 856 b 74 850 61 850 67 849 l 131 865 l 131 574 b 144 561 131 567 136 561 z m 440 94 b 453 82 440 88 446 82 l 661 82 l 661 13 b 675 0 661 6 668 0 l 719 0 b 733 13 726 0 733 6 l 733 83 l 790 83 b 803 94 797 83 803 89 l 803 131 b 790 142 803 136 797 142 l 733 142 l 733 399 b 719 411 733 406 726 411 l 690 411 b 679 407 688 411 682 410 l 440 135 z m 517 143 l 664 307 l 664 143 z "},"⅛":{"ha":865,"x_min":0,"x_max":0,"o":"m 143 38 b 167 0 133 19 146 0 l 186 0 b 210 14 199 0 207 8 l 689 935 b 665 972 699 953 686 972 l 643 972 b 619 958 632 972 625 968 z m 163 561 l 211 561 b 224 574 218 561 224 567 l 224 960 b 211 972 224 967 219 972 l 172 972 l 75 894 b 71 879 69 889 69 886 l 78 856 b 92 850 79 850 85 849 l 149 865 l 149 574 b 163 561 149 567 154 561 z m 525 103 b 676 -14 525 35 585 -14 b 832 103 772 -14 832 35 b 751 211 832 157 782 197 l 751 214 b 821 311 779 228 821 264 b 678 425 821 381 758 425 b 536 311 597 425 536 381 b 604 214 536 263 576 226 l 604 211 b 525 103 582 201 525 157 z m 610 307 b 676 365 610 340 639 365 b 747 307 717 365 747 340 b 678 244 747 278 725 253 b 610 307 631 253 610 276 z m 600 107 b 678 178 600 138 628 168 b 757 107 729 168 757 138 b 678 46 757 69 721 46 b 600 107 638 46 600 69 z "},"⅔":{"ha":865,"x_min":0,"x_max":0,"o":"m 14 561 l 283 561 b 296 574 294 561 296 568 l 296 608 b 283 622 296 617 292 622 l 115 622 l 228 738 b 296 863 268 779 296 818 b 146 986 296 931 246 986 b 11 924 64 986 11 924 b 11 908 6 919 7 913 l 39 879 b 56 879 42 876 49 872 b 142 921 78 901 111 921 b 221 856 199 921 221 885 b 176 778 221 831 204 808 l 0 593 l 0 574 b 14 561 0 564 7 561 z m 143 38 b 167 0 133 19 146 0 l 186 0 b 210 14 199 0 207 8 l 689 935 b 665 972 699 953 686 972 l 643 972 b 619 958 632 972 625 968 z m 504 43 b 647 -14 519 26 561 -14 b 806 106 743 -14 806 38 b 721 210 806 160 754 197 l 721 213 b 793 310 753 225 793 263 b 647 425 793 381 728 425 b 518 369 571 425 518 369 b 518 353 513 365 513 357 l 546 328 b 564 328 553 322 560 324 b 642 361 578 342 601 361 b 717 299 681 361 717 336 b 626 238 717 265 689 238 l 583 238 b 569 225 575 238 569 233 l 569 190 b 583 178 569 182 576 178 l 626 178 b 728 111 697 178 728 146 b 644 49 728 74 688 49 b 553 85 597 49 557 82 b 535 86 547 90 542 90 l 506 58 b 504 43 500 54 500 47 z "},"¾":{"ha":942,"x_min":0,"x_max":0,"o":"m 206 547 b 364 667 301 547 364 599 b 279 771 364 721 313 758 l 279 774 b 351 871 311 786 351 824 b 206 986 351 942 286 986 b 76 931 129 986 76 931 b 76 914 71 926 71 918 l 104 889 b 122 889 111 883 118 885 b 200 922 136 903 160 922 b 275 860 239 922 275 897 b 185 799 275 826 247 799 l 142 799 b 128 786 133 799 128 794 l 128 751 b 142 739 128 743 135 739 l 185 739 b 286 672 256 739 286 707 b 203 610 286 635 246 610 b 111 646 156 610 115 643 b 93 647 106 651 100 651 l 64 619 b 63 604 58 615 58 608 b 206 547 78 588 119 547 z m 188 38 b 211 0 178 19 190 0 l 231 0 b 254 14 243 0 251 8 l 733 935 b 710 972 743 953 731 972 l 688 972 b 664 958 676 972 669 968 z m 503 94 b 515 82 503 88 508 82 l 724 82 l 724 13 b 738 0 724 6 731 0 l 782 0 b 796 13 789 0 796 6 l 796 83 l 853 83 b 865 94 860 83 865 89 l 865 131 b 853 142 865 136 860 142 l 796 142 l 796 399 b 782 411 796 406 789 411 l 753 411 b 742 407 750 411 744 410 l 503 135 z m 579 143 l 726 307 l 726 143 z "},"⅜":{"ha":946,"x_min":0,"x_max":0,"o":"m 217 547 b 375 667 313 547 375 599 b 290 771 375 721 324 758 l 290 774 b 363 871 322 786 363 824 b 217 986 363 942 297 986 b 88 931 140 986 88 931 b 88 914 82 926 82 918 l 115 889 b 133 889 122 883 129 885 b 211 922 147 903 171 922 b 286 860 250 922 286 897 b 196 799 286 826 258 799 l 153 799 b 139 786 144 799 139 794 l 139 751 b 153 739 139 743 146 739 l 196 739 b 297 672 267 739 297 707 b 214 610 297 635 257 610 b 122 646 167 610 126 643 b 104 647 117 651 111 651 l 75 619 b 74 604 69 615 69 608 b 217 547 89 588 131 547 z m 199 38 b 222 0 189 19 201 0 l 242 0 b 265 14 254 0 263 8 l 744 935 b 721 972 754 953 742 972 l 699 972 b 675 958 688 972 681 968 z m 581 103 b 732 -14 581 35 640 -14 b 888 103 828 -14 888 35 b 807 211 888 157 838 197 l 807 214 b 876 311 835 228 876 264 b 733 425 876 381 814 425 b 592 311 653 425 592 381 b 660 214 592 263 632 226 l 660 211 b 581 103 638 201 581 157 z m 665 307 b 732 365 665 340 694 365 b 803 307 772 365 803 340 b 733 244 803 278 781 253 b 665 307 686 253 665 276 z m 656 107 b 733 178 656 138 683 168 b 813 107 785 168 813 138 b 733 46 813 69 776 46 b 656 107 693 46 656 69 z "},"⅝":{"ha":946,"x_min":0,"x_max":0,"o":"m 200 38 b 224 0 190 19 203 0 l 243 0 b 267 14 256 0 264 8 l 746 935 b 722 972 756 953 743 972 l 700 972 b 676 958 689 972 682 968 z m 215 547 b 381 692 311 547 381 613 b 221 828 381 774 322 828 l 154 828 l 154 911 l 317 911 b 329 922 324 911 329 917 l 329 960 b 317 972 329 967 324 972 l 100 972 b 88 960 93 972 88 967 l 88 788 b 108 765 88 776 94 765 l 215 765 b 307 690 276 765 307 732 b 218 611 307 650 271 611 b 124 649 168 611 128 644 b 107 649 118 654 113 653 l 78 621 b 79 600 69 614 71 610 b 215 547 97 581 140 547 z m 582 103 b 733 -14 582 35 642 -14 b 889 103 829 -14 889 35 b 808 211 889 157 839 197 l 808 214 b 878 311 836 228 878 264 b 735 425 878 381 815 425 b 593 311 654 425 593 381 b 661 214 593 263 633 226 l 661 211 b 582 103 639 201 582 157 z m 667 307 b 733 365 667 340 696 365 b 804 307 774 365 804 340 b 735 244 804 278 782 253 b 667 307 688 253 667 276 z m 657 107 b 735 178 657 138 685 168 b 814 107 786 168 814 138 b 735 46 814 69 778 46 b 657 107 694 46 657 69 z "},"⅞":{"ha":946,"x_min":0,"x_max":0,"o":"m 199 38 b 222 0 189 19 201 0 l 242 0 b 265 14 254 0 263 8 l 744 935 b 721 972 754 953 742 972 l 699 972 b 675 958 688 972 681 968 z m 151 561 l 199 561 b 217 574 207 561 211 564 l 415 944 l 415 960 b 403 972 415 967 410 972 l 124 972 b 111 960 117 972 111 967 l 111 922 b 124 910 111 915 117 910 l 322 910 l 139 581 l 139 571 b 151 561 139 563 143 561 z m 581 103 b 732 -14 581 35 640 -14 b 888 103 828 -14 888 35 b 807 211 888 157 838 197 l 807 214 b 876 311 835 228 876 264 b 733 425 876 381 814 425 b 592 311 653 425 592 381 b 660 214 592 263 632 226 l 660 211 b 581 103 638 201 581 157 z m 665 307 b 732 365 665 340 694 365 b 803 307 772 365 803 340 b 733 244 803 278 781 253 b 665 307 686 253 665 276 z m 656 107 b 733 178 656 138 683 168 b 813 107 785 168 813 138 b 733 46 813 69 776 46 b 656 107 693 46 656 69 z "},"‰":{"ha":1369,"x_min":0,"x_max":0,"o":"m 257 613 b 444 800 360 613 444 696 b 257 988 444 904 360 988 b 69 800 153 988 69 904 b 257 613 69 696 153 613 z m 199 38 b 222 0 189 19 201 0 l 242 0 b 265 14 254 0 263 8 l 744 935 b 721 972 754 953 742 972 l 699 972 b 675 958 688 972 681 968 z m 257 692 b 149 800 196 692 149 739 b 257 906 149 857 196 906 b 363 800 314 906 363 857 b 257 692 363 739 314 692 z m 939 172 b 1126 -15 939 68 1022 -15 b 1314 172 1229 -15 1314 68 b 1126 360 1314 276 1229 360 b 939 172 1022 360 939 276 z m 508 172 b 696 -15 508 68 592 -15 b 883 172 799 -15 883 68 b 696 360 883 276 799 360 b 508 172 592 360 508 276 z m 1018 172 b 1126 278 1018 229 1065 278 b 1232 172 1183 278 1232 229 b 1126 64 1232 111 1183 64 b 1018 172 1065 64 1018 111 z m 588 172 b 696 278 588 229 635 278 b 801 172 753 278 801 229 b 696 64 801 111 753 64 b 588 172 635 64 588 111 z "},"−":{"ha":719,"x_min":0,"x_max":0,"o":"m 96 436 l 625 436 b 650 463 639 436 650 449 l 650 501 b 625 528 650 515 639 528 l 96 528 b 69 501 82 528 69 515 l 69 463 b 96 436 69 449 82 436 z "},"±":{"ha":829,"x_min":0,"x_max":0,"o":"m 369 371 b 396 346 369 357 382 346 l 435 346 b 461 371 449 346 461 357 l 461 533 l 681 533 b 706 560 694 533 706 546 l 706 599 b 681 625 706 613 694 625 l 461 625 l 461 831 b 435 856 461 844 449 856 l 396 856 b 369 831 382 856 369 844 l 369 625 l 151 625 b 125 599 138 625 125 613 l 125 560 b 151 533 125 546 138 533 l 369 533 z m 124 111 b 150 85 124 97 136 85 l 679 85 b 704 111 693 85 704 97 l 704 150 b 679 176 704 164 693 176 l 150 176 b 124 150 136 176 124 164 z "},"×":{"ha":668,"x_min":0,"x_max":0,"o":"m 143 264 b 179 264 153 254 169 254 l 333 418 l 489 263 b 525 264 499 253 515 254 l 553 290 b 554 328 563 300 564 317 l 399 482 l 554 638 b 553 674 564 647 563 664 l 525 701 b 489 703 515 711 499 713 l 333 547 l 179 701 b 142 701 169 711 151 711 l 115 674 b 115 636 106 664 106 646 l 269 482 l 115 328 b 115 292 106 318 106 301 z "},"÷":{"ha":747,"x_min":0,"x_max":0,"o":"m 369 656 b 449 735 414 656 449 692 b 369 814 449 779 414 814 b 290 735 326 814 290 779 b 369 656 290 692 326 656 z m 110 436 l 639 436 b 664 463 653 436 664 449 l 664 501 b 639 528 664 515 653 528 l 110 528 b 83 501 96 528 83 515 l 83 463 b 110 436 83 449 96 436 z m 290 238 b 369 158 290 194 326 158 b 449 238 414 158 449 194 b 369 317 449 282 414 317 b 290 238 326 317 290 282 z "},"≠":{"ha":607,"x_min":0,"x_max":0,"o":"m 169 79 l 176 75 b 211 88 190 69 207 74 l 261 194 l 511 194 b 538 221 526 194 538 207 l 538 264 b 511 290 538 278 526 290 l 306 290 l 397 488 l 511 488 b 538 514 526 488 538 500 l 538 556 b 511 582 538 569 526 582 l 442 582 l 479 663 b 467 696 488 675 481 690 l 458 700 b 424 688 446 707 429 701 l 374 582 l 96 582 b 69 556 81 582 69 569 l 69 514 b 96 488 69 500 81 488 l 331 488 l 238 290 l 96 290 b 69 264 81 290 69 278 l 69 221 b 96 194 69 207 81 194 l 193 194 l 156 113 b 169 79 149 100 156 85 z "},"≈":{"ha":607,"x_min":0,"x_max":0,"o":"m 79 453 b 110 458 89 446 104 446 b 200 529 121 482 149 529 b 274 493 232 529 257 507 b 388 444 290 479 338 444 b 540 558 486 444 540 558 b 538 589 547 568 547 582 l 507 611 b 476 606 497 618 482 618 b 388 535 465 582 439 535 b 314 569 357 535 329 557 b 200 619 296 585 256 619 b 47 506 101 619 47 506 b 50 475 40 496 40 482 z m 81 169 b 111 175 90 163 106 163 b 200 246 122 199 149 246 b 274 210 232 246 257 224 b 388 161 290 196 338 161 b 540 275 486 161 540 275 b 538 306 547 285 547 299 l 507 328 b 476 322 497 335 482 335 b 388 251 465 299 439 251 b 314 286 357 251 329 274 b 200 336 296 301 256 336 b 47 222 101 336 47 222 b 50 192 40 213 40 199 z "},"≤":{"ha":626,"x_min":0,"x_max":0,"o":"m 40 531 l 574 268 b 599 285 586 261 599 267 l 599 342 b 588 363 599 349 596 357 l 167 558 l 588 758 b 599 779 596 764 599 772 l 599 836 b 574 853 599 854 588 860 l 40 583 b 26 561 31 576 26 569 l 26 554 b 40 531 26 543 31 538 z m 49 85 l 578 85 b 603 111 592 85 603 97 l 603 150 b 578 176 603 164 592 176 l 49 176 b 22 150 35 176 22 164 l 22 111 b 49 85 22 97 35 85 z "},"≥":{"ha":626,"x_min":0,"x_max":0,"o":"m 51 268 l 585 531 b 599 554 594 538 599 543 l 599 561 b 585 583 599 569 594 576 l 51 853 b 26 836 38 860 26 854 l 26 779 b 38 758 26 772 29 764 l 458 558 l 38 363 b 26 342 29 357 26 349 l 26 285 b 51 268 26 267 39 261 z m 47 85 l 576 85 b 603 111 590 85 603 97 l 603 150 b 576 176 603 164 590 176 l 47 176 b 22 150 33 176 22 164 l 22 111 b 47 85 22 97 33 85 z "},"¬":{"ha":722,"x_min":0,"x_max":0,"o":"m 78 436 l 540 436 l 540 218 b 567 193 540 204 553 193 l 606 193 b 632 218 619 193 632 204 l 632 501 b 606 528 632 514 621 528 l 78 528 b 51 501 64 528 51 515 l 51 463 b 78 436 51 449 64 436 z "},"∆":{"ha":953,"x_min":0,"x_max":0,"o":"m 67 0 l 889 0 b 914 51 928 0 924 31 l 501 979 b 482 992 497 988 489 992 l 475 992 b 456 979 467 992 460 986 l 42 54 b 67 0 26 24 31 0 z m 171 99 l 476 796 l 479 796 l 781 99 z "},"Δ":{"ha":953,"x_min":0,"x_max":0,"o":"m 67 0 l 889 0 b 914 51 928 0 924 31 l 501 979 b 482 992 497 988 489 992 l 475 992 b 456 979 467 992 460 986 l 42 54 b 67 0 26 24 31 0 z m 171 99 l 476 796 l 479 796 l 781 99 z "},"Ω":{"ha":1083,"x_min":0,"x_max":0,"o":"m 68 21 b 89 0 68 10 78 0 l 433 0 b 453 21 446 0 453 10 l 453 61 b 431 92 453 81 444 85 b 139 485 261 144 139 306 b 540 888 139 703 322 888 b 943 485 758 888 943 703 b 651 92 943 306 821 144 b 628 61 636 85 628 81 l 628 21 b 647 0 628 10 636 0 l 993 0 b 1014 21 1004 0 1014 10 l 1014 78 b 993 99 1014 89 1004 99 l 839 99 b 1040 489 964 174 1040 325 b 540 986 1040 767 818 986 b 40 489 263 986 40 767 b 243 99 40 325 117 174 l 89 99 b 68 78 78 99 68 89 z "},"Ω":{"ha":1083,"x_min":0,"x_max":0,"o":"m 68 21 b 89 0 68 10 78 0 l 433 0 b 453 21 446 0 453 10 l 453 61 b 431 92 453 81 444 85 b 139 485 261 144 139 306 b 540 888 139 703 322 888 b 943 485 758 888 943 703 b 651 92 943 306 821 144 b 628 61 636 85 628 81 l 628 21 b 647 0 628 10 636 0 l 993 0 b 1014 21 1004 0 1014 10 l 1014 78 b 993 99 1014 89 1004 99 l 839 99 b 1040 489 964 174 1040 325 b 540 986 1040 767 818 986 b 40 489 263 986 40 767 b 243 99 40 325 117 174 l 89 99 b 68 78 78 99 68 89 z "},"µ":{"ha":701,"x_min":0,"x_max":0,"o":"m 197 14 b 317 -14 228 -4 267 -14 b 497 60 432 -14 497 60 l 507 24 b 532 0 511 10 517 0 l 558 0 b 585 26 572 0 585 13 l 585 529 b 558 556 585 543 572 556 l 515 556 b 489 529 501 556 489 543 l 489 158 b 324 79 489 158 429 79 b 199 236 246 79 199 131 l 199 529 b 172 556 199 543 186 556 l 128 556 b 101 529 114 556 101 543 l 101 -390 b 128 -417 101 -404 114 -417 l 171 -417 b 197 -390 185 -417 197 -404 z "},"μ":{"ha":701,"x_min":0,"x_max":0,"o":"m 197 14 b 317 -14 228 -4 267 -14 b 497 60 432 -14 497 60 l 507 24 b 532 0 511 10 517 0 l 558 0 b 585 26 572 0 585 13 l 585 529 b 558 556 585 543 572 556 l 515 556 b 489 529 501 556 489 543 l 489 158 b 324 79 489 158 429 79 b 199 236 246 79 199 131 l 199 529 b 172 556 199 543 186 556 l 128 556 b 101 529 114 556 101 543 l 101 -390 b 128 -417 101 -404 114 -417 l 171 -417 b 197 -390 185 -417 197 -404 z "},"π":{"ha":876,"x_min":0,"x_max":0,"o":"m 194 21 b 215 0 194 10 204 0 l 268 0 b 290 21 279 0 290 8 l 290 471 l 581 471 l 581 21 b 601 0 581 10 590 0 l 656 0 b 676 21 667 0 676 8 l 676 471 l 826 471 b 847 490 840 471 847 479 l 847 536 b 826 556 847 547 839 556 l 46 556 b 25 535 35 556 25 546 l 25 492 b 46 471 25 482 33 471 l 194 471 z "},"°":{"ha":464,"x_min":0,"x_max":0,"o":"m 232 611 b 419 799 335 611 419 694 b 232 986 419 903 335 986 b 44 799 128 986 44 903 b 232 611 44 694 128 611 z m 232 685 b 118 799 172 685 118 739 b 232 910 118 856 172 910 b 343 799 289 910 343 856 b 232 685 343 739 289 685 z "},"ℓ":{"ha":701,"x_min":0,"x_max":0,"o":"m 147 206 b 336 -14 147 92 193 -14 b 592 64 483 -14 582 56 b 596 92 604 76 603 79 l 582 114 b 554 118 576 125 569 128 b 336 56 529 103 453 56 b 215 208 243 56 215 131 b 231 331 215 253 222 294 b 628 804 435 407 628 560 b 478 988 628 915 572 988 b 197 510 339 988 257 813 b 172 379 189 465 181 422 b 75 357 143 369 107 363 b 57 331 58 354 53 344 l 63 300 b 85 288 65 289 71 286 b 157 306 101 290 131 297 b 147 206 151 272 147 242 z m 244 401 l 264 499 b 478 917 315 760 376 917 b 560 804 529 917 560 874 b 244 401 560 607 413 474 z "},"℮":{"ha":1143,"x_min":0,"x_max":0,"o":"m 200 219 l 200 451 l 1031 451 b 1057 485 1047 451 1057 461 b 551 988 1054 767 832 988 b 47 485 269 988 47 767 b 551 -15 47 203 269 -15 b 892 121 676 -15 794 29 b 897 151 903 132 907 140 l 881 171 b 849 169 868 182 857 178 b 551 50 763 94 656 50 b 200 219 414 50 274 113 z m 200 515 l 200 751 b 551 921 279 858 406 921 b 906 749 699 921 828 856 l 906 515 z "},"ŋ":{"ha":689,"x_min":0,"x_max":0,"o":"m 99 26 b 125 0 99 13 111 0 l 168 0 b 194 26 182 0 194 13 l 194 397 b 374 476 194 397 269 476 b 499 319 451 476 499 425 l 499 -194 b 385 -344 499 -301 449 -344 b 283 -304 350 -344 301 -318 b 247 -306 269 -293 256 -292 l 225 -342 b 231 -374 219 -351 221 -365 b 383 -431 256 -397 307 -431 b 596 -194 503 -431 596 -356 l 596 319 b 381 569 596 464 542 569 b 186 496 265 569 186 496 l 174 539 b 151 556 171 550 164 556 l 125 556 b 99 529 111 556 99 543 z "},"Ŋ":{"ha":1075,"x_min":0,"x_max":0,"o":"m 142 26 b 168 0 142 13 154 0 l 217 0 b 243 26 232 0 243 13 l 243 782 l 244 782 l 833 43 l 833 -194 b 722 -344 833 -301 786 -344 b 621 -304 688 -344 639 -318 b 585 -306 607 -293 593 -292 l 563 -342 b 568 -374 557 -351 558 -365 b 721 -431 593 -397 644 -431 b 933 -194 840 -431 933 -356 l 933 946 b 907 972 933 960 921 972 l 858 972 b 832 946 843 972 832 960 l 832 206 l 829 206 l 203 986 l 168 986 b 142 961 154 986 142 975 z "},"∞":{"ha":844,"x_min":0,"x_max":0,"o":"m 263 218 b 421 310 328 218 388 258 b 582 218 454 258 514 218 b 775 411 688 218 775 306 b 582 604 775 518 688 604 b 421 513 514 604 454 565 b 263 604 388 565 328 604 b 69 411 156 604 69 518 b 263 218 69 306 156 218 z m 464 411 b 579 526 464 475 514 526 b 694 411 642 526 694 475 b 579 296 694 347 642 296 b 464 411 514 296 464 347 z m 264 296 b 149 411 200 296 149 347 b 264 526 149 475 200 526 b 379 411 326 526 379 475 b 264 296 379 347 326 296 z "},"∂":{"ha":792,"x_min":0,"x_max":0,"o":"m 81 304 b 388 -14 81 129 221 -14 b 711 382 613 -14 711 161 b 254 976 711 751 394 921 b 224 963 240 982 229 975 l 208 929 b 233 889 201 913 207 897 b 590 543 296 868 542 731 b 379 606 590 543 499 606 b 81 304 222 606 81 489 z m 179 299 b 389 515 179 419 272 515 b 608 425 518 515 608 425 b 388 78 632 286 578 78 b 179 299 271 78 179 179 z "},"∫":{"ha":546,"x_min":0,"x_max":0,"o":"m 194 -194 b 79 -344 194 -301 143 -344 b -22 -304 44 -344 -4 -318 b -58 -306 -36 -293 -50 -292 l -81 -342 b -75 -374 -86 -351 -85 -365 b 78 -431 -50 -397 1 -431 b 290 -194 197 -431 290 -356 l 290 750 b 406 900 290 857 342 900 b 507 860 449 900 489 874 b 543 861 521 849 535 847 l 565 897 b 560 929 571 907 569 921 b 407 986 535 953 483 986 b 194 750 288 986 194 911 z "},"√":{"ha":928,"x_min":0,"x_max":0,"o":"m 292 0 b 310 -14 294 -6 301 -14 l 318 -14 b 338 0 326 -14 335 -8 l 736 882 l 890 882 b 910 903 901 882 910 892 l 910 951 b 890 972 910 963 901 972 l 683 972 b 663 958 672 972 665 965 l 318 182 l 314 182 l 160 544 b 142 556 158 549 151 556 l 71 556 b 57 532 56 556 50 546 z "},"∑":{"ha":738,"x_min":0,"x_max":0,"o":"m 68 21 b 88 0 68 10 76 0 l 650 0 b 671 21 661 0 671 10 l 671 79 b 650 99 671 90 661 99 l 249 99 l 582 443 b 603 478 589 451 603 464 l 603 515 b 582 551 603 532 589 544 l 249 872 l 650 872 b 671 893 661 872 671 882 l 671 951 b 650 972 671 963 661 972 l 88 972 b 68 951 76 972 68 963 l 68 926 l 499 496 l 68 49 z "},"∏":{"ha":914,"x_min":0,"x_max":0,"o":"m 68 21 b 89 0 68 10 78 0 l 156 0 b 176 21 168 0 176 10 l 176 874 l 736 874 l 736 21 b 757 0 736 10 746 0 l 824 0 b 844 21 836 0 844 10 l 844 951 b 824 972 844 963 836 972 l 89 972 b 68 951 78 972 68 963 z "},"◊":{"ha":953,"x_min":0,"x_max":0,"o":"m 146 425 l 456 11 b 475 0 460 6 467 0 l 482 0 b 501 11 489 0 497 3 l 807 421 b 838 490 828 453 836 465 b 807 568 839 521 831 535 l 501 979 b 482 992 497 988 489 992 l 475 992 b 456 979 467 992 460 986 l 149 567 b 118 501 125 535 119 524 b 146 425 115 474 119 461 z m 476 132 l 215 494 l 476 860 b 479 860 478 860 478 860 l 740 494 l 479 132 b 476 132 478 132 478 132 z "},"":{"ha":832,"x_min":0,"x_max":0,"o":"m 69 42 b 111 0 69 13 82 0 l 721 0 b 763 42 750 0 763 13 l 763 931 b 721 972 763 960 750 972 l 111 972 b 69 931 82 972 69 960 z m 364 436 l 364 476 b 501 681 364 581 501 593 b 417 753 501 718 472 753 b 300 696 350 753 318 713 b 276 696 292 690 285 690 l 246 726 b 246 751 238 733 240 743 b 426 836 246 751 306 836 b 600 682 525 836 600 772 b 454 474 600 561 454 540 l 454 438 b 433 419 454 425 446 419 l 383 419 b 364 436 374 419 364 426 z m 340 217 b 407 283 340 253 371 283 b 475 217 444 283 475 253 b 407 150 475 181 444 150 b 340 217 371 150 340 181 z "},"⁰":{"ha":483,"x_min":0,"x_max":0,"o":"m 242 686 b 414 904 351 686 414 768 b 242 1124 414 1042 351 1124 b 69 904 132 1124 69 1042 b 242 686 69 768 132 686 z m 242 753 b 146 904 181 753 146 807 b 242 1057 146 1001 181 1057 b 338 904 303 1057 338 1001 b 242 753 338 807 303 753 z "},"⁴":{"ha":501,"x_min":0,"x_max":0,"o":"m 304 700 l 349 700 b 363 713 356 700 363 706 l 363 783 l 419 783 b 432 794 426 783 432 789 l 432 831 b 419 842 432 836 426 842 l 363 842 l 363 1099 b 349 1111 363 1106 356 1111 l 319 1111 b 308 1107 317 1111 311 1110 l 69 835 l 69 794 b 82 782 69 788 75 782 l 290 782 l 290 713 b 304 700 290 706 297 700 z m 146 843 l 293 1007 l 293 843 z "},"⁵":{"ha":449,"x_min":0,"x_max":0,"o":"m 215 686 b 381 831 311 686 381 751 b 221 967 381 913 322 967 l 154 967 l 154 1050 l 317 1050 b 329 1061 324 1050 329 1056 l 329 1099 b 317 1111 329 1106 324 1111 l 100 1111 b 88 1099 93 1111 88 1106 l 88 926 b 108 904 88 915 94 904 l 215 904 b 307 829 276 904 307 871 b 218 750 307 789 271 750 b 124 788 168 750 128 783 b 107 788 118 793 113 792 l 78 760 b 79 739 69 753 71 749 b 215 686 97 719 140 686 z "},"⁶":{"ha":450,"x_min":0,"x_max":0,"o":"m 228 686 b 381 831 311 686 381 751 b 239 967 381 921 310 967 b 150 943 197 967 157 947 b 311 1074 174 1017 279 1064 b 324 1092 324 1076 328 1083 l 310 1124 b 293 1132 307 1131 300 1135 b 69 872 240 1115 69 1040 b 228 686 69 772 122 686 z m 229 751 b 135 861 167 751 136 815 b 226 908 146 878 181 908 b 313 831 274 908 313 874 b 229 751 313 788 276 751 z "},"⁷":{"ha":443,"x_min":0,"x_max":0,"o":"m 110 700 l 157 700 b 175 713 165 700 169 703 l 374 1083 l 374 1099 b 361 1111 374 1106 368 1111 l 82 1111 b 69 1099 75 1111 69 1106 l 69 1061 b 82 1049 69 1054 75 1049 l 281 1049 l 97 719 l 97 710 b 110 700 97 701 101 700 z "},"⁸":{"ha":446,"x_min":0,"x_max":0,"o":"m 221 686 b 376 803 317 686 376 735 b 296 911 376 857 326 897 l 296 914 b 365 1011 324 928 365 964 b 222 1125 365 1081 303 1125 b 81 1011 142 1125 81 1081 b 149 914 81 963 121 926 l 149 911 b 69 803 126 901 69 857 b 221 686 69 735 129 686 z m 222 944 b 154 1007 175 953 154 976 b 221 1065 154 1040 183 1065 b 292 1007 261 1065 292 1040 b 222 944 292 978 269 953 z m 222 746 b 144 807 182 746 144 769 b 222 878 144 838 172 868 b 301 807 274 868 301 838 b 222 746 301 769 265 746 z "},"⁹":{"ha":450,"x_min":0,"x_max":0,"o":"m 157 676 b 381 936 210 693 381 768 b 222 1122 381 1036 328 1122 b 69 978 139 1122 69 1057 b 211 842 69 888 140 842 b 300 865 253 842 293 861 b 139 735 276 792 171 744 b 126 717 126 732 122 725 l 140 685 b 157 676 143 678 150 674 z m 224 900 b 138 978 176 900 138 935 b 221 1057 138 1021 174 1057 b 315 947 283 1057 314 993 b 224 900 304 931 269 900 z "},"₀":{"ha":483,"x_min":0,"x_max":0,"o":"m 69 -4 b 242 -222 69 -140 132 -222 b 414 -4 351 -222 414 -140 b 242 215 414 133 351 215 b 69 -4 132 215 69 133 z m 146 -4 b 242 149 146 93 181 149 b 338 -4 303 149 338 93 b 242 -156 338 -101 303 -156 b 146 -4 181 -156 146 -101 z "},"₁":{"ha":293,"x_min":0,"x_max":0,"o":"m 78 86 b 92 81 79 81 85 79 l 149 96 l 149 -196 b 163 -208 149 -203 154 -208 l 211 -208 b 224 -196 218 -208 224 -203 l 224 190 b 211 203 224 197 219 203 l 172 203 l 75 125 b 71 110 69 119 69 117 z "},"₂":{"ha":435,"x_min":0,"x_max":0,"o":"m 108 110 b 125 110 111 107 118 103 b 211 151 147 132 181 151 b 290 86 268 151 290 115 b 246 8 290 61 274 39 l 69 -176 l 69 -196 b 83 -208 69 -206 76 -208 l 353 -208 b 365 -196 364 -208 365 -201 l 365 -161 b 353 -147 365 -153 361 -147 l 185 -147 l 297 -32 b 365 93 338 10 365 49 b 215 217 365 161 315 217 b 81 154 133 217 81 154 b 81 139 75 150 76 143 z "},"₃":{"ha":444,"x_min":0,"x_max":0,"o":"m 139 17 l 139 -18 b 153 -31 139 -26 146 -31 l 196 -31 b 297 -97 267 -31 297 -62 b 214 -160 297 -135 257 -160 b 122 -124 167 -160 126 -126 b 104 -122 117 -118 111 -118 l 75 -150 b 74 -165 69 -154 69 -161 b 217 -222 89 -182 131 -222 b 375 -103 313 -222 375 -171 b 290 1 375 -49 324 -11 l 290 4 b 363 101 322 17 363 54 b 217 217 363 172 297 217 b 88 161 140 217 88 161 b 88 144 82 157 82 149 l 115 119 b 133 119 122 114 129 115 b 211 153 147 133 171 153 b 286 90 250 153 286 128 b 196 29 286 57 258 29 l 153 29 b 139 17 144 29 139 25 z "},"₄":{"ha":501,"x_min":0,"x_max":0,"o":"m 69 -74 l 69 -114 b 82 -126 69 -121 75 -126 l 290 -126 l 290 -196 b 304 -208 290 -203 297 -208 l 349 -208 b 363 -196 356 -208 363 -203 l 363 -125 l 419 -125 b 432 -114 426 -125 432 -119 l 432 -78 b 419 -67 432 -72 426 -67 l 363 -67 l 363 190 b 349 203 363 197 356 203 l 319 203 b 308 199 317 203 311 201 z m 146 -65 l 293 99 l 293 -65 z "},"₅":{"ha":449,"x_min":0,"x_max":0,"o":"m 88 18 b 108 -4 88 7 94 -4 l 215 -4 b 307 -79 276 -4 307 -37 b 218 -158 307 -119 271 -158 b 124 -121 168 -158 128 -125 b 107 -121 118 -115 113 -117 l 78 -149 b 79 -169 69 -156 71 -160 b 215 -222 97 -189 140 -222 b 381 -78 311 -222 381 -157 b 221 58 381 4 322 58 l 154 58 l 154 142 l 317 142 b 329 153 324 142 329 147 l 329 190 b 317 203 329 197 324 203 l 100 203 b 88 190 93 203 88 197 z "},"₆":{"ha":450,"x_min":0,"x_max":0,"o":"m 69 -36 b 228 -222 69 -136 122 -222 b 381 -78 311 -222 381 -157 b 239 58 381 13 310 58 b 150 35 197 58 157 39 b 311 165 174 108 279 156 b 324 183 324 168 328 175 l 310 215 b 293 224 307 222 300 226 b 69 -36 240 207 69 132 z m 135 -47 b 226 0 146 -31 181 0 b 313 -78 274 0 313 -35 b 229 -157 313 -121 276 -157 b 135 -47 167 -157 136 -93 z "},"₇":{"ha":443,"x_min":0,"x_max":0,"o":"m 82 140 l 281 140 l 97 -189 l 97 -199 b 110 -208 97 -207 101 -208 l 157 -208 b 175 -196 165 -208 169 -206 l 374 175 l 374 190 b 361 203 374 197 368 203 l 82 203 b 69 190 75 203 69 197 l 69 153 b 82 140 69 146 75 140 z "},"₈":{"ha":446,"x_min":0,"x_max":0,"o":"m 69 -106 b 221 -222 69 -174 129 -222 b 376 -106 317 -222 376 -174 b 296 3 376 -51 326 -11 l 296 6 b 365 103 324 19 365 56 b 222 217 365 172 303 217 b 81 103 142 217 81 172 b 149 6 81 54 121 18 l 149 3 b 69 -106 126 -7 69 -51 z m 154 99 b 221 157 154 132 183 157 b 292 99 261 157 292 132 b 222 36 292 69 269 44 b 154 99 175 44 154 68 z m 144 -101 b 222 -31 144 -71 172 -40 b 301 -101 274 -40 301 -71 b 222 -162 301 -139 265 -162 b 144 -101 182 -162 144 -139 z "},"₉":{"ha":450,"x_min":0,"x_max":0,"o":"m 69 69 b 211 -67 69 -21 140 -67 b 300 -43 253 -67 293 -47 b 139 -174 276 -117 171 -164 b 126 -192 126 -176 122 -183 l 140 -224 b 157 -232 143 -231 150 -235 b 381 28 210 -215 381 -140 b 222 214 381 128 328 214 b 69 69 139 214 69 149 z m 138 69 b 221 149 138 113 174 149 b 315 39 283 149 314 85 b 224 -8 304 22 269 -8 b 138 69 176 -8 138 26 z "},"¦":{"ha":506,"x_min":0,"x_max":0,"o":"m 249 546 l 257 546 b 283 571 271 546 283 557 l 283 1029 b 258 1056 283 1044 272 1056 l 249 1056 b 222 1029 235 1056 222 1044 l 222 571 b 249 546 222 557 235 546 z m 222 68 l 222 -392 b 249 -417 222 -406 235 -417 l 257 -417 b 283 -392 271 -417 283 -406 l 283 68 b 258 94 283 83 272 94 l 249 94 b 222 68 235 94 222 83 z "}}}
